<svg viewBox="0 0 330 200" xmlns="http://www.w3.org/2000/svg"><g><g><g><g><g><line x1="51.52000045776367" y1="177.95999908447266" x2="46.52000045776367" y2="177.95999908447266" style="visibility: inherit;" fill="rgb(0, 0, 0)" stroke="rgb(204, 204, 204)" stroke-width="1px"></line><line x1="51.52000045776367" y1="164.27076838566705" x2="46.52000045776367" y2="164.27076838566705" style="visibility: inherit;" fill="rgb(0, 0, 0)" stroke="rgb(204, 204, 204)" stroke-width="1px"></line><line x1="51.52000045776367" y1="150.58153768686148" x2="46.52000045776367" y2="150.58153768686148" style="visibility: inherit;" fill="rgb(0, 0, 0)" stroke="rgb(204, 204, 204)" stroke-width="1px"></line><line x1="51.52000045776367" y1="136.89230698805588" x2="46.52000045776367" y2="136.89230698805588" style="visibility: inherit;" fill="rgb(0, 0, 0)" stroke="rgb(204, 204, 204)" stroke-width="1px"></line><line x1="51.52000045776367" y1="123.2030762892503" x2="46.52000045776367" y2="123.2030762892503" style="visibility: inherit;" fill="rgb(0, 0, 0)" stroke="rgb(204, 204, 204)" stroke-width="1px"></line><line x1="51.52000045776367" y1="109.51384559044472" x2="46.52000045776367" y2="109.51384559044472" style="visibility: inherit;" fill="rgb(0, 0, 0)" stroke="rgb(204, 204, 204)" stroke-width="1px"></line><line x1="51.52000045776367" y1="95.82461489163913" x2="46.52000045776367" y2="95.82461489163913" style="visibility: inherit;" fill="rgb(0, 0, 0)" stroke="rgb(204, 204, 204)" stroke-width="1px"></line><line x1="51.52000045776367" y1="82.13538419283354" x2="46.52000045776367" y2="82.13538419283354" style="visibility: inherit;" fill="rgb(0, 0, 0)" stroke="rgb(204, 204, 204)" stroke-width="1px"></line><line x1="51.52000045776367" y1="68.44615349402795" x2="46.52000045776367" y2="68.44615349402795" style="visibility: inherit;" fill="rgb(0, 0, 0)" stroke="rgb(204, 204, 204)" stroke-width="1px"></line><line x1="51.52000045776367" y1="54.756922795222366" x2="46.52000045776367" y2="54.756922795222366" style="visibility: inherit;" fill="rgb(0, 0, 0)" stroke="rgb(204, 204, 204)" stroke-width="1px"></line><line x1="51.52000045776367" y1="41.06769209641678" x2="46.52000045776367" y2="41.06769209641678" style="visibility: inherit;" fill="rgb(0, 0, 0)" stroke="rgb(204, 204, 204)" stroke-width="1px"></line><line x1="51.52000045776367" y1="27.378461397611176" x2="46.52000045776367" y2="27.378461397611176" style="visibility: inherit;" fill="rgb(0, 0, 0)" stroke="rgb(204, 204, 204)" stroke-width="1px"></line><line x1="51.52000045776367" y1="13.689230698805574" x2="46.52000045776367" y2="13.689230698805574" style="visibility: inherit;" fill="rgb(0, 0, 0)" stroke="rgb(204, 204, 204)" stroke-width="1px"></line><line x1="51.52000045776367" y1="0" x2="46.52000045776367" y2="0" style="visibility: inherit;" fill="rgb(0, 0, 0)" stroke="rgb(204, 204, 204)" stroke-width="1px"></line></g><g transform="translate(41.52000045776367, 0)"><text style="text-anchor: end; visibility: hidden; font-family: &quot;Helvetica Neue&quot;, sans-serif; font-size: 12px; font-weight: 200;" x="0" y="177.95999908447266" dx="0em" dy="0.3em" fill="rgb(50, 49, 63)" stroke="none" stroke-width="1px">-0.1</text><text style="text-anchor: end; visibility: inherit; font-family: &quot;Helvetica Neue&quot;, sans-serif; font-size: 12px; font-weight: 200;" x="0" y="164.27076838566705" dx="0em" dy="0.3em" fill="rgb(50, 49, 63)" stroke="none" stroke-width="1px">0</text><text style="text-anchor: end; visibility: hidden; font-family: &quot;Helvetica Neue&quot;, sans-serif; font-size: 12px; font-weight: 200;" x="0" y="150.58153768686148" dx="0em" dy="0.3em" fill="rgb(50, 49, 63)" stroke="none" stroke-width="1px">0.1</text><text style="text-anchor: end; visibility: inherit; font-family: &quot;Helvetica Neue&quot;, sans-serif; font-size: 12px; font-weight: 200;" x="0" y="136.89230698805588" dx="0em" dy="0.3em" fill="rgb(50, 49, 63)" stroke="none" stroke-width="1px">0.2</text><text style="text-anchor: end; visibility: hidden; font-family: &quot;Helvetica Neue&quot;, sans-serif; font-size: 12px; font-weight: 200;" x="0" y="123.2030762892503" dx="0em" dy="0.3em" fill="rgb(50, 49, 63)" stroke="none" stroke-width="1px">0.3</text><text style="text-anchor: end; visibility: inherit; font-family: &quot;Helvetica Neue&quot;, sans-serif; font-size: 12px; font-weight: 200;" x="0" y="109.51384559044472" dx="0em" dy="0.3em" fill="rgb(50, 49, 63)" stroke="none" stroke-width="1px">0.4</text><text style="text-anchor: end; visibility: hidden; font-family: &quot;Helvetica Neue&quot;, sans-serif; font-size: 12px; font-weight: 200;" x="0" y="95.82461489163913" dx="0em" dy="0.3em" fill="rgb(50, 49, 63)" stroke="none" stroke-width="1px">0.5</text><text style="text-anchor: end; visibility: inherit; font-family: &quot;Helvetica Neue&quot;, sans-serif; font-size: 12px; font-weight: 200;" x="0" y="82.13538419283354" dx="0em" dy="0.3em" fill="rgb(50, 49, 63)" stroke="none" stroke-width="1px">0.6</text><text style="text-anchor: end; visibility: hidden; font-family: &quot;Helvetica Neue&quot;, sans-serif; font-size: 12px; font-weight: 200;" x="0" y="68.44615349402795" dx="0em" dy="0.3em" fill="rgb(50, 49, 63)" stroke="none" stroke-width="1px">0.7</text><text style="text-anchor: end; visibility: inherit; font-family: &quot;Helvetica Neue&quot;, sans-serif; font-size: 12px; font-weight: 200;" x="0" y="54.756922795222366" dx="0em" dy="0.3em" fill="rgb(50, 49, 63)" stroke="none" stroke-width="1px">0.8</text><text style="text-anchor: end; visibility: hidden; font-family: &quot;Helvetica Neue&quot;, sans-serif; font-size: 12px; font-weight: 200;" x="0" y="41.06769209641678" dx="0em" dy="0.3em" fill="rgb(50, 49, 63)" stroke="none" stroke-width="1px">0.9</text><text style="text-anchor: end; visibility: inherit; font-family: &quot;Helvetica Neue&quot;, sans-serif; font-size: 12px; font-weight: 200;" x="0" y="27.378461397611176" dx="0em" dy="0.3em" fill="rgb(50, 49, 63)" stroke="none" stroke-width="1px">1</text><text style="text-anchor: end; visibility: hidden; font-family: &quot;Helvetica Neue&quot;, sans-serif; font-size: 12px; font-weight: 200;" x="0" y="13.689230698805574" dx="0em" dy="0.3em" fill="rgb(50, 49, 63)" stroke="none" stroke-width="1px">1.1</text><text style="text-anchor: end; visibility: hidden; font-family: &quot;Helvetica Neue&quot;, sans-serif; font-size: 12px; font-weight: 200;" x="0" y="0" dx="0em" dy="0.3em" fill="rgb(50, 49, 63)" stroke="none" stroke-width="1px">1.2</text></g><line x1="51.52000045776367" y1="0" x2="51.52000045776367" y2="177.95999908447266" fill="rgb(0, 0, 0)" stroke="rgb(204, 204, 204)" stroke-width="1px"></line></g></g><g transform="translate(51, 0)" clip-path="url(#clip_0)"><clipPath id="clip_0"><rect width="278" height="177"></rect></clipPath><g><g><g><line x1="0" y1="0" x2="0" y2="177.95999908447266" fill="rgb(0, 0, 0)" stroke="rgb(60, 60, 60)" stroke-width="1px" opacity="0.25"></line><line x1="34.80999994277954" y1="0" x2="34.80999994277954" y2="177.95999908447266" fill="rgb(0, 0, 0)" stroke="rgb(60, 60, 60)" stroke-width="1px" opacity="0.25"></line><line x1="69.61999988555908" y1="0" x2="69.61999988555908" y2="177.95999908447266" fill="rgb(0, 0, 0)" stroke="rgb(60, 60, 60)" stroke-width="1px" opacity="0.25"></line><line x1="104.42999982833862" y1="0" x2="104.42999982833862" y2="177.95999908447266" fill="rgb(0, 0, 0)" stroke="rgb(60, 60, 60)" stroke-width="1px" opacity="0.25"></line><line x1="139.23999977111816" y1="0" x2="139.23999977111816" y2="177.95999908447266" fill="rgb(0, 0, 0)" stroke="rgb(60, 60, 60)" stroke-width="1px" opacity="0.25"></line><line x1="174.0499997138977" y1="0" x2="174.0499997138977" y2="177.95999908447266" fill="rgb(0, 0, 0)" stroke="rgb(60, 60, 60)" stroke-width="1px" opacity="0.25"></line><line x1="208.85999965667725" y1="0" x2="208.85999965667725" y2="177.95999908447266" fill="rgb(0, 0, 0)" stroke="rgb(60, 60, 60)" stroke-width="1px" opacity="0.25"></line><line x1="243.6699995994568" y1="0" x2="243.6699995994568" y2="177.95999908447266" fill="rgb(0, 0, 0)" stroke="rgb(60, 60, 60)" stroke-width="1px" opacity="0.25"></line><line x1="278.4799995422363" y1="0" x2="278.4799995422363" y2="177.95999908447266" fill="rgb(0, 0, 0)" stroke="rgb(60, 60, 60)" stroke-width="1px" opacity="0.25"></line></g><g><line x1="0" y1="177.95999908447266" x2="278.4799995422363" y2="177.95999908447266" fill="rgb(0, 0, 0)" stroke="rgb(60, 60, 60)" stroke-width="1px" opacity="0.25"></line><line x1="0" y1="164.27076838566705" x2="278.4799995422363" y2="164.27076838566705" fill="rgb(0, 0, 0)" stroke="rgb(60, 60, 60)" stroke-width="1px" opacity="0.25"></line><line x1="0" y1="150.58153768686148" x2="278.4799995422363" y2="150.58153768686148" fill="rgb(0, 0, 0)" stroke="rgb(60, 60, 60)" stroke-width="1px" opacity="0.25"></line><line x1="0" y1="136.89230698805588" x2="278.4799995422363" y2="136.89230698805588" fill="rgb(0, 0, 0)" stroke="rgb(60, 60, 60)" stroke-width="1px" opacity="0.25"></line><line x1="0" y1="123.2030762892503" x2="278.4799995422363" y2="123.2030762892503" fill="rgb(0, 0, 0)" stroke="rgb(60, 60, 60)" stroke-width="1px" opacity="0.25"></line><line x1="0" y1="109.51384559044472" x2="278.4799995422363" y2="109.51384559044472" fill="rgb(0, 0, 0)" stroke="rgb(60, 60, 60)" stroke-width="1px" opacity="0.25"></line><line x1="0" y1="95.82461489163913" x2="278.4799995422363" y2="95.82461489163913" fill="rgb(0, 0, 0)" stroke="rgb(60, 60, 60)" stroke-width="1px" opacity="0.25"></line><line x1="0" y1="82.13538419283354" x2="278.4799995422363" y2="82.13538419283354" fill="rgb(0, 0, 0)" stroke="rgb(60, 60, 60)" stroke-width="1px" opacity="0.25"></line><line x1="0" y1="68.44615349402795" x2="278.4799995422363" y2="68.44615349402795" fill="rgb(0, 0, 0)" stroke="rgb(60, 60, 60)" stroke-width="1px" opacity="0.25"></line><line x1="0" y1="54.756922795222366" x2="278.4799995422363" y2="54.756922795222366" fill="rgb(0, 0, 0)" stroke="rgb(60, 60, 60)" stroke-width="1px" opacity="0.25"></line><line x1="0" y1="41.06769209641678" x2="278.4799995422363" y2="41.06769209641678" fill="rgb(0, 0, 0)" stroke="rgb(60, 60, 60)" stroke-width="1px" opacity="0.25"></line><line x1="0" y1="27.378461397611176" x2="278.4799995422363" y2="27.378461397611176" fill="rgb(0, 0, 0)" stroke="rgb(60, 60, 60)" stroke-width="1px" opacity="0.25"></line><line x1="0" y1="13.689230698805574" x2="278.4799995422363" y2="13.689230698805574" fill="rgb(0, 0, 0)" stroke="rgb(60, 60, 60)" stroke-width="1px" opacity="0.25"></line><line x1="0" y1="0" x2="278.4799995422363" y2="0" fill="rgb(0, 0, 0)" stroke="rgb(60, 60, 60)" stroke-width="1px" opacity="0.25"></line></g></g></g><g><g><line x1="0" y1="164.27076838566705" x2="278.4799995422363" y2="164.27076838566705" fill="rgb(0, 0, 0)" stroke="rgb(153, 153, 153)" stroke-width="1.5px"></line></g></g><g><g><line x1="34.80999994277954" y1="0" x2="34.80999994277954" y2="177.95999908447266" fill="rgb(0, 0, 0)" stroke="rgb(153, 153, 153)" stroke-width="1.5px"></line></g></g><g><g><g><g><g><path style="fill: none;" stroke="rgb(204, 51, 17)" stroke-width="2px" d="M35.138954442238806,142.88134541878333L35.55667444155216,138.6034608254066L35.60888944146633,121.4919224518996L35.80034444115162,138.6034608254066L36.06141944072246,134.32557623202985L36.46173444006443,112.93615326514612L37.52343943831921,125.76980704527637L37.57565443823338,134.32557623202985L37.73229943797588,82.99096111150888L38.811409436202055,108.65826867176938L38.898434436059,117.21403785852286L39.263939435458184,100.10249948501588L39.35096443531513,91.54673029826239L39.47279943511486,95.82461489163913L39.5772294349432,100.10249948501588L40.18640443394184,112.93615326514612L40.221214433884626,95.82461489163913L40.36045443365574,100.10249948501588L40.865199432826046,91.54673029826239L41.21329943225384,95.82461489163913L42.153169430708886,91.54673029826239L42.17057443068027,91.54673029826239L42.51867443010807,78.71307651813213L42.831964429593086,104.38038407839262L43.07563442919254,100.10249948501588L44.15474442741871,78.71307651813213L44.62467942664623,91.54673029826239L44.903159426188466,74.4351919247554L45.0249944259882,78.71307651813213L45.04239942595959,87.26884570488563L45.61676442501545,87.26884570488563L45.86043442461491,95.82461489163913L45.99967442438602,82.99096111150888L46.08669942424297,87.26884570488563L46.12150942418575,95.82461489163913L46.330369423842434,82.99096111150888L46.50441942355633,100.10249948501588L47.25283442232609,78.71307651813213L47.39207442209721,82.99096111150888L47.53131442186832,100.10249948501588L47.98384442112446,87.26884570488563L48.14048942086696,87.26884570488563L48.210109420752524,74.4351919247554L48.244919420695304,78.71307651813213L48.48858942029476,78.71307651813213L48.52339942023754,74.4351919247554L48.64523442003727,82.99096111150888L48.78447441980839,78.71307651813213L48.888904419636724,74.4351919247554L49.37624441883564,87.26884570488563L50.64680941674709,95.82461489163913L51.221174415802956,87.26884570488563L51.273389415717126,100.10249948501588L51.56927441523075,82.99096111150888L51.72591941497326,87.26884570488563L51.74332441494465,65.8794227380019L51.847754414772986,74.4351919247554L51.95218441460133,78.71307651813213L52.26547441408634,74.4351919247554L52.31768941400051,91.54673029826239L52.474334413743016,65.8794227380019L53.32717941234112,78.71307651813213L53.37939441225529,61.60153814462515L53.48382441208363,100.10249948501588L53.58825441191196,70.15730733137865L53.84932941148281,61.60153814462515L53.95375941131115,48.767884364494904L54.040784411168104,57.32365355124841L54.94584440968036,82.99096111150888L55.03286940953732,61.60153814462515L55.0502744095087,57.32365355124841L55.36356440899372,87.26884570488563L55.58982940862179,70.15730733137865L55.81609440824985,74.4351919247554L56.47748440716266,91.54673029826239L56.77336940667629,61.60153814462515L57.12146940610408,61.60153814462515L57.73064440510273,70.15730733137865L57.7828594050169,57.32365355124841L58.026529404616355,65.8794227380019L58.096149404501915,78.71307651813213L58.93158940312862,65.8794227380019L59.05342440292835,65.8794227380019L59.436334402298925,78.71307651813213L59.6451944019556,70.15730733137865L59.8192444016695,78.71307651813213L60.34139440081119,78.71307651813213L60.53284940049648,74.4351919247554L60.6720894002676,78.71307651813213L60.776519400095935,65.8794227380019L61.33347939918041,87.26884570488563L61.83822439835072,57.32365355124841L62.11670439789295,87.26884570488563L62.395184397435195,70.15730733137865L62.46480439732075,65.8794227380019L62.76068939683437,82.99096111150888L63.36986439583301,87.26884570488563L63.50910439560413,70.15730733137865L64.10087439463139,78.71307651813213L64.25751939437389,82.99096111150888L64.36194939420224,61.60153814462515L64.44897439405918,70.15730733137865L64.57080939385891,57.32365355124841L64.72745439360142,74.4351919247554L64.97112439320087,82.99096111150888L65.00593439314366,57.32365355124841L65.05814939305782,57.32365355124841L65.21479439280033,74.4351919247554L65.82396939179897,78.71307651813213L66.24168939111233,70.15730733137865L66.60719439051151,74.4351919247554L66.92048438999653,57.32365355124841L67.07712938973903,48.767884364494904L67.3033943893671,78.71307651813213L67.35560938928127,57.32365355124841L67.49484938905239,53.04576895787167L68.19104938790798,57.32365355124841L68.4869343874216,48.767884364494904L68.66098438713551,65.8794227380019L68.71319938704968,74.4351919247554L69.06129938647747,74.4351919247554L69.33977938601971,65.8794227380019L69.65306938550472,61.60153814462515L69.86192938516139,70.15730733137865L70.15781438467502,53.04576895787167L70.26224438450336,57.32365355124841L70.90622938344478,74.4351919247554L70.95844438335895,70.15730733137865L70.97584938333034,65.8794227380019L71.11508938310146,61.60153814462515L71.18470938298702,61.60153814462515L71.30654438278674,78.71307651813213L72.2290093812704,61.60153814462515L72.35084438107015,65.8794227380019L72.50748938081264,65.8794227380019L72.89039938018323,65.8794227380019L72.96001938006879,61.60153814462515L73.0992593798399,61.60153814462515L73.23849937961103,70.15730733137865L73.30811937949657,65.8794227380019L73.65621937892438,65.8794227380019L73.74324437878133,53.04576895787167L73.7606493787527,57.32365355124841L73.84767437860965,53.04576895787167L74.05653437826633,74.4351919247554L74.1087493781805,57.32365355124841L74.19577437803746,70.15730733137865L74.52646937749387,65.8794227380019L74.8049493770361,74.4351919247554L74.97899937675,61.60153814462515L75.18785937640666,74.4351919247554L75.6403893756628,57.32365355124841L75.7970343754053,78.71307651813213L76.40620937440396,65.8794227380019L76.42361437437535,65.8794227380019L76.45842437431813,74.4351919247554L77.22424437305926,74.4351919247554L77.36348437283038,82.99096111150888L77.5201293725729,91.54673029826239L77.55493937251568,61.60153814462515L77.64196437237263,44.489999771118164L78.07708937165737,70.15730733137865L78.09449437162877,61.60153814462515L78.26854437134266,82.99096111150888L78.30335437128544,61.60153814462515L78.39037937114239,61.60153814462515L78.63404937074185,53.04576895787167L78.73847937057019,61.60153814462515L78.89512437031269,70.15730733137865L79.15619936988354,44.489999771118164L79.26062936971186,40.212115177741424L80.0786643683672,61.60153814462515L80.18309436819554,74.4351919247554L80.47897936770916,61.60153814462515L80.5834093675375,78.71307651813213L81.55808936593533,57.32365355124841L81.64511436579228,57.32365355124841L81.87137936542034,70.15730733137865L82.51536436436176,53.04576895787167L82.75903436396122,74.4351919247554L83.36820936295986,74.4351919247554L84.81282436058521,44.489999771118164L85.12611436007023,44.489999771118164L85.23054435989856,53.04576895787167L85.64826435921192,53.04576895787167L86.46629935786724,57.32365355124841L86.60553935763836,61.60153814462515L87.2321193566084,53.04576895787167L87.51059935615062,70.15730733137865L87.56281435606479,74.4351919247554L87.70205435583591,74.4351919247554L87.75426935575008,44.489999771118164L88.24160935494899,57.32365355124841L88.7637593540907,57.32365355124841L89.73843935248851,61.60153814462515L89.84286935231685,57.798972248419744L90.1213493518591,53.04576895787167L90.4346393513441,44.489999771118164L90.45204435131551,44.489999771118164L91.04381435034276,74.4351919247554L91.21786435005664,57.32365355124841L91.27007934997081,57.32365355124841L91.28748434994222,65.8794227380019L91.32229434988498,53.04576895787167L91.33969934985637,48.767884364494904L91.77482434914111,70.15730733137865L92.34918934819699,61.60153814462515L93.04538934705258,48.767884364494904L93.58494434616566,44.489999771118164L94.05487934539319,70.15730733137865L94.14190434525013,57.32365355124841L94.52481434462071,57.32365355124841L94.85550934407712,65.8794227380019L95.11658434364796,70.15730733137865L95.3950643431902,74.4351919247554L95.8998093423605,53.04576895787167L95.95202434227467,48.767884364494904L96.38714934155941,61.60153814462515L97.13556434032917,44.489999771118164L97.48366433975697,48.767884364494904L97.79695433924198,74.4351919247554L97.83176433918476,53.04576895787167L97.86657433912754,48.767884364494904L97.97100433895588,53.04576895787167L98.4583443381548,61.60153814462515L98.70201433775425,44.489999771118164L99.67669433615207,57.32365355124841L99.74631433603764,57.32365355124841L99.93776933572293,57.32365355124841L100.477324334836,70.15730733137865L100.61656433460712,65.8794227380019L100.84282933423519,57.32365355124841L100.92985433409214,44.489999771118164L101.20833433363437,48.767884364494904L101.29535933349132,61.60153814462515L101.33016933343411,53.04576895787167L101.504219333148,48.767884364494904L101.57383933303356,65.8794227380019L102.07858433220386,61.60153814462515L102.28744433186054,61.60153814462515L103.1925043303728,53.04576895787167L103.38395933005809,53.04576895787167L103.67984432957172,57.32365355124841L104.16718432877063,65.8794227380019L104.61971432802677,70.15730733137865L104.82857432768344,57.32365355124841L105.02002932736873,40.212115177741424L105.0722443272829,57.32365355124841L106.06432932565211,65.8794227380019L106.15135432550908,53.04576895787167L106.34280932519435,65.8794227380019L107.61337432310582,48.767884364494904L107.80482932279111,53.04576895787167L107.82223432276248,61.60153814462515L107.85704432270528,44.489999771118164L107.94406932256221,40.212115177741424L107.9614743225336,61.60153814462515L108.39659932181836,57.32365355124841L108.4836243216753,57.32365355124841L108.53583932158946,61.60153814462515L108.67507932136058,53.04576895787167L109.02317932078837,48.767884364494904L109.07539432070254,48.767884364494904L109.09279932067395,57.32365355124841L109.35387432024478,48.767884364494904L109.73678431961537,65.8794227380019L109.96304931924342,61.60153814462515L109.9978593191862,44.489999771118164L110.22412431881429,57.32365355124841L110.86810931775571,61.60153814462515L111.28582931706906,57.32365355124841L111.40766431686879,40.212115177741424L111.51209431669713,61.60153814462515L111.92981431601048,65.8794227380019L111.98202931592465,61.60153814462515L113.00892431423664,53.04576895787167L113.30480931375027,40.212115177741424L113.67031431314945,57.32365355124841L113.72252931306362,57.32365355124841L114.50575431177616,53.04576895787167L114.55796931169033,61.60153814462515L114.83644931123257,53.04576895787167L115.37600431034565,48.767884364494904L115.86334430954457,53.04576895787167L116.00258430931568,48.767884364494904L116.07220430920124,44.489999771118164L116.21144430897236,48.767884364494904L116.40289930865765,70.15730733137865L116.85542930791378,70.15730733137865L116.94245430777072,53.04576895787167L117.22093430731296,65.8794227380019L117.4994143068552,57.32365355124841L117.63865430662632,53.04576895787167L117.79529930636883,48.767884364494904L117.95194430611134,57.32365355124841L118.14339930579662,35.934230584364656L118.16080430576801,74.4351919247554L118.36966430542469,57.32365355124841L118.40447430536747,53.04576895787167L119.06586430428028,53.04576895787167L119.27472430393696,57.32365355124841L119.60541930339336,57.32365355124841L120.00573430273532,57.32365355124841L120.35383430216312,70.15730733137865L121.18927430078983,65.8794227380019L121.34591930053233,61.60153814462515L121.39813430044651,61.60153814462515L122.32059929893016,48.767884364494904L122.37281429884433,53.04576895787167L122.72091429827213,48.767884364494904L122.75572429821491,65.8794227380019L122.77312929818629,53.04576895787167L123.20825429747104,53.04576895787167L123.69559429666997,57.32365355124841L124.04369429609775,57.32365355124841L124.18293429586888,53.04576895787167L124.72248929498195,53.04576895787167L125.01837429449559,48.767884364494904L125.3316642939806,48.767884364494904L125.47090429375172,70.15730733137865L126.0104592928648,44.489999771118164L126.88070929143429,44.489999771118164L127.3854542906046,44.489999771118164L127.57690929028989,44.489999771118164L127.85538928983212,44.489999771118164L128.09905928943158,53.04576895787167L128.46456428883076,48.767884364494904L129.16076428768633,44.489999771118164L129.54367428705692,82.99096111150888L129.63069928691388,57.32365355124841L130.2746842858553,48.767884364494904L130.46613928554058,48.767884364494904L130.81423928496838,44.489999771118164L130.84904928491116,57.32365355124841L131.40600928399562,53.04576895787167L131.82372928330898,61.60153814462515L132.03258928296566,40.212115177741424L132.06739928290844,44.489999771118164L132.17182928273678,48.767884364494904L132.8158142816782,48.767884364494904L133.30315428087712,40.212115177741424L133.3379642808199,44.489999771118164L133.40758428070546,53.04576895787167L133.6686592802763,65.8794227380019L134.38226427910328,70.15730733137865L134.43447927901747,65.8794227380019L135.3569442775011,53.04576895787167L135.40915927741526,57.32365355124841L135.58320927712919,48.767884364494904L135.89649927661418,65.8794227380019L135.91390427658558,70.15730733137865L136.2097892760992,44.489999771118164L136.26200427601339,61.60153814462515L136.85377427504062,53.04576895787167L136.8885842749834,48.767884364494904L137.01041927478315,53.04576895787167L137.63699927375316,35.934230584364656L138.00250427315234,53.04576895787167L138.4202242724657,48.767884364494904L138.50724927232267,44.489999771118164L138.61167927215098,48.767884364494904L139.08161427137853,44.489999771118164L139.4297142708063,35.934230584364656L139.51673927066327,53.04576895787167L139.77781427023413,61.60153814462515L139.86483927009107,61.60153814462515L140.61325426886083,31.656345990987916L141.04837926814554,48.767884364494904L141.08318926808835,61.60153814462515L141.3616692676306,44.489999771118164L141.39647926757337,48.767884364494904L141.50090926740168,40.212115177741424L141.53571926734446,27.378461397611176L141.8490092668295,57.32365355124841L142.24932426617147,40.212115177741424L142.40596926591397,53.04576895787167L142.7366642653704,53.04576895787167L142.92811926505564,40.212115177741424L142.96292926499845,48.767884364494904L143.0673592648268,44.489999771118164L143.29362426445485,48.767884364494904L143.60691426393984,53.04576895787167L144.28570926282404,57.32365355124841L144.68602426216603,57.32365355124841L144.7556442620516,44.489999771118164L144.77304926202297,65.8794227380019L145.19076926133633,44.489999771118164L145.3822242610216,53.04576895787167L145.57367926070688,53.04576895787167L145.69551426050666,40.212115177741424L145.79994426033494,40.212115177741424L146.21766425964833,61.60153814462515L147.2445592579603,48.767884364494904L147.87113925693038,57.32365355124841L147.88854425690175,48.767884364494904L147.95816425678728,57.32365355124841L148.3062642562151,48.767884364494904L148.3236692561865,61.60153814462515L148.34107425615787,48.767884364494904L148.48031425592902,48.767884364494904L149.24613425467012,35.934230584364656L149.36796925446987,40.212115177741424L149.42018425438403,40.212115177741424L149.75087925384042,53.04576895787167L150.6907492522955,53.04576895787167L150.84739425203801,48.767884364494904L150.8822042519808,31.656345990987916L150.95182425186636,61.60153814462515L151.0562542516947,53.04576895787167L151.10846925160885,61.60153814462515L151.23030425140857,53.04576895787167L151.3695442511797,48.767884364494904L151.42175925109385,44.489999771118164L151.63061925075053,65.8794227380019L152.10055424997805,44.489999771118164L152.17017424986363,48.767884364494904L152.3616292495489,40.212115177741424L152.55308424923422,44.489999771118164L153.73662424728872,40.212115177741424L153.98029424688815,53.04576895787167L154.1195342466593,35.934230584364656L154.36320424625873,40.212115177741424L154.3806092462301,48.767884364494904L154.83313924548625,31.656345990987916L155.0768092450857,53.04576895787167L155.51193424437048,44.489999771118164L156.01667924354078,48.767884364494904L156.06889424345493,48.767884364494904L156.52142424271108,48.767884364494904L156.83471424219607,40.212115177741424L156.90433424208166,44.489999771118164L157.33945924136637,40.212115177741424L158.24451923987866,61.60153814462515L158.5055942394495,40.212115177741424L158.64483423922061,40.212115177741424L158.66223923919202,48.767884364494904L159.04514923856257,27.378461397611176L159.35843923804762,40.212115177741424L160.0546392369032,48.767884364494904L160.42014423630238,40.212115177741424L160.80305423567293,48.767884364494904L160.95969923541546,53.04576895787167L161.88216423389912,35.934230584364656L162.0736192335844,57.32365355124841L162.38690923306942,48.767884364494904L162.56095923278332,57.32365355124841L162.5783642327547,44.489999771118164L162.90905923221112,31.656345990987916L163.30937423155308,57.32365355124841L163.64006923100948,48.767884364494904L164.16221923015118,44.489999771118164L164.31886422989368,57.32365355124841L164.37107922980783,44.489999771118164L164.4929142296076,48.767884364494904L164.66696422932148,48.767884364494904L164.71917922923566,65.8794227380019L164.8062042290926,57.32365355124841L164.98025422880647,40.212115177741424L165.39797422811986,44.489999771118164L165.55461922786236,53.04576895787167L165.8853142273188,57.32365355124841L166.1811992268324,53.04576895787167L167.26030922505856,40.212115177741424L167.8694842240572,48.767884364494904L168.16536922357082,44.489999771118164L168.33941922328472,35.934230584364656L168.42644422314166,57.32365355124841L168.61789922282696,61.60153814462515L168.72232922265528,44.489999771118164L168.84416422245505,35.934230584364656L169.15745422194004,44.489999771118164L169.244479221797,61.60153814462515L169.33150422165392,48.767884364494904L169.64479422113897,35.934230584364656L169.83624922082424,57.32365355124841L169.8884642207384,65.8794227380019L170.23656422016623,40.212115177741424L170.37580421993732,48.767884364494904L170.54985421965122,40.212115177741424L171.15902921864986,57.32365355124841L171.24605421850683,70.15730733137865L172.3077592167616,65.8794227380019L172.325164216733,53.04576895787167L172.88212421581744,61.60153814462515L173.6305392145872,53.04576895787167L173.76977921435832,48.767884364494904L173.90901921412944,48.767884364494904L173.92642421410085,44.489999771118164L174.51819421312808,44.489999771118164L174.7096492128134,57.32365355124841L174.91850921247004,40.212115177741424L175.2143942119837,48.767884364494904L176.25869421026704,44.489999771118164L176.67641420958043,40.212115177741424L177.1985642087221,40.212115177741424L177.2681842086077,44.489999771118164L177.51185420820713,57.32365355124841L177.80773920772074,40.212115177741424L177.91216920754908,44.489999771118164L178.64317920634747,40.212115177741424L178.92165920588968,57.32365355124841L179.113114205575,40.212115177741424L179.26975920531748,44.489999771118164L179.4089992050886,48.767884364494904L179.7570992045164,40.212115177741424L179.7919092044592,44.489999771118164L179.84412420437337,44.489999771118164L179.87893420431612,53.04576895787167L179.98336420414446,48.767884364494904L180.3314642035723,53.04576895787167L180.38367920348642,61.60153814462515L180.4707042033434,35.934230584364656L180.6273492030859,40.212115177741424L181.8456992010832,48.767884364494904L182.193799200511,53.04576895787167L182.21120420048237,48.767884364494904L182.24601420042515,44.489999771118164L182.4896842000246,44.489999771118164L182.55930419991014,44.489999771118164L182.71594919965267,40.212115177741424L182.73335419962407,44.489999771118164L182.820379199481,40.212115177741424L182.90740419933798,35.934230584364656L183.16847919890878,44.489999771118164L183.7080341980219,48.767884364494904L183.91689419767857,70.15730733137865L184.0387291974783,61.60153814462515L184.12575419733525,48.767884364494904L184.36942419693472,48.767884364494904L184.5260691966772,61.60153814462515L184.97859919593336,44.489999771118164L185.10043419573307,40.212115177741424L185.11783919570445,44.489999771118164L185.27448419544697,44.489999771118164L185.93587419435977,53.04576895787167L186.0751141941309,53.04576895787167L186.0925191941023,44.489999771118164L186.16213919398785,53.04576895787167L186.7190991930723,44.489999771118164L187.53713419172766,57.32365355124841L187.6067541916132,61.60153814462515L188.00706919095515,44.489999771118164L188.3203591904402,53.04576895787167L188.37257419035436,40.212115177741424L188.73807918975353,40.212115177741424L188.92953418943884,40.212115177741424L189.34725418875217,40.212115177741424L189.4690891885519,44.489999771118164L189.76497418806554,40.212115177741424L189.7997841880083,57.32365355124841L189.85199918792247,57.32365355124841L190.21750418732168,35.934230584364656L190.25231418726443,40.212115177741424L190.3393391871214,35.934230584364656L190.53079418680667,40.212115177741424L190.73965418646335,53.04576895787167L191.03553918597697,70.15730733137865L191.348829185462,44.489999771118164L191.45325918529034,65.8794227380019L191.62730918500424,48.767884364494904L191.94059918448926,40.212115177741424L191.95800418446063,40.212115177741424L192.42793918368815,44.489999771118164L192.56717918345927,48.767884364494904L192.74122918317317,53.04576895787167L192.93268418285845,40.212115177741424L193.29818918225766,44.489999771118164L193.61147918174268,53.04576895787167L194.16843918082716,61.60153814462515L194.29027418062688,40.212115177741424L195.19533417913914,44.489999771118164L195.23014417908192,40.212115177741424L195.40419417879582,35.934230584364656L195.52602917859554,48.767884364494904L195.99596417782305,44.489999771118164L196.36146917722226,40.212115177741424L196.53551917693616,48.767884364494904L196.81399917647838,40.212115177741424L196.84880917642118,40.212115177741424L196.9706441762209,44.489999771118164L197.52760417530538,31.656345990987916L197.6146291751623,27.378461397611176L197.8060841748476,53.04576895787167L197.89310917470453,40.212115177741424L198.64152417347432,35.934230584364656L198.69373917338848,35.934230584364656L199.04183917281628,61.60153814462515L199.14626917264462,57.32365355124841L199.163674172616,48.767884364494904L199.61620417187214,35.934230584364656L199.73803917167186,53.04576895787167L200.83455416986942,48.767884364494904L200.99119916961195,35.934230584364656L201.11303416941166,61.60153814462515L201.16524916932582,40.212115177741424L201.28708416912556,61.60153814462515L201.33929916903972,44.489999771118164L201.7222091684103,40.212115177741424L201.91366416809558,35.934230584364656L202.10511916778088,44.489999771118164L202.31397916743757,35.934230584364656L202.33138416740894,40.212115177741424L202.38359916732313,48.767884364494904L202.80131916663646,35.934230584364656L202.9057491664648,48.767884364494904L203.30606416580676,35.934230584364656L203.48011416552066,53.04576895787167L203.61935416529178,48.767884364494904L204.68105916354656,40.212115177741424L204.8377041632891,35.934230584364656L204.9943491630316,48.767884364494904L205.60352416203023,65.8794227380019L206.09086416122912,40.212115177741424L206.1430791611433,40.212115177741424L206.8392791599989,53.04576895787167L207.25699915931224,61.60153814462515L208.38832415745256,48.767884364494904L209.11933415625097,44.489999771118164L209.745914155221,40.212115177741424L209.83293915507792,48.767884364494904L209.85034415504933,44.489999771118164L209.8851541549921,48.767884364494904L210.12882415459157,40.212115177741424L210.33768415424822,35.934230584364656L210.7379991535902,40.212115177741424L210.84242915341852,40.212115177741424L211.1035041529894,48.767884364494904L211.20793415281773,35.934230584364656L211.38198415253163,35.934230584364656L211.799704151845,35.934230584364656L212.0955891513586,40.212115177741424L212.4784991507292,40.212115177741424L213.01805414984224,35.934230584364656L213.13988914964202,40.212115177741424L213.33134414932726,48.767884364494904L213.67944414875507,53.04576895787167L213.80127914855478,53.04576895787167L213.88830414841175,48.767884364494904L214.6193141472101,31.656345990987916L215.24589414618015,53.04576895787167L215.73323414537907,44.489999771118164L215.76804414532185,35.934230584364656L215.78544914529323,40.212115177741424L215.82025914523604,57.32365355124841L215.92468914506438,61.60153814462515L216.08133414480685,44.489999771118164L216.1857641446352,40.212115177741424L216.27278914449215,53.04576895787167L216.77753414366245,40.212115177741424L217.0212041432619,48.767884364494904L217.21265914294722,35.934230584364656L217.3867091426611,44.489999771118164L217.45632914254665,53.04576895787167L217.47373414251803,53.04576895787167L217.96107414171695,48.767884364494904L218.11771914145947,31.656345990987916L218.51803414080143,40.212115177741424L218.5354391407728,35.934230584364656L218.7442991404295,35.934230584364656L219.2838541395426,53.04576895787167L219.4404991392851,48.767884364494904L219.7363841387987,40.212115177741424L219.82340913865565,53.04576895787167L219.98005413839817,40.212115177741424L220.1192941381693,35.934230584364656L220.2585341379404,40.212115177741424L220.55441913745403,44.489999771118164L221.07656913659574,44.489999771118164L221.2506191363096,74.4351919247554L221.89460413525106,40.212115177741424L222.05124913499355,35.934230584364656L222.06865413496496,53.04576895787167L222.1730841347933,40.212115177741424L222.45156413433554,53.04576895787167L222.57339913413526,48.767884364494904L223.06073913333415,44.489999771118164L223.07814413330556,48.767884364494904L223.23478913304808,48.767884364494904L223.321814132905,48.767884364494904L223.5132691325903,44.489999771118164L223.6699141323328,57.32365355124841L223.91358413193225,40.212115177741424L224.57497413084508,31.656345990987916L224.62718913075926,44.489999771118164L224.78383413050173,53.04576895787167L225.2189591297865,40.212115177741424L225.28857912967203,53.04576895787167L225.44522412941456,48.767884364494904L225.68889412901402,57.32365355124841L225.79332412884233,57.32365355124841L225.82813412878514,35.934230584364656L226.4199041278124,40.212115177741424L226.52433412764074,70.15730733137865L226.62876412746905,48.767884364494904L226.66357412741183,53.04576895787167L226.6809791273832,44.489999771118164L226.8550291270971,53.04576895787167L226.94205412695408,40.212115177741424L227.1857241265535,53.04576895787167L227.34236912629603,48.767884364494904L227.62084912583828,40.212115177741424L228.05597412512302,48.767884364494904L228.38666912457944,48.767884364494904L228.54331412432194,44.489999771118164L228.85660412380693,35.934230584364656L229.32653912303448,48.767884364494904L229.72685412237644,40.212115177741424L229.76166412231925,44.489999771118164L229.77906912229062,48.767884364494904L230.6667241208315,35.934230584364656L230.8059641206026,44.489999771118164L230.85817912051678,40.212115177741424L231.01482412025928,48.767884364494904L231.6762141191721,40.212115177741424L232.21576911828518,44.489999771118164L232.56386911771298,44.489999771118164L232.89456411716938,35.934230584364656L233.43411911628246,44.489999771118164L233.57335911605358,40.212115177741424L233.60816911599636,48.767884364494904L234.1999391150236,53.04576895787167L234.25215411493778,44.489999771118164L234.4958241145372,48.767884364494904L234.7394941141367,44.489999771118164L234.84392411396504,70.15730733137865L235.33126411316394,40.212115177741424L235.3834791130781,35.934230584364656L235.40088411304953,53.04576895787167L235.50531411287787,35.934230584364656L235.54012411282062,35.934230584364656L235.83600911233424,40.212115177741424L235.97524911210536,40.212115177741424L236.13189411184788,31.656345990987916L236.39296911141872,40.212115177741424L236.67144911096094,48.767884364494904L237.35024410984516,44.489999771118164L237.55910410950182,40.212115177741424L237.59391410944463,44.489999771118164L237.76796410915853,40.212115177741424L237.9594191088438,40.212115177741424L238.08125410864355,57.32365355124841L238.20308910844327,57.32365355124841L238.23789910838605,44.489999771118164L238.53378410789966,40.212115177741424L238.8644791073561,40.212115177741424L239.4910591063261,44.489999771118164L239.96099410555362,61.60153814462515L240.06542410538196,44.489999771118164L240.22206910512446,40.212115177741424L240.74421910426616,44.489999771118164L241.14453410360815,44.489999771118164L241.16193910357953,35.934230584364656L241.47522910306455,40.212115177741424L241.96256910226344,53.04576895787167L242.0495941021204,44.489999771118164L242.27585910174847,44.489999771118164L242.51952910134793,40.212115177741424L242.65876910111905,31.656345990987916L242.74579410097598,35.934230584364656L242.78060410091877,53.04576895787167L242.79800910089014,40.212115177741424L243.14610910031797,70.15730733137865L243.2331341001749,31.656345990987916L243.47680409977434,44.489999771118164L243.65085409948827,31.656345990987916L243.7378790993452,35.934230584364656L243.85971409914492,48.767884364494904L244.19040909860132,44.489999771118164L244.39926909825803,35.934230584364656L245.00844409725667,40.212115177741424L245.16508909699917,48.767884364494904L246.0005290956259,48.767884364494904L246.08755409548283,44.489999771118164L246.34862909505367,44.489999771118164L246.54008409473894,48.767884364494904L246.60970409462453,48.767884364494904L246.88818409416677,31.656345990987916L247.11444909379483,40.212115177741424L247.46254909322263,40.212115177741424L247.61919409296513,48.767884364494904L247.75843409273625,44.489999771118164L248.38501409170627,48.767884364494904L248.73311409113407,31.656345990987916L248.78532909104825,35.934230584364656L249.0638090905905,40.212115177741424L249.34228909013274,53.04576895787167L250.5780440881014,35.934230584364656L250.73468908784392,40.212115177741424L250.7520940878153,40.212115177741424L251.27424408695697,40.212115177741424L251.60493908641337,44.489999771118164L251.65715408632755,35.934230584364656L252.04006408569813,44.489999771118164L252.8058840844393,48.767884364494904L253.17138908383845,44.489999771118164L253.2758190836668,44.489999771118164L253.3106290836096,35.934230584364656L253.67613408300875,57.32365355124841L254.05904408237933,44.489999771118164L254.56378908154963,40.212115177741424L255.36441908023357,44.489999771118164L255.64289907977582,40.212115177741424L255.85175907943247,35.934230584364656L256.8786540777445,31.656345990987916L257.15713407728674,31.656345990987916L257.6966890763998,48.767884364494904L257.83592907617094,44.489999771118164L258.2014340755701,31.656345990987916L258.63655907485486,31.656345990987916L258.7235840747118,35.934230584364656L258.94984907433985,44.489999771118164L259.17611407396794,48.767884364494904L259.2805440737963,40.212115177741424L260.01155407259466,31.656345990987916L260.028959072566,31.656345990987916L260.115984072423,57.32365355124841L260.3770590719938,57.32365355124841L261.3865490703344,48.767884364494904L261.68243406984806,44.489999771118164L262.1523690690756,57.32365355124841L262.169774069047,53.04576895787167L262.3090140688181,40.212115177741424L262.5178740684748,53.04576895787167L262.57008906838894,31.656345990987916L262.72673406813146,35.934230584364656L262.9878090677023,44.489999771118164L263.05742906758786,44.489999771118164L263.3533140671015,48.767884364494904L263.6666040665865,27.378461397611176L263.9798940660715,48.767884364494904L264.2409690656424,57.32365355124841L264.41501906535626,48.767884364494904L264.4672340652704,35.934230584364656L264.6760940649271,31.656345990987916L264.6934990648985,48.767884364494904L264.76311906478406,35.934230584364656L265.250459063983,44.489999771118164L265.7029890632391,35.934230584364656L266.27735406229493,44.489999771118164L266.5384290618658,44.489999771118164L267.1650090608358,53.04576895787167L267.2520340606928,57.32365355124841L268.0874740593195,35.934230584364656L268.15709405920506,40.212115177741424L268.50519405863287,40.212115177741424L269.35803905723094,48.767884364494904L269.81056905648705,44.489999771118164L269.86278405640127,53.04576895787167L270.5937940551996,40.212115177741424L270.87227405474187,53.04576895787167L271.4814490537405,44.489999771118164L271.74252405331134,53.04576895787167L271.88176405308246,53.04576895787167L271.9861940529108,53.04576895787167L272.56055905196666,40.212115177741424L272.8564440514803,53.04576895787167L272.90865905139447,27.378461397611176L272.9608740513086,31.656345990987916L273.1871390509367,31.656345990987916L273.6570740501642,27.378461397611176L273.9703640496492,53.04576895787167L274.09219904944894,44.489999771118164L274.2140340492487,31.656345990987916L274.59694404861926,40.212115177741424L274.96244904801847,48.767884364494904L275.1887140476465,35.934230584364656L275.7978890466452,40.212115177741424L276.19820404598715,53.04576895787167L276.2504190459013,53.04576895787167L276.47668404552934,31.656345990987916L276.5463040454149,44.489999771118164L276.65073404524327,40.212115177741424L277.39914904401303,53.04576895787167L277.41655404398443,44.489999771118164L277.74724904344083,35.934230584364656L277.799464043355,35.934230584364656L277.9387040431261,40.212115177741424L277.9561090430975,44.489999771118164L277.9735140430689,48.767884364494904L278.07794404289723,44.489999771118164L278.42604404232503,44.489999771118164L278.46085404226784,44.489999771118164L278.77414404175283,44.489999771118164" fill="none"></path></g><g><path style="fill: none;" stroke="rgb(187, 187, 187)" stroke-width="2px" d="M40.31346093373298,121.79482450146001L45.81692192468643,96.85225678703847L51.320382915639875,88.60573359681985L56.823843906593325,84.8757701960213L62.32730489754677,79.97860214609375L67.83076588850022,73.93960523493506L73.33422687945367,77.9486859837756L78.83768787040711,76.80685712254449L84.34114886136054,75.41129486058661L89.844609852314,75.84265061718115L95.34807084326745,74.24409837087492L100.85153183422089,74.44708835522327L106.35499282517434,74.32021757515122L111.85845381612778,73.22914028971586L117.36191480708123,70.79324415870101L122.86537579803466,72.39179640500724L128.36883678898812,71.52908489181812L133.87229777994156,71.85894565623852L139.375758770895,71.47833331602236L144.87921976184845,70.86936336297731L150.3826807528019,71.57983646761386L155.88614174375536,71.35147069536764L161.3896027347088,71.07235334732567L166.89306372566224,71.83356986834063L172.39652471661566,72.16343063276103L177.89998570756913,71.30071911957188L183.40344669852257,69.80366186543982L188.90690768947601,71.14847255160197L194.41036868042946,70.81861178718157L199.91382967138293,69.70215871384833L205.41729066233634,70.9454825672536L210.92075165328978,70.5648783864548L216.42421264424323,69.80366186543982L221.9276736351967,69.87978106971613L227.43113462615014,70.43800760638274L232.93459561710358,69.01706955652698L238.43805660805702,70.64099759073109L243.94151759901047,70.20964183413652L249.4449785899639,68.05285489174634L254.94843958091735,67.79912149101956L260.4519005718708,69.57529609319361L265.95536156282424,70.28576103841282L271.4588225537777,69.87978106971613L276.9622835447312,68.07823067964421L282.46574453568456,69.16930796507958" fill="none"></path></g></g></g></g></g></g><g transform="translate(51, 177)" clip-path="url(#clip_1)"><clipPath id="clip_1"><rect width="278" height="22"></rect></clipPath><g><g><line x1="0" y1="0" x2="0" y2="5" style="visibility: inherit;" fill="rgb(0, 0, 0)" stroke="rgb(204, 204, 204)" stroke-width="1px"></line><line x1="34.80999994277954" y1="0" x2="34.80999994277954" y2="5" style="visibility: inherit;" fill="rgb(0, 0, 0)" stroke="rgb(204, 204, 204)" stroke-width="1px"></line><line x1="69.61999988555908" y1="0" x2="69.61999988555908" y2="5" style="visibility: inherit;" fill="rgb(0, 0, 0)" stroke="rgb(204, 204, 204)" stroke-width="1px"></line><line x1="104.42999982833862" y1="0" x2="104.42999982833862" y2="5" style="visibility: inherit;" fill="rgb(0, 0, 0)" stroke="rgb(204, 204, 204)" stroke-width="1px"></line><line x1="139.23999977111816" y1="0" x2="139.23999977111816" y2="5" style="visibility: inherit;" fill="rgb(0, 0, 0)" stroke="rgb(204, 204, 204)" stroke-width="1px"></line><line x1="174.0499997138977" y1="0" x2="174.0499997138977" y2="5" style="visibility: inherit;" fill="rgb(0, 0, 0)" stroke="rgb(204, 204, 204)" stroke-width="1px"></line><line x1="208.85999965667725" y1="0" x2="208.85999965667725" y2="5" style="visibility: inherit;" fill="rgb(0, 0, 0)" stroke="rgb(204, 204, 204)" stroke-width="1px"></line><line x1="243.6699995994568" y1="0" x2="243.6699995994568" y2="5" style="visibility: inherit;" fill="rgb(0, 0, 0)" stroke="rgb(204, 204, 204)" stroke-width="1px"></line><line x1="278.4799995422363" y1="0" x2="278.4799995422363" y2="5" style="visibility: inherit;" fill="rgb(0, 0, 0)" stroke="rgb(204, 204, 204)" stroke-width="1px"></line></g><g transform="translate(0, 8)"><text style="text-anchor: middle; visibility: hidden; font-family: &quot;Helvetica Neue&quot;, sans-serif; font-size: 12px; font-weight: 200;" x="0" y="0" dx="0em" dy="0.95em" fill="rgb(50, 49, 63)" stroke="none" stroke-width="1px">-20k</text><text style="text-anchor: middle; visibility: hidden; font-family: &quot;Helvetica Neue&quot;, sans-serif; font-size: 12px; font-weight: 200;" x="34.80999994277954" y="0" dx="0em" dy="0.95em" fill="rgb(50, 49, 63)" stroke="none" stroke-width="1px">0</text><text style="text-anchor: middle; visibility: hidden; font-family: &quot;Helvetica Neue&quot;, sans-serif; font-size: 12px; font-weight: 200;" x="69.61999988555908" y="0" dx="0em" dy="0.95em" fill="rgb(50, 49, 63)" stroke="none" stroke-width="1px">20k</text><text style="text-anchor: middle; visibility: hidden; font-family: &quot;Helvetica Neue&quot;, sans-serif; font-size: 12px; font-weight: 200;" x="104.42999982833862" y="0" dx="0em" dy="0.95em" fill="rgb(50, 49, 63)" stroke="none" stroke-width="1px">40k</text><text style="text-anchor: middle; visibility: hidden; font-family: &quot;Helvetica Neue&quot;, sans-serif; font-size: 12px; font-weight: 200;" x="139.23999977111816" y="0" dx="0em" dy="0.95em" fill="rgb(50, 49, 63)" stroke="none" stroke-width="1px">60k</text><text style="text-anchor: middle; visibility: hidden; font-family: &quot;Helvetica Neue&quot;, sans-serif; font-size: 12px; font-weight: 200;" x="174.0499997138977" y="0" dx="0em" dy="0.95em" fill="rgb(50, 49, 63)" stroke="none" stroke-width="1px">80k</text><text style="text-anchor: middle; visibility: hidden; font-family: &quot;Helvetica Neue&quot;, sans-serif; font-size: 12px; font-weight: 200;" x="208.85999965667725" y="0" dx="0em" dy="0.95em" fill="rgb(50, 49, 63)" stroke="none" stroke-width="1px">100k</text><text style="text-anchor: middle; visibility: hidden; font-family: &quot;Helvetica Neue&quot;, sans-serif; font-size: 12px; font-weight: 200;" x="243.6699995994568" y="0" dx="0em" dy="0.95em" fill="rgb(50, 49, 63)" stroke="none" stroke-width="1px">120k</text><text style="text-anchor: middle; visibility: hidden; font-family: &quot;Helvetica Neue&quot;, sans-serif; font-size: 12px; font-weight: 200;" x="278.4799995422363" y="0" dx="0em" dy="0.95em" fill="rgb(50, 49, 63)" stroke="none" stroke-width="1px">140k</text></g><line x1="0" y1="0" x2="278.4799995422363" y2="0" fill="rgb(0, 0, 0)" stroke="rgb(204, 204, 204)" stroke-width="1px"></line></g></g></g></g></svg>