<svg viewBox="0 0 330 200" xmlns="http://www.w3.org/2000/svg"><g><g><g><g><g><line x1="51.28000259399414" y1="177.95999908447266" x2="46.28000259399414" y2="177.95999908447266" style="visibility: inherit;" fill="rgb(0, 0, 0)" stroke="rgb(204, 204, 204)" stroke-width="1px"></line><line x1="51.28000259399414" y1="152.53714207240515" x2="46.28000259399414" y2="152.53714207240515" style="visibility: inherit;" fill="rgb(0, 0, 0)" stroke="rgb(204, 204, 204)" stroke-width="1px"></line><line x1="51.28000259399414" y1="127.11428506033761" x2="46.28000259399414" y2="127.11428506033761" style="visibility: inherit;" fill="rgb(0, 0, 0)" stroke="rgb(204, 204, 204)" stroke-width="1px"></line><line x1="51.28000259399414" y1="101.6914280482701" x2="46.28000259399414" y2="101.6914280482701" style="visibility: inherit;" fill="rgb(0, 0, 0)" stroke="rgb(204, 204, 204)" stroke-width="1px"></line><line x1="51.28000259399414" y1="76.26857103620257" x2="46.28000259399414" y2="76.26857103620257" style="visibility: inherit;" fill="rgb(0, 0, 0)" stroke="rgb(204, 204, 204)" stroke-width="1px"></line><line x1="51.28000259399414" y1="50.84571402413505" x2="46.28000259399414" y2="50.84571402413505" style="visibility: inherit;" fill="rgb(0, 0, 0)" stroke="rgb(204, 204, 204)" stroke-width="1px"></line><line x1="51.28000259399414" y1="25.42285701206754" x2="46.28000259399414" y2="25.42285701206754" style="visibility: inherit;" fill="rgb(0, 0, 0)" stroke="rgb(204, 204, 204)" stroke-width="1px"></line><line x1="51.28000259399414" y1="0" x2="46.28000259399414" y2="0" style="visibility: inherit;" fill="rgb(0, 0, 0)" stroke="rgb(204, 204, 204)" stroke-width="1px"></line></g><g transform="translate(41.28000259399414, 0)"><text style="text-anchor: end; visibility: hidden; font-family: &quot;Helvetica Neue&quot;, sans-serif; font-size: 12px; font-weight: 200;" x="0" y="177.95999908447266" dx="0em" dy="0.3em" fill="rgb(50, 49, 63)" stroke="none" stroke-width="1px">-0.5</text><text style="text-anchor: end; visibility: inherit; font-family: &quot;Helvetica Neue&quot;, sans-serif; font-size: 12px; font-weight: 200;" x="0" y="152.53714207240515" dx="0em" dy="0.3em" fill="rgb(50, 49, 63)" stroke="none" stroke-width="1px">0</text><text style="text-anchor: end; visibility: hidden; font-family: &quot;Helvetica Neue&quot;, sans-serif; font-size: 12px; font-weight: 200;" x="0" y="127.11428506033761" dx="0em" dy="0.3em" fill="rgb(50, 49, 63)" stroke="none" stroke-width="1px">0.5</text><text style="text-anchor: end; visibility: inherit; font-family: &quot;Helvetica Neue&quot;, sans-serif; font-size: 12px; font-weight: 200;" x="0" y="101.6914280482701" dx="0em" dy="0.3em" fill="rgb(50, 49, 63)" stroke="none" stroke-width="1px">1</text><text style="text-anchor: end; visibility: hidden; font-family: &quot;Helvetica Neue&quot;, sans-serif; font-size: 12px; font-weight: 200;" x="0" y="76.26857103620257" dx="0em" dy="0.3em" fill="rgb(50, 49, 63)" stroke="none" stroke-width="1px">1.5</text><text style="text-anchor: end; visibility: inherit; font-family: &quot;Helvetica Neue&quot;, sans-serif; font-size: 12px; font-weight: 200;" x="0" y="50.84571402413505" dx="0em" dy="0.3em" fill="rgb(50, 49, 63)" stroke="none" stroke-width="1px">2</text><text style="text-anchor: end; visibility: hidden; font-family: &quot;Helvetica Neue&quot;, sans-serif; font-size: 12px; font-weight: 200;" x="0" y="25.42285701206754" dx="0em" dy="0.3em" fill="rgb(50, 49, 63)" stroke="none" stroke-width="1px">2.5</text><text style="text-anchor: end; visibility: hidden; font-family: &quot;Helvetica Neue&quot;, sans-serif; font-size: 12px; font-weight: 200;" x="0" y="0" dx="0em" dy="0.3em" fill="rgb(50, 49, 63)" stroke="none" stroke-width="1px">3</text></g><line x1="51.28000259399414" y1="0" x2="51.28000259399414" y2="177.95999908447266" fill="rgb(0, 0, 0)" stroke="rgb(204, 204, 204)" stroke-width="1px"></line></g></g><g transform="translate(51, 0)" clip-path="url(#clip_0)"><clipPath id="clip_0"><rect width="278" height="177"></rect></clipPath><g><g><g><line x1="0" y1="0" x2="0" y2="177.95999908447266" fill="rgb(0, 0, 0)" stroke="rgb(60, 60, 60)" stroke-width="1px" opacity="0.25"></line><line x1="27.871999740600586" y1="0" x2="27.871999740600586" y2="177.95999908447266" fill="rgb(0, 0, 0)" stroke="rgb(60, 60, 60)" stroke-width="1px" opacity="0.25"></line><line x1="55.74399948120117" y1="0" x2="55.74399948120117" y2="177.95999908447266" fill="rgb(0, 0, 0)" stroke="rgb(60, 60, 60)" stroke-width="1px" opacity="0.25"></line><line x1="83.61599922180176" y1="0" x2="83.61599922180176" y2="177.95999908447266" fill="rgb(0, 0, 0)" stroke="rgb(60, 60, 60)" stroke-width="1px" opacity="0.25"></line><line x1="111.48799896240234" y1="0" x2="111.48799896240234" y2="177.95999908447266" fill="rgb(0, 0, 0)" stroke="rgb(60, 60, 60)" stroke-width="1px" opacity="0.25"></line><line x1="139.35999870300293" y1="0" x2="139.35999870300293" y2="177.95999908447266" fill="rgb(0, 0, 0)" stroke="rgb(60, 60, 60)" stroke-width="1px" opacity="0.25"></line><line x1="167.23199844360352" y1="0" x2="167.23199844360352" y2="177.95999908447266" fill="rgb(0, 0, 0)" stroke="rgb(60, 60, 60)" stroke-width="1px" opacity="0.25"></line><line x1="195.1039981842041" y1="0" x2="195.1039981842041" y2="177.95999908447266" fill="rgb(0, 0, 0)" stroke="rgb(60, 60, 60)" stroke-width="1px" opacity="0.25"></line><line x1="222.9759979248047" y1="0" x2="222.9759979248047" y2="177.95999908447266" fill="rgb(0, 0, 0)" stroke="rgb(60, 60, 60)" stroke-width="1px" opacity="0.25"></line><line x1="250.84799766540527" y1="0" x2="250.84799766540527" y2="177.95999908447266" fill="rgb(0, 0, 0)" stroke="rgb(60, 60, 60)" stroke-width="1px" opacity="0.25"></line><line x1="278.71999740600586" y1="0" x2="278.71999740600586" y2="177.95999908447266" fill="rgb(0, 0, 0)" stroke="rgb(60, 60, 60)" stroke-width="1px" opacity="0.25"></line></g><g><line x1="0" y1="177.95999908447266" x2="278.71999740600586" y2="177.95999908447266" fill="rgb(0, 0, 0)" stroke="rgb(60, 60, 60)" stroke-width="1px" opacity="0.25"></line><line x1="0" y1="152.53714207240515" x2="278.71999740600586" y2="152.53714207240515" fill="rgb(0, 0, 0)" stroke="rgb(60, 60, 60)" stroke-width="1px" opacity="0.25"></line><line x1="0" y1="127.11428506033761" x2="278.71999740600586" y2="127.11428506033761" fill="rgb(0, 0, 0)" stroke="rgb(60, 60, 60)" stroke-width="1px" opacity="0.25"></line><line x1="0" y1="101.6914280482701" x2="278.71999740600586" y2="101.6914280482701" fill="rgb(0, 0, 0)" stroke="rgb(60, 60, 60)" stroke-width="1px" opacity="0.25"></line><line x1="0" y1="76.26857103620257" x2="278.71999740600586" y2="76.26857103620257" fill="rgb(0, 0, 0)" stroke="rgb(60, 60, 60)" stroke-width="1px" opacity="0.25"></line><line x1="0" y1="50.84571402413505" x2="278.71999740600586" y2="50.84571402413505" fill="rgb(0, 0, 0)" stroke="rgb(60, 60, 60)" stroke-width="1px" opacity="0.25"></line><line x1="0" y1="25.42285701206754" x2="278.71999740600586" y2="25.42285701206754" fill="rgb(0, 0, 0)" stroke="rgb(60, 60, 60)" stroke-width="1px" opacity="0.25"></line><line x1="0" y1="0" x2="278.71999740600586" y2="0" fill="rgb(0, 0, 0)" stroke="rgb(60, 60, 60)" stroke-width="1px" opacity="0.25"></line></g></g></g><g><g><line x1="0" y1="152.53714207240515" x2="278.71999740600586" y2="152.53714207240515" fill="rgb(0, 0, 0)" stroke="rgb(153, 153, 153)" stroke-width="1.5px"></line></g></g><g><g><line x1="27.871999740600586" y1="0" x2="27.871999740600586" y2="177.95999908447266" fill="rgb(0, 0, 0)" stroke="rgb(153, 153, 153)" stroke-width="1.5px"></line></g></g><g><g><g><g><g><path style="fill: none;" stroke="rgb(51, 187, 238)" stroke-width="2px" d="M28.13539013814926,25.51450358752379L28.469854135036467,39.506450534300825L28.51166213464737,52.67466327135038L28.664958133220676,52.289026361942106L28.87399813127518,45.87095364541372L29.194526128292086,58.919334848285345L30.044622120380403,64.56416989080883L30.086430119991302,57.4015233002314L30.211854118824007,82.83526637377508L31.075886110782623,57.70750891016412L31.145566110134123,70.69064647955618L31.438222107410432,68.34257878293933L31.507902106761936,64.24653449793784L31.605454105854033,70.42647158903466L31.68907010507584,69.40033906927836L32.17683010053635,73.1420287184119L32.20470210027695,75.89772365352135L32.31619009923935,68.9696304710412L32.72033409547806,78.36648358628138L32.999054092884066,94.01738508085276L33.751598085880275,93.77410948875539L33.76553408575058,88.2332981583999L34.04425408315659,97.67044061140847L34.29510208082199,67.32172563932207L34.49020607900619,76.70231633644393L35.35423807096482,96.94563257615326L35.73051006746292,80.67292240193039L35.95348606538773,106.87034147799866L36.051038064479826,91.56780304258635L36.06497406435013,95.64022651379466L36.524862060070035,86.27323733223655L36.71996605825424,84.65305074056778L36.831454057216646,93.75624689233544L36.90113405656815,86.58235056339514L36.929006056308744,87.78529672419869L37.09623805475235,78.75543601664036L37.23559805345535,88.06734633370304L37.834846047878266,101.8435753044748L37.94633404684066,91.82229200535792L38.05782204580307,86.29346988970168L38.42015804243088,94.12008137238419L38.54558204126358,96.95592463204775L38.60132604074478,104.28796888582383L38.62919804048538,83.7892817668926L38.824302038669586,97.74595205565674L38.85217403841018,94.13184631966993L38.94972603750229,86.38444972419893L39.06121403646469,103.21947710068551L39.14483003568649,106.50338240736477L39.5350380320549,83.99643212157467L40.552366022586824,87.57393377891198L41.012254018306734,97.60150565752858L41.05406201791764,77.16939868463565L41.290974015712735,100.92271209022354L41.41639801454544,90.59150031759367L41.43033401441574,107.60943292298023L41.51395001363754,101.71006648871506L41.59756601285934,86.54407963234813L41.84841401052475,102.22929101054186L41.89022201013565,89.63096298564076L42.01564600896835,113.12353824728676L42.69851000261307,100.69894776309931L42.74031800222397,112.91760621017524L42.82393400144577,75.73596017430334L42.90755000066757,81.15434574202222L43.11658999872208,110.05658438738698L43.200205997943876,108.05870116500358L43.269885997295376,121.56329380779438L43.994557990551,100.85312251794754L44.0642379899025,104.89109669606023L44.0781739897728,106.46019577706544L44.329021987438196,89.9512653423478L44.510189985752106,97.68433912976303L44.69135798406601,92.39661660616522L45.22092597913742,83.95886429917535L45.457837976932524,109.96028880906202L45.73655797433853,114.21147159266158L46.22431796979904,106.75561354279787L46.26612596940994,108.67989159394762L46.46122996759415,109.85847443398092L46.516973967075344,93.70853854607776L47.18590196084976,102.09553671288359L47.28345395994186,111.002450387601L47.59004595708847,105.8933901958913L47.757277955532075,96.70244790327757L47.896637954235075,100.46691584808337L48.31471795034408,90.2671187184738L48.46801394891739,109.45940269424864L48.57950194787979,100.36426804680352L48.66311794710159,109.03499176743338L49.1090699429512,99.8372517476785L49.51321393918991,107.25527224811854L49.736189937114716,104.56811828359501L49.959165935039515,109.41362183549063L50.014909934520716,105.10372341852832L50.25182193231583,103.12889731076368L50.73958192777634,104.36307725485598L50.85106992673874,108.04856064114523L51.32489392232895,100.73383649909971L51.450317921161655,100.29216304272762L51.533933920383454,114.86495349850662L51.603613919734954,103.39533305926437L51.70116591882706,117.69519613411454L51.82658991765976,107.41229883588689L52.02169391584397,93.35940873481584L52.049565915584566,116.34895218801674L52.09137391519547,115.07708925717765L52.21679791402817,104.62008468006817L52.704557909488685,109.89041132591734L53.03902190637588,102.3339450959802L53.331677903652185,101.29500205788878L53.582525901317595,118.63630402839382L53.707949900150304,120.22504469192323L53.8891178984642,112.95023408819647L53.9309258980751,111.42145768200758L54.04241389703751,122.338677175431L54.59985389184952,106.23853471460279L54.836765889644624,129.30631567338207L54.976125888347624,111.27515047047564L55.01793388795852,107.37994068488999L55.29665388536453,110.54071712028495L55.51962988328934,104.03115845225862L55.77047788095474,118.92748495839584L55.93770987939835,105.91669279240861L56.17462187719345,114.17469173685016L56.25823787641525,117.6248307178135L56.77386987161636,117.34762104154339L56.815677871227265,106.14059955964682L56.829613871097564,105.5178028911197L56.94110187005997,113.1626122981253L56.99684586954117,110.38376326789395L57.09439786863327,104.43891903894304L57.83300586175919,115.36795196990377L57.93055786085129,109.32612723782455L58.055981859683996,104.84194273417779L58.36257385683059,111.30037752385189L58.4183178563118,113.3796334496414L58.5298058552742,114.92298117642531L58.6412938542366,107.87670512832041L58.6970378537178,112.72956404525017L58.97575785112381,114.6945466319473L59.04543785047531,118.90409447329759L59.05937385034561,118.82386735208469L59.129053849697115,116.69942154247812L59.29628584814071,107.6186278869331L59.338093847751615,116.46164050201111L59.40777384710312,105.29896335516995L59.672557844638824,114.5981267973527L59.89553384256363,103.00154372631187L60.03489384126663,110.10119844946672L60.202125839710234,114.60072405645211L60.56446183633804,112.67905841760538L60.68988583517074,99.6393509084823L61.177645830631256,103.97270951527948L61.191581830501555,92.68900070053418L61.21945383024216,110.77598575959279L61.83263782453537,102.94151885615689L61.94412582349777,103.50557564619547L62.06954982233047,88.11952184438607L62.09742182207108,101.94334399706804L62.16710182142258,125.23325728294236L62.515501818180084,103.08274065255604L62.52943781805038,111.48655584473246L62.66879781675338,97.45026456289997L62.69666981649399,113.34780263013025L62.766349815845494,119.57420853542914L62.961453814029696,127.38533950529978L63.045069813251494,111.45774960466264L63.1704938120842,109.26605387741802L63.3795338101387,128.61769803431773L63.46314980936051,132.43471122797473L64.11814180326462,124.70625310638025L64.20175780248641,110.5788880401881L64.43866980028153,116.571240593109L64.52228579950332,113.6525032483965L65.30270179224014,120.10102481226646L65.37238179159165,121.5958398585161L65.55354978990555,110.30668801303273L66.06918178510666,131.82742234802598L66.26428578329087,94.24456797071227L66.75204577875138,104.09103482101818L67.90873376798629,127.1598113452749L68.15958176565171,133.1924562666049L68.2431977648735,113.69916905424556L68.57766176176071,124.92139829128895L69.23265375566483,125.03225306764605L69.34414175462723,112.63024691812461L69.84583774995804,124.00583566766181L70.06881374788284,114.65458460337699L70.11062174749375,105.08436671623207L70.22210974645614,96.85123417892075L70.26391774606705,131.30065304611986L70.65412574243547,121.84235217490537L71.07220573854447,107.52783292151993L71.85262173128127,112.46179178419074L71.93623773050308,83.12826265757005L72.15921372842789,122.23576570840825L72.41006172609329,128.22388748688016L72.42399772596359,126.0339161942068L72.89782172155381,90.72310286033877L73.0371817202568,128.34059594579327L73.0789897198677,121.41149810591352L73.092925719738,118.36409490931626L73.1207977194786,125.06313226597025L73.1347337193489,121.73666161033985L73.48313371610642,107.36906977661744L73.94302171182632,109.71699503312033L74.50046170663833,113.42405658135561L74.93247770261765,131.84189820343823L75.30874969911576,117.03912303045152L75.37842969846726,118.79961919566189L75.68502169561386,112.67592776573878L75.94980569314956,115.14516047845154L76.15884569120408,102.56995927290583L76.38182168912887,114.30944917658768L76.78596568536759,127.35929114828767L76.82777368497848,129.07960404815498L77.17617368173599,103.04421514768832L77.7754216761589,130.13399123136958L78.05414167356491,112.80281766216L78.30498967123032,100.39556244290674L78.33286167097091,122.14668002436272L78.36073367071151,131.2567466386489L78.44434966993332,130.86036610787843L78.83455766630173,111.39111793773203L79.02966166448593,128.2016819823045L79.81007765722275,124.3834444097955L79.86582165670394,121.49332540542804L80.01911765527726,115.07732564715401L80.45113365125655,120.12656099099644L80.56262165021896,116.48887080890512L80.74378964853287,115.41498145263955L80.81346964788438,128.56102808344284L81.03644564580917,128.15268561373966L81.10612564516067,121.65208248904906L81.13399764490127,122.28225270645466L81.27335764360427,126.42568712043794L81.3291016430855,112.94318481787533L81.73324563932418,114.12805623740834L81.90047763776779,113.61013792173304L82.6251496310234,122.21540586403275L82.77844562959672,129.60220773438766L83.01535762739182,121.5537351669548L83.40556562376022,117.60876529134215L83.76790162038803,112.11386210665503L83.93513361883163,121.56259372978742L84.08842961740494,134.88457814646907L84.13023761701584,119.62794179544368L84.92458960962296,124.8528815658288L84.99426960897446,131.93036866741704L85.14756560754776,119.38000810855543L86.16489359807969,124.49793595501991L86.31818959665299,124.06055994719269L86.33212559652328,107.99115121393399L86.35999759626388,122.45848143384241L86.42967759561539,137.56941973212113L86.44361359548569,114.55902547074766L86.7920135922432,116.8884789720453L86.8616935915947,118.4873237917444L86.9035015912056,123.63524892008276L87.014989590168,112.3611593589915L87.293709587574,132.72054307710107L87.3355175871849,118.899848545645L87.3494535870552,113.22356151370072L87.55849358510972,130.32923571397225L87.86508558225631,115.56996235792005L88.04625358057021,121.15287534919611L88.07412558031083,131.54280730114982L88.25529357862473,119.64107356169539L88.77092557382583,126.99077129768153L89.10538957071304,120.58662437527424L89.20294156980515,135.9442886501132L89.28655756902694,119.3222016674095L89.62102156591416,112.61656660590208L89.66282956552506,126.27849799245567L90.48505355787277,126.85134364059026L90.72196555566786,132.94577878029622L91.01462155294418,123.50422826035641L91.05642955255509,126.86052042069878L91.6835495467186,134.00010080473527L91.7253575463295,120.59574660384975L91.9483335442543,118.3874702412109L92.38034954023361,131.594035736607L92.77055753660203,129.92272526658599L92.88204553556443,123.75144368539337L92.93778953504562,127.36460689211539L93.04927753400803,125.72853974305937L93.20257353258133,114.1630328619897L93.56490952920915,115.3671700645973L93.63458952856064,123.03848848600488L93.85756552648544,114.28717093663467L94.08054152441024,109.03243996794481L94.19202952337265,123.93907065253941L94.31745352220535,129.2084426465609L94.44287752103806,129.0345353899668L94.59617351961136,133.54135120321078L94.61010951948165,100.26798459104144L94.77734151792527,126.81077245323468L94.80521351766586,123.19012962520888L95.33478151273727,126.39749003915338L95.50201351118088,119.34893494922497L95.76679750871658,113.0068161504904L96.0873255057335,120.49222597804172L96.3660455031395,112.45789438022126L97.0349734969139,122.99659593929417L97.16039749574661,125.22872950570257L97.20220549535752,119.12834673357818L97.94081348848343,131.6613689968649L97.98262148809432,117.3724813873922L98.26134148550034,128.16957992044865L98.28921348524094,123.36808278716788L98.30314948511123,120.80521539868472L98.65154948186874,126.78370277029899L99.04175747823716,109.13266931792792L99.32047747564316,129.64121208048957L99.43196547460555,122.47107071540475L99.86398147058486,122.47051307751177L100.10089346837997,131.83820233707684L100.35174146604538,129.55148390061083L100.46322946500779,121.29818851057098L100.8952454609871,130.1472745296574L101.59204545450211,135.2328518017268L101.99618945074081,133.66234498810587L102.14948544931413,137.87768892983843L102.37246144723892,122.96046767123815L102.56756544542313,133.50286661199283L102.86022144269944,131.06962124254244L103.41766143751144,128.47999178115697L103.72425343465805,102.62174989221707L103.79393343400955,112.2005444926074L104.30956542921066,123.88590715298076L104.46286142778396,129.51532532614758L104.74158142518996,125.3870198706523L104.76945342493056,121.39191410556305L105.21540542078019,122.82809837639019L105.5498694176674,110.01704664851786L105.71710141611099,128.6837296343852L105.74497341585159,127.24451017687423L105.8285894150734,126.3426718097601L106.34422141027451,132.54281569787594L106.7344294066429,136.71315159423477L106.76230140638351,130.2931801812936L106.81804540586472,123.29313807273476L107.02708540391922,128.0291506365985L107.59846139860154,101.50639530958273L107.64026939821244,107.69623956520223L108.37887739133835,131.22964210334487L108.42068539094925,129.94454891043057L108.56004538965225,127.42994902141845L108.81089338731765,113.86467840539692L108.82482938718796,111.71154152006797L109.06174138498307,138.53316499727907L109.10354938459396,125.87597132229945L109.57737338018418,124.91138505434095L109.60524537992478,132.2521014865452L109.70279737901687,124.78564074011294L110.20449337434769,142.24440655673124L110.49714937162399,124.42378526845616L110.83161336851121,125.47698747114815L110.9012933678627,132.19752116244865L110.98490936708451,129.4507878319564L111.3611813635826,133.35007382931417L111.63990136098862,123.87787898570618L111.70958136034012,123.15087373592698L111.91862135839462,129.619426319654L111.98830135774612,112.52185908331583L112.58754935216903,137.8350796365968L112.93594934892656,130.701318082748L112.96382134866715,115.75702865653238L113.18679734659194,128.8164823052846L113.21466934633254,121.03535922453037L113.29828534555435,133.90616912617406L113.32615734529494,143.39670313445566L113.57700534296036,123.52828548641368L113.89753333997726,134.46057938679212L114.02295733880996,122.25516787031535L114.28774133634568,127.45917652054874L114.44103733491897,134.88691780110705L114.46890933465957,129.11790983157027L114.55252533388138,139.05653846625535L114.73369333219527,127.30971138138369L114.98454132986069,123.19685158633196L115.5280453248024,110.8523669977285L115.8485733218193,130.40744745910453L115.90431732130051,133.05217245350943L115.91825332117081,116.90086217003851L116.25271731805802,138.42073125710542L116.40601331663132,129.61046623035716L116.55930931520462,129.48567050667538L116.65686131429672,129.17248712502612L116.74047731351853,131.69130566592432L117.07494131040573,127.5356426166247L117.89716530275345,127.35505431255726L118.39886129808426,119.38455710028029L118.41279729795455,127.83099067762052L118.46854129743576,123.07862326109638L118.74726129484176,135.02691673397456L118.76119729471206,120.58184202421373L118.77513329458236,124.70170108401466L118.88662129354478,131.52514018105649L119.49980528783797,134.22340750511037L119.59735728693009,139.91311800247593L119.63916528654099,140.37444970989623L119.90394928407669,117.30203717443237L120.6564932770729,106.78077998335968L120.7819172759056,126.09186204482597L120.80978927564621,142.07581580162503L120.86553327512742,119.61949843039007L120.94914927434922,123.98977630247191L120.99095727396012,116.18378226862635L121.08850927305222,131.3628190639455L121.19999727201461,126.6785759049079L121.24180527162552,133.63295989565802L121.40903727006912,118.35697896489923L121.78530926656722,131.2905716197556L121.84105326604843,125.61730007533048L121.99434926462173,135.6293490121651L122.14764526319503,136.00976109696734L123.09529325437546,134.37877330176264L123.29039725255966,132.76397064333787L123.40188525152206,135.86380847039993L123.59698924970627,135.05427281245855L123.61092524957657,130.7470246908083L123.97326124620437,141.96266001129914L124.16836524438857,116.68340763689906L124.51676524114609,131.74303415710074L124.9209092373848,134.66743728464442L124.9627172369957,130.7888581400249L125.3250532336235,134.01142176315514L125.5759012312889,135.30779197019885L125.63164523077012,135.31870530744152L125.98004522752761,136.37653226787643L126.70471722078324,127.18066063812714L126.91375721883774,137.5162592632032L127.02524521780015,138.77055508509284L127.03918121767045,129.71702810413046L127.34577321481704,146.08848943332393L127.59662121248246,131.66603315293722L128.15406120729446,132.95005804499675L128.44671720457077,136.9047699152127L128.75330920171737,126.02382719124074L128.87873320055007,130.71620307465784L129.617341193676,141.0887042964946L129.7706371922493,121.9841013027903L130.0214851899147,128.12551895030083L130.1608451886177,120.59821051475734L130.174781188488,131.52626303344425L130.4395651860237,143.94030613025632L130.76009318304062,120.81931090868628L131.0248771805763,135.0107103827096L131.44295717668533,133.50304845043618L131.56838117551803,127.59136700759407L131.61018917512894,121.73738290283187L131.70774117422104,118.8096718309393L131.84710117292403,131.73581062493804L131.88890917253494,117.5952274192336L131.95858917188644,115.70518954696958L132.09794917058946,132.43897837011238L132.43241316747665,132.86960817169074L132.55783716630935,126.69289265168221L132.82262116384507,118.16485149627988L133.05953316164016,124.85688201158285L133.9235651535988,139.61056989678303L134.41132514905928,128.0770741583475L134.6482371468544,131.59667087871543L134.7875971455574,132.623898975093L134.85727714490892,123.99417376216064L135.01057314348222,128.4993575753754L135.094189142704,135.15279894235547L135.19174114179611,137.7111052165509L135.44258913946152,124.50153938683928L135.51226913881302,120.3940180654207L135.58194913816453,129.66623759625776L135.8327971358299,141.9363972364559L135.98609313440323,128.81798398776274L136.02790113401414,120.10902267313382L136.30662113142014,143.5702603520463L136.41810913038253,117.46690099910978L136.55746912908555,135.39178920847087L137.04522912454604,127.64243027313185L137.11490912389755,118.3047095043538L137.9650051159859,120.10491312431375L137.97894111585617,128.28225156591907L138.42489311170579,114.95019633011569L139.0241411061287,122.55263131853566L139.13562910509108,125.08089182060563L139.2471171040535,133.79204731911784L139.26105310392379,134.94655474924951L139.73487709951402,137.50333661116136L139.8881730980873,120.8945617178324L140.05540509653093,137.76086379125752L140.29231709432602,125.6275830393028L141.12847708654405,137.28194830636377L141.46294108343125,139.44629098576513L141.88102107954023,137.82968358078995L141.93676507902143,129.75107583733032L142.13186907720566,124.38951478316318L142.36878107500075,139.62187721731965L142.45239707422255,131.8269465374325L143.03770906877517,138.8480258385684L143.26068506669998,111.7699207523105L143.4139810652733,135.19774789023506L143.53940506410598,138.11566544663208L143.6508930630684,124.82812123112386L143.9296130604744,131.77717280952226L143.95748506021502,120.53547625179623L143.9992930598259,137.69943724976827L144.0271650595665,123.38305112169759L144.1107810587883,129.9986322094486L144.3895010561943,128.5903040728247L144.4313090558052,117.51300916706583L144.5009890551567,143.4814913699563L144.6264130539894,143.23574353268936L145.60193304491045,137.94641476950846L145.88065304231645,119.71525455466639L145.89458904218674,136.86915685607957L145.92246104192733,137.67353436351084L146.11756504011154,132.65073529869304L146.17330903959277,135.91893279450622L146.29873303842544,130.83302972855915L146.31266903829575,132.33075115926192L146.38234903764723,138.2508259615857L146.45202903699877,137.41085206354526L146.66106903505323,135.45376278061056L147.09308503103256,136.69527081397052L147.26031702947614,106.91410999131676L147.35786902856827,119.97209529463882L147.42754902791978,129.56998747754363L147.622653026104,124.80510048419377L147.74807702493666,113.40543935539569L148.11041302156448,131.23431989730045L148.2079650206566,140.32569655024938L148.2219010205269,133.94902693195496L148.34732501935957,137.5526193752745L148.876893014431,130.87801352880706L148.98838101339342,131.6255847065309L149.0023170132637,133.02359199617342L149.0580610127449,129.11016351388292L149.5040130085945,139.38063670046762L150.15900500249865,134.97571254364317L150.21474900197984,118.46082993054603L150.53527699899672,135.71901051794794L150.78612499666215,128.12750401997425L150.82793299627303,135.8766326266183L151.12058899354935,139.88864103267858L151.27388499212265,135.25398749012732L151.60834898900987,138.71729460503104L151.70590098810194,132.91294784934655L151.94281298589706,141.24289117390572L151.97068498563766,115.9300024757839L152.01249298524854,122.8672633464504L152.30514898252486,140.5420926321164L152.33302098226545,137.38813589600784L152.402700981617,139.32905974132734L152.55599698019026,135.88215596933554L152.7232289786339,131.83990858780373L152.960140976429,116.95732906798497L153.2109889740944,138.1701169684979L153.29460497331618,108.5997008404234L153.4339649720192,131.1048660788278L153.6848129696846,135.63754537999978L153.69874896955488,134.76359193817578L154.07502096605302,132.61149910857583L154.1865089650154,132.6357881786484L154.32586896371842,130.96623244960585L154.47916496229172,134.33501388036672L154.77182095956803,135.05157857285602L155.02266895723344,129.50072824510642L155.46862095308305,123.64679566123647L155.56617295217515,135.6195160983401L156.29084494543076,132.1303621640323L156.31871694517136,137.04803739409974L156.45807694387435,140.8009828428776L156.55562894296648,130.2531196568998L156.93190093946458,137.81257864455068L157.22455693674087,137.02183598973113L157.36391693544385,130.3568690960824L157.5868929333687,137.04346870321018L157.61476493310929,137.05242273122556L157.7123169322014,137.30106255740222L158.158268928051,142.2189863000089L158.22794892740248,147.6389879568932L158.3812449259758,127.47822258217093L158.45092492532729,136.01407369871583L159.0501729197502,142.20221473424914L159.09198091936113,142.22026674571427L159.37070091676713,113.095419962661L159.45431691598893,124.6933304543384L159.46825291585924,129.391297869889L159.83058891248703,143.04396610307347L159.92814091157913,129.08700790344068L160.80610890340807,136.3845301287438L160.93153290224075,139.12725089091913L161.02908490133285,113.25261626630981L161.07089290094376,139.18618624573426L161.16844490003587,110.29339865346343L161.21025289964675,139.63352548493756L161.51684489679337,134.36702502300088L161.67014089536667,132.79567417593864L161.82343689393997,131.65509708588914L161.99066889238358,140.87150357951566L162.00460489225387,138.76524237190586L162.04641289186478,128.11603152951824L162.38087688875197,145.49118575689647L162.4644928879738,136.36033500853364L162.7850208849907,140.09765144310424L162.9243808836937,125.47480844046848L163.0358688826561,132.34156145472L163.88596487474442,141.88426794304388L164.01138887357712,141.06956201202945L164.1368128724098,135.40485126998595L164.6245728678703,113.83883007067249L165.01478086423876,136.48961153452404L165.05658886384964,140.47185829102662L165.61402885866167,131.20845640937245L165.94849285554886,120.49905704223082L166.85433284711837,123.5600738769547L167.43964484167097,138.64813992969877L167.9413408370018,131.07139568268565L168.01102083635328,126.87070034288652L168.0249568362236,131.57138169720434L168.0528288359642,129.358683629751L168.2479328341484,140.02749059505197L168.415164832592,144.60707739567067L168.73569282960892,132.4266997292241L168.8193088288307,140.24906149595313L169.02834882688524,124.29598314917737L169.11196482610703,140.06394011102464L169.25132482481004,136.88479041624794L169.58578882169724,135.8830954679596L169.82270081949235,142.78843308457292L170.12929281663895,135.722092679563L170.56130881261825,144.9075586043907L170.65886081171035,140.48871319940625L170.81215681028365,125.76563781614666L171.09087680768965,123.89659925345066L171.1884288067818,123.86202570408543L171.25810880613327,119.28999807908946L171.8434208006859,144.20189209594042L172.3451167960167,134.87748947781853L172.7353247923851,136.63709614997677L172.76319679212568,139.10217385425864L172.777132791996,140.77815757227415L172.8050047917366,119.88308234597065L172.8886207909584,122.93752269032615L173.01404478979111,136.35700281905895L173.0976607890129,134.8489893324617L173.1673407883644,138.27298752187087L173.57148478460311,139.58666420276188L173.76658878278732,138.4238664549331L173.91988478136062,137.50119546349072L174.05924478006364,133.0090570432671L174.11498877954483,123.4451974403585L174.12892477941512,129.87349553868546L174.51913277578353,134.87106148884556L174.64455677461623,145.76816586213184L174.96508477163314,133.24889891942556L174.97902077150346,143.81724014476706L175.14625276994707,142.73283673817406L175.57826876592637,120.23008767808591L175.70369276475907,130.98198268944205L175.94060476255416,135.21446035850073L176.01028476190567,126.75484197869615L176.13570876073837,133.19280327496764L176.24719675970078,138.26290154954552L176.35868475866317,139.38587364763654L176.5955967564583,130.81932820185153L177.01367675256728,132.87004155331408L177.1530367512703,111.44250851246787L177.6686687464714,136.8594921428147L177.7940927453041,143.71186173619597L177.8080287451744,128.3916728492143L177.8916447443962,133.55432083018383L178.114620742321,128.92266989492867L178.21217274141313,132.8097181650479L178.60238073778152,132.0477847809389L178.61631673765183,126.1754228708339L178.7417407364845,128.29584398956064L178.81142073583604,130.01318383087892L178.96471673440934,136.5351893403536L179.09014073324204,133.50515171509778L179.28524473142622,137.22583296274115L179.81481272649765,144.26904806371607L179.85662072610853,135.15297168887668L179.98204472494126,132.87616041693335L180.33044472169877,128.47923563629664L180.38618872117996,115.35061367432887L180.51161272001266,132.99723754444832L180.70671671819684,116.83618829701481L180.79033271741866,124.79960593256341L180.8182047171593,139.31210785244457L181.2920287127495,139.65771908982737L181.3756447119713,111.21864114355907L181.45926071119308,129.0220430889076L181.48713271093368,133.11006375259558L181.50106871080396,134.07542889521983L181.640428709507,120.30603856523898L181.71010870885848,142.00486092570338L181.9052127070427,132.99860133277355L182.0306367058754,134.06666579756995L182.2536127038002,138.12375271140075L182.6020127005577,126.28252874461694L182.86679669809342,129.8585135662725L182.99222069692613,136.2623983382573L183.2430686945915,140.1582407700938L183.61934069108963,133.59229627376038L183.93986868810654,142.43276163531092L183.96774068784714,139.56503755056428L183.98167668771742,129.3205111945275L184.69241268110275,144.11862978804368L184.80390068006514,137.79452966372628L184.84570867967605,135.0593870186782L184.97113267850878,133.85361630072106L185.50070067358018,139.38963315745312L185.93271666955948,128.40980668797894L186.21143666696548,136.47106249798037L186.4762206645012,141.94805535365617L186.90823666048053,133.01872933313376L187.01972465944291,138.61788655868384L187.0475966591835,135.52882265939115L187.52142065477372,127.14081225858394L187.56322865438463,127.42899740023151L187.75833265256884,123.5281278930961L187.95343665075302,131.07153509215888L188.03705264997484,105.93474328855336L188.42726064634323,130.3415234467827L188.46906864595414,141.99915498688262L188.48300464582442,126.22651341213817L188.5666206450462,142.26780537609147L188.59449264478684,138.40002440436717L188.83140464258193,141.37328903696354L188.94289264154435,128.78892923515366L189.06831664037705,144.81759479219573L189.27735663843154,136.56028001489733L189.50033263635635,123.60811862433262L190.04383663129806,135.63043246622348L190.21106862974165,137.85220881796184L190.23894062948224,124.6133427537426L190.3783006281853,139.97029028205063L190.53159662675856,139.57456285435592L190.6291486258507,129.52021981091482L190.72670062494277,125.14816295272873L190.75457262468336,121.93657479497597L190.99148462247848,142.12057457679927L191.2562686200142,141.44955662607214L191.757964615345,134.9792068723965L192.1342366118431,124.36043881606903L192.2178526110649,135.432463437611L192.34327660989763,138.89635243553352L192.76135660600661,135.11175345972677L193.08188460302355,134.96743131786823L193.09582060289384,140.29234207611486L193.3466686005592,133.1391094132825L193.73687659692766,131.0614066908634L193.80655659627914,141.27137616605893L193.98772459459306,131.054415002716L194.18282859277724,135.3520332634697L194.29431659173966,145.95834008280536L194.36399659109117,141.51075359652665L194.39186859083176,130.62552024295144L194.40580459070205,143.944078520296L194.68452458810805,110.40986314579835L194.75420458745955,146.66841086988597L194.94930858564376,132.57541478481028L195.08866858434678,143.24336483644691L195.15834858369828,140.38223239527227L195.25590058279036,138.77490405453L195.52068458032608,134.7084676140695L195.6879165787697,142.82082608793814L196.1756765742302,142.7692157917499L196.3011005730629,131.33954980447612L196.9700285668373,127.7985188775965L197.03970856618884,132.11589085458115L197.2487485642433,137.66953391775678L197.40204456281663,132.7092933387382L197.45778856229782,130.57444940081183L197.68076456022263,142.5781535933446L197.86193255853655,139.79508288058645L198.14065255594255,134.72870926345684L198.26607655477525,127.77351457631337L198.37756455373764,129.06844522901378L198.87926054906845,135.30077603692564L199.15798054647445,144.9194697800913L199.19978854608536,136.44884487084184L199.42276454401016,135.9271700759907L199.64574054193497,128.5196628682179L200.63519653272627,137.89285425601514L200.760620531559,143.5529015996465L200.77455653142928,140.7613685803302L201.1926365275383,132.83127662782928L201.45742052507399,135.76929490881997L201.4992285246849,138.16010827751097L201.80582052183152,132.02664757721803L202.41900451612474,123.07598357302686L202.71166051340103,138.81904382133663L202.79527651262282,132.2154898312939L202.82314851236342,140.52695003574513L203.11580450963973,120.78718611702503L203.42239650678633,135.26211718386614L203.82654050302506,135.88066792474066L204.46759649705888,130.19932729939117L204.69057249498368,139.72418861747929L204.85780449342727,142.6334415720499L205.68002848577498,146.66497260798602L205.9030044836998,146.02130088616053L206.33502047967912,127.33038338175362L206.4465084786415,134.6090898741295L206.73916447591782,148.47430300248257L207.08756447267533,144.03928458328113L207.15724447202683,143.50171938146036L207.33841247034073,129.59061250298237L207.51958046865462,127.43354033067493L207.60319646787642,132.54160344158683L208.18850846242904,147.19507864532787L208.20244446229933,146.9923931820906L208.27212446165086,126.05775824477274L208.48116445970535,124.79900889634104L209.28945245218276,126.89853374728435L209.52636444997788,129.81527238444016L209.90263644647598,125.79637457435689L209.91657244634627,129.81383434541723L210.02806044530868,141.63243760984636L210.19529244375227,126.56758778035899L210.2371004433632,146.3797275666696L210.3625244421959,136.43594797924612L210.5715644402504,132.967376641407L210.6273084397316,134.56369542206363L210.8642204375267,136.92570558132553L211.11506843519211,144.20264445249984L211.36591643285752,127.2457315250855L211.574956430912,123.77237329022475L211.71431642961502,136.06043947113332L211.75612442922593,144.58248677684622L211.92335642766955,142.78573354134912L211.93729242753983,132.81451112335097L211.99303642702102,138.94671562306434L212.38324442338944,139.67351175863365L212.74558042001723,141.37904498135623L213.20546841573716,127.907215837759L213.41450841379165,139.08519923557049L213.91620440912249,127.52558998134731L213.98588440847396,110.465169308348L214.65481240224838,141.50455290560788L214.71055640172958,137.23782369276074L214.98927639913558,140.8580907213369L215.6721403927803,130.15951074157556L216.0344763894081,134.51702203961278L216.076284389019,128.38932410265417L216.6615963835716,134.91405718877934L216.8845723814964,130.58990869913862L217.37233237695693,139.57819204662144L217.58137237501145,127.50170095585014L217.69286037397384,132.72206597406426L217.77647637319564,133.53748410564856L218.23636436891556,140.52731825859294L218.47327636671068,104.65717669187403L218.51508436632156,147.95654568959566L218.55689236593247,144.79130171094528L218.73806036424637,133.99606853725365L219.11433236074447,148.5336232486695L219.36518035840987,123.53266779289879L219.46273235750198,132.96881771107064L219.56028435659408,141.1018246978436L219.8668763537407,135.5665314065841L220.159532351017,136.19700014210088L220.34070034933092,141.43129322741663L220.8284603447914,132.19038097290584L221.14898834180832,114.48360494572105L221.19079634141923,135.0996202895932L221.37196433973313,146.2632062498211L221.42770833921432,133.67460999111088L221.51132433843614,139.1232216540782L222.11057233285905,135.872563991448L222.12450833272933,134.4060566448693L222.38929233026505,144.82257110426252L222.43110032987596,133.850156824336L222.54258832883835,139.58195307175836L222.55652432870863,138.36332789117563L222.57046032857895,120.4313828348916L222.65407632780077,138.7322296025128L222.93279632520677,139.0173462204286L222.96066832494736,135.03229005997602L223.21151632261277,140.08388778826182L223.90831631612778,138.19025406078026L224.103420314312,123.7876810565154L224.18703631353378,130.09325638941493L224.660860309124,130.19131580064055L225.2322363038063,132.43918445368152L225.6224443001747,140.3899408299506L225.99871629667282,134.50420091403515L226.06839629602433,141.91128837806784L226.15201229524612,139.90329266525276L226.47254029226303,141.46744498293822L226.82094028902054,146.1300811889429L226.98817228746412,145.23050292214776L227.00210828733444,137.972737399506L227.08572428655626,132.30767131483773L227.21114828538896,144.37410067840943L227.44806028318405,143.01345361227675L227.61529228162763,142.30318507588896L227.69890828084948,137.25615452317237L227.97762827825548,142.17102565291106L228.03337227773667,116.41848720875974L228.36783627462387,128.9639881352224L228.39570827436447,142.92901086981848L228.5211322731972,141.7378129877767L229.21793226671218,116.1199812201308L229.55239626359938,138.02823752306188L229.5663322634697,142.6436707421494L229.8729242606163,131.68091359888598L230.3606842560768,126.99817515296724L230.3746202559471,145.37110874082003L230.70908425283432,143.96001362921626L230.73695625257494,134.10430332470594L230.75089225244523,129.23516077517277L231.16897224855424,130.60831378024795L231.51737224531172,144.76940002810204L231.58705224466325,122.54643668889834L231.79609224271775,135.258363735331L231.87970824193957,136.56151500099188L232.29778823804855,144.64533317351408L232.31172423791884,123.81078969202645L232.42321223688128,141.41914338875907L232.47895623636248,137.63818497012056L232.56257223558427,142.82568799331762L232.78554823350908,138.39848786952072L233.384796227932,148.05194609241715L233.5520282263756,135.7236928578646L233.70532422494887,146.23286461139512L233.8446842236519,135.48118704851083L233.8586202235222,128.1212715073279L233.9143642230034,142.74008830376346L233.97010822248458,137.06911853096724L234.02585222196578,146.46691569079258L234.2627642197609,142.52648571498264L234.3463802189827,135.3115484493747L234.4021242184639,141.7325714946467L234.4299962182045,143.416965998328L234.77839621496202,131.18719343406156L235.0431802124977,133.78757106277033L235.1407322115898,140.2182860970737L235.15466821146012,132.11187222498276L235.37764420938493,143.05090172436752L235.4194522089958,143.46019429993729L235.86540420484545,128.10689111709837L235.87934020471573,128.82602427760023L235.89327620458604,134.7001030456747L236.22774020147324,143.19382219489177L236.42284419965745,136.94088606070585L237.13358019304275,142.84870267896625L237.30081219148636,133.90380219576957L238.17878018331527,145.2002146987645L238.31814018201828,137.18699075591792L238.7640921778679,132.90151627254033L238.8198361773491,134.55600820187036L239.0985561747551,138.27615302610582L239.43302017164228,137.9789123299786L239.4608921713829,139.06423629369112L239.697804169178,136.45500313279047L240.21343616437912,129.55412661932107L240.38066816282273,137.970288641802L240.63151616048813,135.84022250897507L240.70119615983964,134.51311705904152L240.72906815958024,139.38802540254972L240.86842815828325,115.75306154782629L241.11927615594863,136.62473113582791L241.23076415491104,145.61390321870266L241.34225215387343,144.35640931319034L241.43980415296556,146.9194911195046L241.67671615076063,133.69596843160454L241.76033214998245,136.3362580833117L241.85788414907455,133.01229225223864L242.51287614297866,131.22612807542686L242.5825561423302,129.36908327339117L242.80553214025497,125.2598541859253L242.8891481394768,135.67970007713302L243.02850813817977,140.1282844018697L243.1399961371422,142.21247118011513L243.27935613584518,127.58178412162871L243.3769081349373,137.7253552892293L243.5162681336403,142.3279772323215L243.53020413351058,136.88680124636747L243.5441401333809,140.75588387828222L243.7253081316948,142.7761529283643L243.9900921292305,137.90568901947603L244.2688121266365,127.53835958603264L244.4221081252098,140.8672265877957L244.9795481200218,141.93813379359005L245.07710011911394,135.19227909905086L245.24433211755752,135.46735520425216L245.39762811613085,140.05036359824683L245.84358011198043,137.00270203952797L246.28953210783004,142.01393087572643L246.72154810380934,136.97567175492168L247.23718009901046,134.7200779986784L247.57164409589765,136.04739559346257L247.69706809473038,126.11610110932659L247.78068409395217,137.4807113628456L247.9897240920067,136.4612250381943L248.1987640900612,116.72264231169589" fill="none"></path></g><g><path style="fill: none;" stroke="rgb(255, 112, 67)" stroke-width="2px" d="M32.27856289958954,60.838997233614336L36.68512605857849,73.86252112127788L41.09168921756744,81.99631228633787L45.498252376556394,82.85052261917346L49.904815535545346,88.63127583683126L54.311378694534305,98.70260410620307L58.71794185352325,93.62146823811287L63.1245050125122,95.74948717313158L67.53106817150116,94.84410144105146L71.9376313304901,96.32253890483531L76.34419448947907,97.72148266246118L80.75075764846801,96.56941489811132L85.15732080745698,96.77457715247925L89.56388396644593,95.84912857881449L93.97044712543487,99.95663474702945L98.37701028442383,96.71868607627013L102.78357344341278,99.19736226547502L107.19013660240172,95.7801815023717L111.5966997613907,94.7508425647307L116.00326292037964,96.26255040236902L120.4098260793686,96.45517792670762L124.81638923835754,95.26433614495078L129.2229523973465,94.30150158733002L133.62951555633543,94.2481683718909L138.0360787153244,94.3823772656576L142.44264187431335,98.33159306892281L146.8492050333023,97.6909398652572L151.25576819229127,98.62743815499718L155.66233135128022,96.19959793327585L160.06889451026916,98.84139532874256L164.47545766925813,96.32511494944967L168.88202082824708,97.89358668782526L173.28858398723602,96.18537210572322L177.69514714622497,97.90693969084974L182.1017103052139,95.39530831442556L186.5082734642029,97.96283682834031L190.91483662319183,97.6962374252406L195.32139978218078,96.6233421191321L199.72796294116972,98.684086891387L204.1345261001587,99.60419547609828L208.54108925914767,96.20653203924952L212.9476524181366,96.24490601208112L217.35421557712556,95.01912094279083L221.7607787361145,96.80141650672002L226.16734189510345,97.01422203699076L230.5739050540924,96.9262485980905L234.98046821308137,94.3513253208122L239.3870313720703,96.04409575779106L243.79359453105926,98.07732231228329L248.2001576900482,95.1486384047187" fill="none"></path></g></g></g></g></g></g><g transform="translate(51, 177)" clip-path="url(#clip_1)"><clipPath id="clip_1"><rect width="278" height="22"></rect></clipPath><g><g><line x1="0" y1="0" x2="0" y2="5" style="visibility: inherit;" fill="rgb(0, 0, 0)" stroke="rgb(204, 204, 204)" stroke-width="1px"></line><line x1="27.871999740600586" y1="0" x2="27.871999740600586" y2="5" style="visibility: inherit;" fill="rgb(0, 0, 0)" stroke="rgb(204, 204, 204)" stroke-width="1px"></line><line x1="55.74399948120117" y1="0" x2="55.74399948120117" y2="5" style="visibility: inherit;" fill="rgb(0, 0, 0)" stroke="rgb(204, 204, 204)" stroke-width="1px"></line><line x1="83.61599922180176" y1="0" x2="83.61599922180176" y2="5" style="visibility: inherit;" fill="rgb(0, 0, 0)" stroke="rgb(204, 204, 204)" stroke-width="1px"></line><line x1="111.48799896240234" y1="0" x2="111.48799896240234" y2="5" style="visibility: inherit;" fill="rgb(0, 0, 0)" stroke="rgb(204, 204, 204)" stroke-width="1px"></line><line x1="139.35999870300293" y1="0" x2="139.35999870300293" y2="5" style="visibility: inherit;" fill="rgb(0, 0, 0)" stroke="rgb(204, 204, 204)" stroke-width="1px"></line><line x1="167.23199844360352" y1="0" x2="167.23199844360352" y2="5" style="visibility: inherit;" fill="rgb(0, 0, 0)" stroke="rgb(204, 204, 204)" stroke-width="1px"></line><line x1="195.1039981842041" y1="0" x2="195.1039981842041" y2="5" style="visibility: inherit;" fill="rgb(0, 0, 0)" stroke="rgb(204, 204, 204)" stroke-width="1px"></line><line x1="222.9759979248047" y1="0" x2="222.9759979248047" y2="5" style="visibility: inherit;" fill="rgb(0, 0, 0)" stroke="rgb(204, 204, 204)" stroke-width="1px"></line><line x1="250.84799766540527" y1="0" x2="250.84799766540527" y2="5" style="visibility: inherit;" fill="rgb(0, 0, 0)" stroke="rgb(204, 204, 204)" stroke-width="1px"></line><line x1="278.71999740600586" y1="0" x2="278.71999740600586" y2="5" style="visibility: inherit;" fill="rgb(0, 0, 0)" stroke="rgb(204, 204, 204)" stroke-width="1px"></line></g><g transform="translate(0, 8)"><text style="text-anchor: middle; visibility: hidden; font-family: &quot;Helvetica Neue&quot;, sans-serif; font-size: 12px; font-weight: 200;" x="0" y="0" dx="0em" dy="0.95em" fill="rgb(50, 49, 63)" stroke="none" stroke-width="1px">-20k</text><text style="text-anchor: middle; visibility: hidden; font-family: &quot;Helvetica Neue&quot;, sans-serif; font-size: 12px; font-weight: 200;" x="27.871999740600586" y="0" dx="0em" dy="0.95em" fill="rgb(50, 49, 63)" stroke="none" stroke-width="1px">0</text><text style="text-anchor: middle; visibility: hidden; font-family: &quot;Helvetica Neue&quot;, sans-serif; font-size: 12px; font-weight: 200;" x="55.74399948120117" y="0" dx="0em" dy="0.95em" fill="rgb(50, 49, 63)" stroke="none" stroke-width="1px">20k</text><text style="text-anchor: middle; visibility: hidden; font-family: &quot;Helvetica Neue&quot;, sans-serif; font-size: 12px; font-weight: 200;" x="83.61599922180176" y="0" dx="0em" dy="0.95em" fill="rgb(50, 49, 63)" stroke="none" stroke-width="1px">40k</text><text style="text-anchor: middle; visibility: hidden; font-family: &quot;Helvetica Neue&quot;, sans-serif; font-size: 12px; font-weight: 200;" x="111.48799896240234" y="0" dx="0em" dy="0.95em" fill="rgb(50, 49, 63)" stroke="none" stroke-width="1px">60k</text><text style="text-anchor: middle; visibility: hidden; font-family: &quot;Helvetica Neue&quot;, sans-serif; font-size: 12px; font-weight: 200;" x="139.35999870300293" y="0" dx="0em" dy="0.95em" fill="rgb(50, 49, 63)" stroke="none" stroke-width="1px">80k</text><text style="text-anchor: middle; visibility: hidden; font-family: &quot;Helvetica Neue&quot;, sans-serif; font-size: 12px; font-weight: 200;" x="167.23199844360352" y="0" dx="0em" dy="0.95em" fill="rgb(50, 49, 63)" stroke="none" stroke-width="1px">100k</text><text style="text-anchor: middle; visibility: hidden; font-family: &quot;Helvetica Neue&quot;, sans-serif; font-size: 12px; font-weight: 200;" x="195.1039981842041" y="0" dx="0em" dy="0.95em" fill="rgb(50, 49, 63)" stroke="none" stroke-width="1px">120k</text><text style="text-anchor: middle; visibility: hidden; font-family: &quot;Helvetica Neue&quot;, sans-serif; font-size: 12px; font-weight: 200;" x="222.9759979248047" y="0" dx="0em" dy="0.95em" fill="rgb(50, 49, 63)" stroke="none" stroke-width="1px">140k</text><text style="text-anchor: middle; visibility: hidden; font-family: &quot;Helvetica Neue&quot;, sans-serif; font-size: 12px; font-weight: 200;" x="250.84799766540527" y="0" dx="0em" dy="0.95em" fill="rgb(50, 49, 63)" stroke="none" stroke-width="1px">160k</text><text style="text-anchor: middle; visibility: hidden; font-family: &quot;Helvetica Neue&quot;, sans-serif; font-size: 12px; font-weight: 200;" x="278.71999740600586" y="0" dx="0em" dy="0.95em" fill="rgb(50, 49, 63)" stroke="none" stroke-width="1px">180k</text></g><line x1="0" y1="0" x2="278.71999740600586" y2="0" fill="rgb(0, 0, 0)" stroke="rgb(204, 204, 204)" stroke-width="1px"></line></g></g></g></g></svg>