<svg viewBox="0 0 330 200" xmlns="http://www.w3.org/2000/svg"><g><g><g><g><g><line x1="51.52000045776367" y1="177.95999908447266" x2="46.52000045776367" y2="177.95999908447266" style="visibility: inherit;" fill="rgb(0, 0, 0)" stroke="rgb(204, 204, 204)" stroke-width="1px"></line><line x1="51.52000045776367" y1="164.27076838566705" x2="46.52000045776367" y2="164.27076838566705" style="visibility: inherit;" fill="rgb(0, 0, 0)" stroke="rgb(204, 204, 204)" stroke-width="1px"></line><line x1="51.52000045776367" y1="150.58153768686148" x2="46.52000045776367" y2="150.58153768686148" style="visibility: inherit;" fill="rgb(0, 0, 0)" stroke="rgb(204, 204, 204)" stroke-width="1px"></line><line x1="51.52000045776367" y1="136.89230698805588" x2="46.52000045776367" y2="136.89230698805588" style="visibility: inherit;" fill="rgb(0, 0, 0)" stroke="rgb(204, 204, 204)" stroke-width="1px"></line><line x1="51.52000045776367" y1="123.2030762892503" x2="46.52000045776367" y2="123.2030762892503" style="visibility: inherit;" fill="rgb(0, 0, 0)" stroke="rgb(204, 204, 204)" stroke-width="1px"></line><line x1="51.52000045776367" y1="109.51384559044472" x2="46.52000045776367" y2="109.51384559044472" style="visibility: inherit;" fill="rgb(0, 0, 0)" stroke="rgb(204, 204, 204)" stroke-width="1px"></line><line x1="51.52000045776367" y1="95.82461489163913" x2="46.52000045776367" y2="95.82461489163913" style="visibility: inherit;" fill="rgb(0, 0, 0)" stroke="rgb(204, 204, 204)" stroke-width="1px"></line><line x1="51.52000045776367" y1="82.13538419283354" x2="46.52000045776367" y2="82.13538419283354" style="visibility: inherit;" fill="rgb(0, 0, 0)" stroke="rgb(204, 204, 204)" stroke-width="1px"></line><line x1="51.52000045776367" y1="68.44615349402795" x2="46.52000045776367" y2="68.44615349402795" style="visibility: inherit;" fill="rgb(0, 0, 0)" stroke="rgb(204, 204, 204)" stroke-width="1px"></line><line x1="51.52000045776367" y1="54.756922795222366" x2="46.52000045776367" y2="54.756922795222366" style="visibility: inherit;" fill="rgb(0, 0, 0)" stroke="rgb(204, 204, 204)" stroke-width="1px"></line><line x1="51.52000045776367" y1="41.06769209641678" x2="46.52000045776367" y2="41.06769209641678" style="visibility: inherit;" fill="rgb(0, 0, 0)" stroke="rgb(204, 204, 204)" stroke-width="1px"></line><line x1="51.52000045776367" y1="27.378461397611176" x2="46.52000045776367" y2="27.378461397611176" style="visibility: inherit;" fill="rgb(0, 0, 0)" stroke="rgb(204, 204, 204)" stroke-width="1px"></line><line x1="51.52000045776367" y1="13.689230698805574" x2="46.52000045776367" y2="13.689230698805574" style="visibility: inherit;" fill="rgb(0, 0, 0)" stroke="rgb(204, 204, 204)" stroke-width="1px"></line><line x1="51.52000045776367" y1="0" x2="46.52000045776367" y2="0" style="visibility: inherit;" fill="rgb(0, 0, 0)" stroke="rgb(204, 204, 204)" stroke-width="1px"></line></g><g transform="translate(41.52000045776367, 0)"><text style="text-anchor: end; visibility: hidden; font-family: &quot;Helvetica Neue&quot;, sans-serif; font-size: 12px; font-weight: 200;" x="0" y="177.95999908447266" dx="0em" dy="0.3em" fill="rgb(50, 49, 63)" stroke="none" stroke-width="1px">-0.1</text><text style="text-anchor: end; visibility: inherit; font-family: &quot;Helvetica Neue&quot;, sans-serif; font-size: 12px; font-weight: 200;" x="0" y="164.27076838566705" dx="0em" dy="0.3em" fill="rgb(50, 49, 63)" stroke="none" stroke-width="1px">0</text><text style="text-anchor: end; visibility: hidden; font-family: &quot;Helvetica Neue&quot;, sans-serif; font-size: 12px; font-weight: 200;" x="0" y="150.58153768686148" dx="0em" dy="0.3em" fill="rgb(50, 49, 63)" stroke="none" stroke-width="1px">0.1</text><text style="text-anchor: end; visibility: inherit; font-family: &quot;Helvetica Neue&quot;, sans-serif; font-size: 12px; font-weight: 200;" x="0" y="136.89230698805588" dx="0em" dy="0.3em" fill="rgb(50, 49, 63)" stroke="none" stroke-width="1px">0.2</text><text style="text-anchor: end; visibility: hidden; font-family: &quot;Helvetica Neue&quot;, sans-serif; font-size: 12px; font-weight: 200;" x="0" y="123.2030762892503" dx="0em" dy="0.3em" fill="rgb(50, 49, 63)" stroke="none" stroke-width="1px">0.3</text><text style="text-anchor: end; visibility: inherit; font-family: &quot;Helvetica Neue&quot;, sans-serif; font-size: 12px; font-weight: 200;" x="0" y="109.51384559044472" dx="0em" dy="0.3em" fill="rgb(50, 49, 63)" stroke="none" stroke-width="1px">0.4</text><text style="text-anchor: end; visibility: hidden; font-family: &quot;Helvetica Neue&quot;, sans-serif; font-size: 12px; font-weight: 200;" x="0" y="95.82461489163913" dx="0em" dy="0.3em" fill="rgb(50, 49, 63)" stroke="none" stroke-width="1px">0.5</text><text style="text-anchor: end; visibility: inherit; font-family: &quot;Helvetica Neue&quot;, sans-serif; font-size: 12px; font-weight: 200;" x="0" y="82.13538419283354" dx="0em" dy="0.3em" fill="rgb(50, 49, 63)" stroke="none" stroke-width="1px">0.6</text><text style="text-anchor: end; visibility: hidden; font-family: &quot;Helvetica Neue&quot;, sans-serif; font-size: 12px; font-weight: 200;" x="0" y="68.44615349402795" dx="0em" dy="0.3em" fill="rgb(50, 49, 63)" stroke="none" stroke-width="1px">0.7</text><text style="text-anchor: end; visibility: inherit; font-family: &quot;Helvetica Neue&quot;, sans-serif; font-size: 12px; font-weight: 200;" x="0" y="54.756922795222366" dx="0em" dy="0.3em" fill="rgb(50, 49, 63)" stroke="none" stroke-width="1px">0.8</text><text style="text-anchor: end; visibility: hidden; font-family: &quot;Helvetica Neue&quot;, sans-serif; font-size: 12px; font-weight: 200;" x="0" y="41.06769209641678" dx="0em" dy="0.3em" fill="rgb(50, 49, 63)" stroke="none" stroke-width="1px">0.9</text><text style="text-anchor: end; visibility: inherit; font-family: &quot;Helvetica Neue&quot;, sans-serif; font-size: 12px; font-weight: 200;" x="0" y="27.378461397611176" dx="0em" dy="0.3em" fill="rgb(50, 49, 63)" stroke="none" stroke-width="1px">1</text><text style="text-anchor: end; visibility: hidden; font-family: &quot;Helvetica Neue&quot;, sans-serif; font-size: 12px; font-weight: 200;" x="0" y="13.689230698805574" dx="0em" dy="0.3em" fill="rgb(50, 49, 63)" stroke="none" stroke-width="1px">1.1</text><text style="text-anchor: end; visibility: hidden; font-family: &quot;Helvetica Neue&quot;, sans-serif; font-size: 12px; font-weight: 200;" x="0" y="0" dx="0em" dy="0.3em" fill="rgb(50, 49, 63)" stroke="none" stroke-width="1px">1.2</text></g><line x1="51.52000045776367" y1="0" x2="51.52000045776367" y2="177.95999908447266" fill="rgb(0, 0, 0)" stroke="rgb(204, 204, 204)" stroke-width="1px"></line></g></g><g transform="translate(51, 0)" clip-path="url(#clip_0)"><clipPath id="clip_0"><rect width="278" height="177"></rect></clipPath><g><g><g><line x1="0" y1="0" x2="0" y2="177.95999908447266" fill="rgb(0, 0, 0)" stroke="rgb(60, 60, 60)" stroke-width="1px" opacity="0.25"></line><line x1="34.80999994277954" y1="0" x2="34.80999994277954" y2="177.95999908447266" fill="rgb(0, 0, 0)" stroke="rgb(60, 60, 60)" stroke-width="1px" opacity="0.25"></line><line x1="69.61999988555908" y1="0" x2="69.61999988555908" y2="177.95999908447266" fill="rgb(0, 0, 0)" stroke="rgb(60, 60, 60)" stroke-width="1px" opacity="0.25"></line><line x1="104.42999982833862" y1="0" x2="104.42999982833862" y2="177.95999908447266" fill="rgb(0, 0, 0)" stroke="rgb(60, 60, 60)" stroke-width="1px" opacity="0.25"></line><line x1="139.23999977111816" y1="0" x2="139.23999977111816" y2="177.95999908447266" fill="rgb(0, 0, 0)" stroke="rgb(60, 60, 60)" stroke-width="1px" opacity="0.25"></line><line x1="174.0499997138977" y1="0" x2="174.0499997138977" y2="177.95999908447266" fill="rgb(0, 0, 0)" stroke="rgb(60, 60, 60)" stroke-width="1px" opacity="0.25"></line><line x1="208.85999965667725" y1="0" x2="208.85999965667725" y2="177.95999908447266" fill="rgb(0, 0, 0)" stroke="rgb(60, 60, 60)" stroke-width="1px" opacity="0.25"></line><line x1="243.6699995994568" y1="0" x2="243.6699995994568" y2="177.95999908447266" fill="rgb(0, 0, 0)" stroke="rgb(60, 60, 60)" stroke-width="1px" opacity="0.25"></line><line x1="278.4799995422363" y1="0" x2="278.4799995422363" y2="177.95999908447266" fill="rgb(0, 0, 0)" stroke="rgb(60, 60, 60)" stroke-width="1px" opacity="0.25"></line></g><g><line x1="0" y1="177.95999908447266" x2="278.4799995422363" y2="177.95999908447266" fill="rgb(0, 0, 0)" stroke="rgb(60, 60, 60)" stroke-width="1px" opacity="0.25"></line><line x1="0" y1="164.27076838566705" x2="278.4799995422363" y2="164.27076838566705" fill="rgb(0, 0, 0)" stroke="rgb(60, 60, 60)" stroke-width="1px" opacity="0.25"></line><line x1="0" y1="150.58153768686148" x2="278.4799995422363" y2="150.58153768686148" fill="rgb(0, 0, 0)" stroke="rgb(60, 60, 60)" stroke-width="1px" opacity="0.25"></line><line x1="0" y1="136.89230698805588" x2="278.4799995422363" y2="136.89230698805588" fill="rgb(0, 0, 0)" stroke="rgb(60, 60, 60)" stroke-width="1px" opacity="0.25"></line><line x1="0" y1="123.2030762892503" x2="278.4799995422363" y2="123.2030762892503" fill="rgb(0, 0, 0)" stroke="rgb(60, 60, 60)" stroke-width="1px" opacity="0.25"></line><line x1="0" y1="109.51384559044472" x2="278.4799995422363" y2="109.51384559044472" fill="rgb(0, 0, 0)" stroke="rgb(60, 60, 60)" stroke-width="1px" opacity="0.25"></line><line x1="0" y1="95.82461489163913" x2="278.4799995422363" y2="95.82461489163913" fill="rgb(0, 0, 0)" stroke="rgb(60, 60, 60)" stroke-width="1px" opacity="0.25"></line><line x1="0" y1="82.13538419283354" x2="278.4799995422363" y2="82.13538419283354" fill="rgb(0, 0, 0)" stroke="rgb(60, 60, 60)" stroke-width="1px" opacity="0.25"></line><line x1="0" y1="68.44615349402795" x2="278.4799995422363" y2="68.44615349402795" fill="rgb(0, 0, 0)" stroke="rgb(60, 60, 60)" stroke-width="1px" opacity="0.25"></line><line x1="0" y1="54.756922795222366" x2="278.4799995422363" y2="54.756922795222366" fill="rgb(0, 0, 0)" stroke="rgb(60, 60, 60)" stroke-width="1px" opacity="0.25"></line><line x1="0" y1="41.06769209641678" x2="278.4799995422363" y2="41.06769209641678" fill="rgb(0, 0, 0)" stroke="rgb(60, 60, 60)" stroke-width="1px" opacity="0.25"></line><line x1="0" y1="27.378461397611176" x2="278.4799995422363" y2="27.378461397611176" fill="rgb(0, 0, 0)" stroke="rgb(60, 60, 60)" stroke-width="1px" opacity="0.25"></line><line x1="0" y1="13.689230698805574" x2="278.4799995422363" y2="13.689230698805574" fill="rgb(0, 0, 0)" stroke="rgb(60, 60, 60)" stroke-width="1px" opacity="0.25"></line><line x1="0" y1="0" x2="278.4799995422363" y2="0" fill="rgb(0, 0, 0)" stroke="rgb(60, 60, 60)" stroke-width="1px" opacity="0.25"></line></g></g></g><g><g><line x1="0" y1="164.27076838566705" x2="278.4799995422363" y2="164.27076838566705" fill="rgb(0, 0, 0)" stroke="rgb(153, 153, 153)" stroke-width="1.5px"></line></g></g><g><g><line x1="34.80999994277954" y1="0" x2="34.80999994277954" y2="177.95999908447266" fill="rgb(0, 0, 0)" stroke="rgb(153, 153, 153)" stroke-width="1.5px"></line></g></g><g><g><g><g><g><path style="fill: none;" stroke="rgb(238, 51, 119)" stroke-width="2px" d="M35.138954442238806,130.0476916386531L35.55667444155216,130.0476916386531L35.60888944146633,142.88134541878333L35.80034444115162,100.10249948501588L36.06141944072246,142.88134541878333L36.46173444006443,142.88134541878333L37.52343943831921,95.82461489163913L37.57565443823338,134.32557623202985L37.73229943797588,104.38038407839262L38.811409436202055,91.54673029826239L38.898434436059,130.0476916386531L39.263939435458184,121.4919224518996L39.35096443531513,104.38038407839262L39.47279943511486,104.38038407839262L39.5772294349432,112.93615326514612L40.18640443394184,100.10249948501588L40.221214433884626,91.54673029826239L40.36045443365574,108.65826867176938L40.865199432826046,100.10249948501588L41.21329943225384,108.65826867176938L42.153169430708886,91.54673029826239L42.17057443068027,95.82461489163913L42.51867443010807,100.10249948501588L42.831964429593086,100.10249948501588L43.07563442919254,108.65826867176938L44.15474442741871,104.38038407839262L44.62467942664623,100.10249948501588L44.903159426188466,70.15730733137865L45.0249944259882,82.99096111150888L45.04239942595959,104.38038407839262L45.61676442501545,82.99096111150888L45.86043442461491,112.93615326514612L45.99967442438602,78.71307651813213L46.08669942424297,74.4351919247554L46.12150942418575,100.10249948501588L46.330369423842434,95.82461489163913L46.50441942355633,100.10249948501588L47.25283442232609,91.54673029826239L47.39207442209721,91.54673029826239L47.53131442186832,95.82461489163913L47.98384442112446,104.38038407839262L48.14048942086696,112.93615326514612L48.210109420752524,70.15730733137865L48.244919420695304,70.15730733137865L48.48858942029476,87.26884570488563L48.52339942023754,82.99096111150888L48.64523442003727,65.8794227380019L48.78447441980839,91.54673029826239L48.888904419636724,70.15730733137865L49.37624441883564,91.54673029826239L50.64680941674709,95.82461489163913L51.221174415802956,82.99096111150888L51.273389415717126,87.26884570488563L51.56927441523075,65.8794227380019L51.72591941497326,74.4351919247554L51.74332441494465,70.15730733137865L51.847754414772986,91.54673029826239L51.95218441460133,78.71307651813213L52.26547441408634,87.26884570488563L52.31768941400051,82.99096111150888L52.474334413743016,95.82461489163913L53.32717941234112,53.04576895787167L53.37939441225529,61.60153814462515L53.48382441208363,82.99096111150888L53.58825441191196,82.99096111150888L53.84932941148281,82.99096111150888L53.95375941131115,70.15730733137865L54.040784411168104,74.4351919247554L54.94584440968036,74.4351919247554L55.03286940953732,70.15730733137865L55.0502744095087,104.38038407839262L55.36356440899372,87.26884570488563L55.58982940862179,78.71307651813213L55.81609440824985,108.65826867176938L56.47748440716266,87.26884570488563L56.77336940667629,74.4351919247554L57.12146940610408,82.99096111150888L57.73064440510273,61.60153814462515L57.7828594050169,78.71307651813213L58.026529404616355,78.71307651813213L58.096149404501915,70.15730733137865L58.93158940312862,82.99096111150888L59.05342440292835,65.8794227380019L59.436334402298925,74.4351919247554L59.6451944019556,78.71307651813213L59.8192444016695,82.99096111150888L60.34139440081119,74.4351919247554L60.53284940049648,91.54673029826239L60.6720894002676,70.15730733137865L60.776519400095935,57.32365355124841L61.33347939918041,74.4351919247554L61.83822439835072,70.15730733137865L62.11670439789295,70.15730733137865L62.395184397435195,82.99096111150888L62.46480439732075,70.15730733137865L62.76068939683437,78.71307651813213L63.36986439583301,95.82461489163913L63.50910439560413,70.15730733137865L64.10087439463139,48.767884364494904L64.25751939437389,65.8794227380019L64.36194939420224,87.26884570488563L64.44897439405918,70.15730733137865L64.57080939385891,82.99096111150888L64.72745439360142,70.15730733137865L64.97112439320087,70.15730733137865L65.00593439314366,74.4351919247554L65.05814939305782,61.60153814462515L65.21479439280033,61.60153814462515L65.82396939179897,74.4351919247554L66.24168939111233,61.60153814462515L66.60719439051151,70.15730733137865L66.92048438999653,65.8794227380019L67.07712938973903,70.15730733137865L67.3033943893671,78.71307651813213L67.35560938928127,74.4351919247554L67.49484938905239,65.8794227380019L68.19104938790798,70.15730733137865L68.4869343874216,53.04576895787167L68.66098438713551,70.15730733137865L68.71319938704968,65.8794227380019L69.06129938647747,61.60153814462515L69.33977938601971,74.4351919247554L69.65306938550472,91.54673029826239L69.86192938516139,82.99096111150888L70.15781438467502,57.32365355124841L70.26224438450336,57.32365355124841L70.90622938344478,74.4351919247554L70.95844438335895,87.26884570488563L70.97584938333034,74.4351919247554L71.11508938310146,70.15730733137865L71.18470938298702,70.15730733137865L71.30654438278674,82.99096111150888L72.2290093812704,61.60153814462515L72.35084438107015,70.15730733137865L72.50748938081264,44.489999771118164L72.89039938018323,65.8794227380019L72.96001938006879,74.4351919247554L73.0992593798399,104.38038407839262L73.23849937961103,82.99096111150888L73.30811937949657,82.99096111150888L73.65621937892438,53.04576895787167L73.74324437878133,61.60153814462515L73.7606493787527,70.15730733137865L73.84767437860965,65.8794227380019L74.05653437826633,53.04576895787167L74.1087493781805,78.71307651813213L74.19577437803746,74.4351919247554L74.52646937749387,65.8794227380019L74.8049493770361,61.60153814462515L74.97899937675,65.8794227380019L75.18785937640666,65.8794227380019L75.6403893756628,53.04576895787167L75.7970343754053,74.4351919247554L76.40620937440396,70.15730733137865L76.42361437437535,48.767884364494904L76.45842437431813,74.4351919247554L77.22424437305926,57.32365355124841L77.36348437283038,70.15730733137865L77.5201293725729,48.767884364494904L77.55493937251568,53.04576895787167L77.64196437237263,65.8794227380019L78.07708937165737,53.04576895787167L78.09449437162877,65.8794227380019L78.26854437134266,70.15730733137865L78.30335437128544,78.71307651813213L78.39037937114239,57.32365355124841L78.63404937074185,57.32365355124841L78.73847937057019,61.60153814462515L78.89512437031269,61.60153814462515L79.15619936988354,87.26884570488563L79.26062936971186,78.71307651813213L80.0786643683672,48.767884364494904L80.18309436819554,78.71307651813213L80.47897936770916,70.15730733137865L80.5834093675375,57.32365355124841L81.55808936593533,61.60153814462515L81.64511436579228,61.60153814462515L81.87137936542034,53.04576895787167L82.51536436436176,74.4351919247554L82.75903436396122,65.8794227380019L83.36820936295986,65.8794227380019L84.81282436058521,70.15730733137865L85.12611436007023,70.15730733137865L85.23054435989856,53.04576895787167L85.64826435921192,61.60153814462515L86.46629935786724,82.99096111150888L86.60553935763836,70.15730733137865L87.2321193566084,44.489999771118164L87.51059935615062,74.4351919247554L87.56281435606479,65.8794227380019L87.70205435583591,65.8794227380019L87.75426935575008,48.767884364494904L88.24160935494899,40.212115177741424L88.7637593540907,65.8794227380019L89.73843935248851,35.934230584364656L89.84286935231685,57.798972248419744L90.1213493518591,70.15730733137865L90.4346393513441,74.4351919247554L90.45204435131551,78.71307651813213L91.04381435034276,57.32365355124841L91.21786435005664,65.8794227380019L91.27007934997081,48.767884364494904L91.28748434994222,53.04576895787167L91.32229434988498,70.15730733137865L91.33969934985637,57.32365355124841L91.77482434914111,82.99096111150888L92.34918934819699,87.26884570488563L93.04538934705258,65.8794227380019L93.58494434616566,44.489999771118164L94.05487934539319,70.15730733137865L94.14190434525013,65.8794227380019L94.52481434462071,74.4351919247554L94.85550934407712,78.71307651813213L95.11658434364796,44.489999771118164L95.3950643431902,57.32365355124841L95.8998093423605,70.15730733137865L95.95202434227467,40.212115177741424L96.38714934155941,70.15730733137865L97.13556434032917,70.15730733137865L97.48366433975697,53.04576895787167L97.79695433924198,74.4351919247554L97.83176433918476,65.8794227380019L97.86657433912754,57.32365355124841L97.97100433895588,61.60153814462515L98.4583443381548,61.60153814462515L98.70201433775425,74.4351919247554L99.67669433615207,48.767884364494904L99.74631433603764,57.32365355124841L99.93776933572293,65.8794227380019L100.477324334836,65.8794227380019L100.61656433460712,70.15730733137865L100.84282933423519,57.32365355124841L100.92985433409214,61.60153814462515L101.20833433363437,61.60153814462515L101.29535933349132,74.4351919247554L101.33016933343411,70.15730733137865L101.504219333148,61.60153814462515L101.57383933303356,53.04576895787167L102.07858433220386,48.767884364494904L102.28744433186054,57.32365355124841L103.1925043303728,57.32365355124841L103.38395933005809,48.767884364494904L103.67984432957172,48.767884364494904L104.16718432877063,53.04576895787167L104.61971432802677,40.212115177741424L104.82857432768344,65.8794227380019L105.02002932736873,44.489999771118164L105.0722443272829,53.04576895787167L106.06432932565211,48.767884364494904L106.15135432550908,57.32365355124841L106.34280932519435,44.489999771118164L107.61337432310582,61.60153814462515L107.80482932279111,53.04576895787167L107.82223432276248,61.60153814462515L107.85704432270528,48.767884364494904L107.94406932256221,48.767884364494904L107.9614743225336,48.767884364494904L108.39659932181836,53.04576895787167L108.4836243216753,48.767884364494904L108.53583932158946,35.934230584364656L108.67507932136058,57.32365355124841L109.02317932078837,44.489999771118164L109.07539432070254,57.32365355124841L109.09279932067395,70.15730733137865L109.35387432024478,70.15730733137865L109.73678431961537,57.32365355124841L109.96304931924342,57.32365355124841L109.9978593191862,53.04576895787167L110.22412431881429,65.8794227380019L110.86810931775571,65.8794227380019L111.28582931706906,44.489999771118164L111.40766431686879,44.489999771118164L111.51209431669713,57.32365355124841L111.92981431601048,44.489999771118164L111.98202931592465,61.60153814462515L113.00892431423664,65.8794227380019L113.30480931375027,48.767884364494904L113.67031431314945,53.04576895787167L113.72252931306362,82.99096111150888L114.50575431177616,53.04576895787167L114.55796931169033,53.04576895787167L114.83644931123257,61.60153814462515L115.37600431034565,53.04576895787167L115.86334430954457,65.8794227380019L116.00258430931568,48.767884364494904L116.07220430920124,53.04576895787167L116.21144430897236,70.15730733137865L116.40289930865765,57.32365355124841L116.85542930791378,57.32365355124841L116.94245430777072,44.489999771118164L117.22093430731296,74.4351919247554L117.4994143068552,44.489999771118164L117.63865430662632,57.32365355124841L117.79529930636883,57.32365355124841L117.95194430611134,57.32365355124841L118.14339930579662,48.767884364494904L118.16080430576801,70.15730733137865L118.36966430542469,48.767884364494904L118.40447430536747,70.15730733137865L119.06586430428028,57.32365355124841L119.27472430393696,65.8794227380019L119.60541930339336,61.60153814462515L120.00573430273532,61.60153814462515L120.35383430216312,48.767884364494904L121.18927430078983,74.4351919247554L121.34591930053233,70.15730733137865L121.39813430044651,61.60153814462515L122.32059929893016,57.32365355124841L122.37281429884433,48.767884364494904L122.72091429827213,61.60153814462515L122.75572429821491,57.32365355124841L122.77312929818629,53.04576895787167L123.20825429747104,57.32365355124841L123.69559429666997,48.767884364494904L124.04369429609775,53.04576895787167L124.18293429586888,57.32365355124841L124.72248929498195,44.489999771118164L125.01837429449559,78.71307651813213L125.3316642939806,70.15730733137865L125.47090429375172,57.32365355124841L126.0104592928648,44.489999771118164L126.88070929143429,53.04576895787167L127.3854542906046,40.212115177741424L127.57690929028989,44.489999771118164L127.85538928983212,44.489999771118164L128.09905928943158,57.32365355124841L128.46456428883076,40.212115177741424L129.16076428768633,61.60153814462515L129.54367428705692,74.4351919247554L129.63069928691388,61.60153814462515L130.2746842858553,40.212115177741424L130.46613928554058,48.767884364494904L130.81423928496838,48.767884364494904L130.84904928491116,53.04576895787167L131.40600928399562,61.60153814462515L131.82372928330898,70.15730733137865L132.03258928296566,53.04576895787167L132.06739928290844,35.934230584364656L132.17182928273678,61.60153814462515L132.8158142816782,44.489999771118164L133.30315428087712,57.32365355124841L133.3379642808199,44.489999771118164L133.40758428070546,48.767884364494904L133.6686592802763,44.489999771118164L134.38226427910328,53.04576895787167L134.43447927901747,53.04576895787167L135.3569442775011,44.489999771118164L135.40915927741526,65.8794227380019L135.58320927712919,57.32365355124841L135.89649927661418,57.32365355124841L135.91390427658558,40.212115177741424L136.2097892760992,57.32365355124841L136.26200427601339,65.8794227380019L136.85377427504062,57.32365355124841L136.8885842749834,40.212115177741424L137.01041927478315,53.04576895787167L137.63699927375316,87.26884570488563L138.00250427315234,48.767884364494904L138.4202242724657,57.32365355124841L138.50724927232267,35.934230584364656L138.61167927215098,65.8794227380019L139.08161427137853,65.8794227380019L139.4297142708063,74.4351919247554L139.51673927066327,57.32365355124841L139.77781427023413,40.212115177741424L139.86483927009107,40.212115177741424L140.61325426886083,44.489999771118164L141.04837926814554,57.32365355124841L141.08318926808835,48.767884364494904L141.3616692676306,44.489999771118164L141.39647926757337,57.32365355124841L141.50090926740168,48.767884364494904L141.53571926734446,40.212115177741424L141.8490092668295,40.212115177741424L142.24932426617147,53.04576895787167L142.40596926591397,44.489999771118164L142.7366642653704,31.656345990987916L142.92811926505564,57.32365355124841L142.96292926499845,48.767884364494904L143.0673592648268,53.04576895787167L143.29362426445485,61.60153814462515L143.60691426393984,65.8794227380019L144.28570926282404,44.489999771118164L144.68602426216603,35.934230584364656L144.7556442620516,35.934230584364656L144.77304926202297,53.04576895787167L145.19076926133633,48.767884364494904L145.3822242610216,44.489999771118164L145.57367926070688,44.489999771118164L145.69551426050666,53.04576895787167L145.79994426033494,65.8794227380019L146.21766425964833,57.32365355124841L147.2445592579603,53.04576895787167L147.87113925693038,48.767884364494904L147.88854425690175,65.8794227380019L147.95816425678728,48.767884364494904L148.3062642562151,44.489999771118164L148.3236692561865,44.489999771118164L148.34107425615787,48.767884364494904L148.48031425592902,74.4351919247554L149.24613425467012,61.60153814462515L149.36796925446987,40.212115177741424L149.42018425438403,61.60153814462515L149.75087925384042,44.489999771118164L150.6907492522955,53.04576895787167L150.84739425203801,57.32365355124841L150.8822042519808,61.60153814462515L150.95182425186636,40.212115177741424L151.0562542516947,35.934230584364656L151.10846925160885,53.04576895787167L151.23030425140857,53.04576895787167L151.3695442511797,61.60153814462515L151.42175925109385,57.32365355124841L151.63061925075053,44.489999771118164L152.10055424997805,48.767884364494904L152.17017424986363,53.04576895787167L152.3616292495489,44.489999771118164L152.55308424923422,48.767884364494904L153.73662424728872,48.767884364494904L153.98029424688815,35.934230584364656L154.1195342466593,40.212115177741424L154.36320424625873,48.767884364494904L154.3806092462301,57.32365355124841L154.83313924548625,48.767884364494904L155.0768092450857,57.32365355124841L155.51193424437048,44.489999771118164L156.01667924354078,74.4351919247554L156.06889424345493,53.04576895787167L156.52142424271108,61.60153814462515L156.83471424219607,53.04576895787167L156.90433424208166,48.767884364494904L157.33945924136637,48.767884364494904L158.24451923987866,44.489999771118164L158.5055942394495,57.32365355124841L158.64483423922061,48.767884364494904L158.66223923919202,57.32365355124841L159.04514923856257,48.767884364494904L159.35843923804762,65.8794227380019L160.0546392369032,61.60153814462515L160.42014423630238,44.489999771118164L160.80305423567293,53.04576895787167L160.95969923541546,53.04576895787167L161.88216423389912,70.15730733137865L162.0736192335844,53.04576895787167L162.38690923306942,35.934230584364656L162.56095923278332,44.489999771118164L162.5783642327547,70.15730733137865L162.90905923221112,53.04576895787167L163.30937423155308,44.489999771118164L163.64006923100948,44.489999771118164L164.16221923015118,53.04576895787167L164.31886422989368,65.8794227380019L164.37107922980783,44.489999771118164L164.4929142296076,53.04576895787167L164.66696422932148,44.489999771118164L164.71917922923566,48.767884364494904L164.8062042290926,61.60153814462515L164.98025422880647,57.32365355124841L165.39797422811986,40.212115177741424L165.55461922786236,40.212115177741424L165.8853142273188,48.767884364494904L166.1811992268324,53.04576895787167L167.26030922505856,53.04576895787167L167.8694842240572,65.8794227380019L168.16536922357082,31.656345990987916L168.33941922328472,57.32365355124841L168.42644422314166,44.489999771118164L168.61789922282696,35.934230584364656L168.72232922265528,53.04576895787167L168.84416422245505,57.32365355124841L169.15745422194004,40.212115177741424L169.244479221797,53.04576895787167L169.33150422165392,40.212115177741424L169.64479422113897,44.489999771118164L169.83624922082424,44.489999771118164L169.8884642207384,48.767884364494904L170.23656422016623,61.60153814462515L170.37580421993732,40.212115177741424L170.54985421965122,40.212115177741424L171.15902921864986,48.767884364494904L171.24605421850683,27.378461397611176L172.3077592167616,48.767884364494904L172.325164216733,53.04576895787167L172.88212421581744,44.489999771118164L173.6305392145872,44.489999771118164L173.76977921435832,61.60153814462515L173.90901921412944,48.767884364494904L173.92642421410085,53.04576895787167L174.51819421312808,48.767884364494904L174.7096492128134,57.32365355124841L174.91850921247004,44.489999771118164L175.2143942119837,48.767884364494904L176.25869421026704,44.489999771118164L176.67641420958043,40.212115177741424L177.1985642087221,53.04576895787167L177.2681842086077,44.489999771118164L177.51185420820713,61.60153814462515L177.80773920772074,48.767884364494904L177.91216920754908,35.934230584364656L178.64317920634747,61.60153814462515L178.92165920588968,44.489999771118164L179.113114205575,65.8794227380019L179.26975920531748,53.04576895787167L179.4089992050886,35.934230584364656L179.7570992045164,40.212115177741424L179.7919092044592,40.212115177741424L179.84412420437337,48.767884364494904L179.87893420431612,44.489999771118164L179.98336420414446,35.934230584364656L180.3314642035723,40.212115177741424L180.38367920348642,87.26884570488563L180.4707042033434,53.04576895787167L180.6273492030859,53.04576895787167L181.8456992010832,40.212115177741424L182.193799200511,44.489999771118164L182.21120420048237,48.767884364494904L182.24601420042515,48.767884364494904L182.4896842000246,48.767884364494904L182.55930419991014,48.767884364494904L182.71594919965267,48.767884364494904L182.73335419962407,53.04576895787167L182.820379199481,53.04576895787167L182.90740419933798,53.04576895787167L183.16847919890878,44.489999771118164L183.7080341980219,44.489999771118164L183.91689419767857,40.212115177741424L184.0387291974783,48.767884364494904L184.12575419733525,48.767884364494904L184.36942419693472,35.934230584364656L184.5260691966772,57.32365355124841L184.97859919593336,48.767884364494904L185.10043419573307,48.767884364494904L185.11783919570445,44.489999771118164L185.27448419544697,57.32365355124841L185.93587419435977,48.767884364494904L186.0751141941309,57.32365355124841L186.0925191941023,57.32365355124841L186.16213919398785,40.212115177741424L186.7190991930723,48.767884364494904L187.53713419172766,40.212115177741424L187.6067541916132,44.489999771118164L188.00706919095515,35.934230584364656L188.3203591904402,44.489999771118164L188.37257419035436,57.32365355124841L188.73807918975353,44.489999771118164L188.92953418943884,31.656345990987916L189.34725418875217,44.489999771118164L189.4690891885519,53.04576895787167L189.76497418806554,44.489999771118164L189.7997841880083,57.32365355124841L189.85199918792247,44.489999771118164L190.21750418732168,35.934230584364656L190.25231418726443,40.212115177741424L190.3393391871214,53.04576895787167L190.53079418680667,53.04576895787167L190.73965418646335,48.767884364494904L191.03553918597697,44.489999771118164L191.348829185462,57.32365355124841L191.45325918529034,61.60153814462515L191.62730918500424,48.767884364494904L191.94059918448926,61.60153814462515L191.95800418446063,48.767884364494904L192.42793918368815,53.04576895787167L192.56717918345927,48.767884364494904L192.74122918317317,48.767884364494904L192.93268418285845,44.489999771118164L193.29818918225766,44.489999771118164L193.61147918174268,48.767884364494904L194.16843918082716,53.04576895787167L194.29027418062688,65.8794227380019L195.19533417913914,40.212115177741424L195.23014417908192,48.767884364494904L195.40419417879582,48.767884364494904L195.52602917859554,61.60153814462515L195.99596417782305,44.489999771118164L196.36146917722226,61.60153814462515L196.53551917693616,53.04576895787167L196.81399917647838,44.489999771118164L196.84880917642118,35.934230584364656L196.9706441762209,53.04576895787167L197.52760417530538,48.767884364494904L197.6146291751623,48.767884364494904L197.8060841748476,40.212115177741424L197.89310917470453,57.32365355124841L198.64152417347432,35.934230584364656L198.69373917338848,35.934230584364656L199.04183917281628,48.767884364494904L199.14626917264462,57.32365355124841L199.163674172616,40.212115177741424L199.61620417187214,44.489999771118164L199.73803917167186,31.656345990987916L200.83455416986942,48.767884364494904L200.99119916961195,44.489999771118164L201.11303416941166,44.489999771118164L201.16524916932582,40.212115177741424L201.28708416912556,40.212115177741424L201.33929916903972,74.4351919247554L201.7222091684103,48.767884364494904L201.91366416809558,44.489999771118164L202.10511916778088,53.04576895787167L202.31397916743757,57.32365355124841L202.33138416740894,44.489999771118164L202.38359916732313,57.32365355124841L202.80131916663646,48.767884364494904L202.9057491664648,48.767884364494904L203.30606416580676,61.60153814462515L203.48011416552066,53.04576895787167L203.61935416529178,44.489999771118164L204.68105916354656,48.767884364494904L204.8377041632891,44.489999771118164L204.9943491630316,48.767884364494904L205.60352416203023,44.489999771118164L206.09086416122912,35.934230584364656L206.1430791611433,44.489999771118164L206.8392791599989,44.489999771118164L207.25699915931224,48.767884364494904L208.38832415745256,61.60153814462515L209.11933415625097,48.767884364494904L209.745914155221,61.60153814462515L209.83293915507792,44.489999771118164L209.85034415504933,48.767884364494904L209.8851541549921,53.04576895787167L210.12882415459157,48.767884364494904L210.33768415424822,40.212115177741424L210.7379991535902,65.8794227380019L210.84242915341852,57.32365355124841L211.1035041529894,48.767884364494904L211.20793415281773,35.934230584364656L211.38198415253163,57.32365355124841L211.799704151845,40.212115177741424L212.0955891513586,40.212115177741424L212.4784991507292,44.489999771118164L213.01805414984224,57.32365355124841L213.13988914964202,35.934230584364656L213.33134414932726,53.04576895787167L213.67944414875507,48.767884364494904L213.80127914855478,44.489999771118164L213.88830414841175,35.934230584364656L214.6193141472101,35.934230584364656L215.24589414618015,44.489999771118164L215.73323414537907,40.212115177741424L215.76804414532185,48.767884364494904L215.78544914529323,44.489999771118164L215.82025914523604,44.489999771118164L215.92468914506438,44.489999771118164L216.08133414480685,44.489999771118164L216.1857641446352,44.489999771118164L216.27278914449215,48.767884364494904L216.77753414366245,61.60153814462515L217.0212041432619,44.489999771118164L217.21265914294722,48.767884364494904L217.3867091426611,74.4351919247554L217.45632914254665,40.212115177741424L217.47373414251803,44.489999771118164L217.96107414171695,31.656345990987916L218.11771914145947,74.4351919247554L218.51803414080143,53.04576895787167L218.5354391407728,61.60153814462515L218.7442991404295,40.212115177741424L219.2838541395426,40.212115177741424L219.4404991392851,48.767884364494904L219.7363841387987,44.489999771118164L219.82340913865565,40.212115177741424L219.98005413839817,53.04576895787167L220.1192941381693,48.767884364494904L220.2585341379404,48.767884364494904L220.55441913745403,53.04576895787167L221.07656913659574,44.489999771118164L221.2506191363096,40.212115177741424L221.89460413525106,53.04576895787167L222.05124913499355,44.489999771118164L222.06865413496496,40.212115177741424L222.1730841347933,53.04576895787167L222.45156413433554,70.15730733137865L222.57339913413526,48.767884364494904L223.06073913333415,40.212115177741424L223.07814413330556,61.60153814462515L223.23478913304808,35.934230584364656L223.321814132905,44.489999771118164L223.5132691325903,53.04576895787167L223.6699141323328,35.934230584364656L223.91358413193225,53.04576895787167L224.57497413084508,57.32365355124841L224.62718913075926,44.489999771118164L224.78383413050173,40.212115177741424L225.2189591297865,57.32365355124841L225.28857912967203,57.32365355124841L225.44522412941456,44.489999771118164L225.68889412901402,65.8794227380019L225.79332412884233,40.212115177741424L225.82813412878514,40.212115177741424L226.4199041278124,48.767884364494904L226.52433412764074,48.767884364494904L226.62876412746905,31.656345990987916L226.66357412741183,35.934230584364656L226.6809791273832,61.60153814462515L226.8550291270971,44.489999771118164L226.94205412695408,48.767884364494904L227.1857241265535,57.32365355124841L227.34236912629603,48.767884364494904L227.62084912583828,44.489999771118164L228.05597412512302,48.767884364494904L228.38666912457944,53.04576895787167L228.54331412432194,35.934230584364656L228.85660412380693,44.489999771118164L229.32653912303448,40.212115177741424L229.72685412237644,48.767884364494904L229.76166412231925,40.212115177741424L229.77906912229062,57.32365355124841L230.6667241208315,53.04576895787167L230.8059641206026,53.04576895787167L230.85817912051678,53.04576895787167L231.01482412025928,48.767884364494904L231.6762141191721,44.489999771118164L232.21576911828518,40.212115177741424L232.56386911771298,40.212115177741424L232.89456411716938,40.212115177741424L233.43411911628246,35.934230584364656L233.57335911605358,44.489999771118164L233.60816911599636,40.212115177741424L234.1999391150236,35.934230584364656L234.25215411493778,40.212115177741424L234.4958241145372,40.212115177741424L234.7394941141367,44.489999771118164L234.84392411396504,53.04576895787167L235.33126411316394,65.8794227380019L235.3834791130781,40.212115177741424L235.40088411304953,48.767884364494904L235.50531411287787,40.212115177741424L235.54012411282062,48.767884364494904L235.83600911233424,44.489999771118164L235.97524911210536,53.04576895787167L236.13189411184788,61.60153814462515L236.39296911141872,35.934230584364656L236.67144911096094,61.60153814462515L237.35024410984516,48.767884364494904L237.55910410950182,35.934230584364656L237.59391410944463,40.212115177741424L237.76796410915853,44.489999771118164L237.9594191088438,53.04576895787167L238.08125410864355,48.767884364494904L238.20308910844327,44.489999771118164L238.23789910838605,53.04576895787167L238.53378410789966,48.767884364494904L238.8644791073561,35.934230584364656L239.4910591063261,31.656345990987916L239.96099410555362,57.32365355124841L240.06542410538196,40.212115177741424L240.22206910512446,53.04576895787167L240.74421910426616,40.212115177741424L241.14453410360815,44.489999771118164L241.16193910357953,40.212115177741424L241.47522910306455,40.212115177741424L241.96256910226344,44.489999771118164L242.0495941021204,48.767884364494904L242.27585910174847,44.489999771118164L242.51952910134793,44.489999771118164L242.65876910111905,48.767884364494904L242.74579410097598,40.212115177741424L242.78060410091877,48.767884364494904L242.79800910089014,44.489999771118164L243.14610910031797,44.489999771118164L243.2331341001749,40.212115177741424L243.47680409977434,40.212115177741424L243.65085409948827,44.489999771118164L243.7378790993452,44.489999771118164L243.85971409914492,57.32365355124841L244.19040909860132,48.767884364494904L244.39926909825803,40.212115177741424L245.00844409725667,53.04576895787167L245.16508909699917,44.489999771118164L246.0005290956259,44.489999771118164L246.08755409548283,44.489999771118164L246.34862909505367,48.767884364494904L246.54008409473894,48.767884364494904L246.60970409462453,40.212115177741424L246.88818409416677,35.934230584364656L247.11444909379483,31.656345990987916L247.46254909322263,35.934230584364656L247.61919409296513,40.212115177741424L247.75843409273625,35.934230584364656L248.38501409170627,53.04576895787167L248.73311409113407,44.489999771118164L248.78532909104825,44.489999771118164L249.0638090905905,40.212115177741424L249.34228909013274,48.767884364494904L250.5780440881014,44.489999771118164L250.73468908784392,40.212115177741424L250.7520940878153,40.212115177741424L251.27424408695697,57.32365355124841L251.60493908641337,40.212115177741424L251.65715408632755,53.04576895787167L252.04006408569813,48.767884364494904L252.8058840844393,40.212115177741424L253.17138908383845,53.04576895787167L253.2758190836668,48.767884364494904L253.3106290836096,57.32365355124841L253.67613408300875,48.767884364494904L254.05904408237933,53.04576895787167L254.56378908154963,48.767884364494904L255.36441908023357,40.212115177741424L255.64289907977582,40.212115177741424L255.85175907943247,57.32365355124841L256.8786540777445,53.04576895787167L257.15713407728674,44.489999771118164L257.6966890763998,44.489999771118164L257.83592907617094,44.489999771118164L258.2014340755701,35.934230584364656L258.63655907485486,44.489999771118164L258.7235840747118,48.767884364494904L258.94984907433985,40.212115177741424L259.17611407396794,44.489999771118164L259.2805440737963,44.489999771118164L260.01155407259466,53.04576895787167L260.028959072566,35.934230584364656L260.115984072423,44.489999771118164L260.3770590719938,48.767884364494904L261.3865490703344,40.212115177741424L261.68243406984806,48.767884364494904L262.1523690690756,35.934230584364656L262.169774069047,40.212115177741424L262.3090140688181,48.767884364494904L262.5178740684748,44.489999771118164L262.57008906838894,57.32365355124841L262.72673406813146,40.212115177741424L262.9878090677023,35.934230584364656L263.05742906758786,35.934230584364656L263.3533140671015,40.212115177741424L263.6666040665865,57.32365355124841L263.9798940660715,27.378461397611176L264.2409690656424,48.767884364494904L264.41501906535626,48.767884364494904L264.4672340652704,48.767884364494904L264.6760940649271,53.04576895787167L264.6934990648985,40.212115177741424L264.76311906478406,44.489999771118164L265.250459063983,35.934230584364656L265.7029890632391,53.04576895787167L266.27735406229493,44.489999771118164L266.5384290618658,48.767884364494904L267.1650090608358,48.767884364494904L267.2520340606928,44.489999771118164L268.0874740593195,40.212115177741424L268.15709405920506,48.767884364494904L268.50519405863287,53.04576895787167L269.35803905723094,53.04576895787167L269.81056905648705,53.04576895787167L269.86278405640127,35.934230584364656L270.5937940551996,48.767884364494904L270.87227405474187,44.489999771118164L271.4814490537405,48.767884364494904L271.74252405331134,53.04576895787167L271.88176405308246,48.767884364494904L271.9861940529108,48.767884364494904L272.56055905196666,40.212115177741424L272.8564440514803,40.212115177741424L272.90865905139447,44.489999771118164L272.9608740513086,48.767884364494904L273.1871390509367,48.767884364494904L273.6570740501642,40.212115177741424L273.9703640496492,35.934230584364656L274.09219904944894,53.04576895787167L274.2140340492487,35.934230584364656L274.59694404861926,61.60153814462515L274.96244904801847,35.934230584364656L275.1887140476465,40.212115177741424L275.7978890466452,35.934230584364656L276.19820404598715,57.32365355124841L276.2504190459013,44.489999771118164L276.47668404552934,48.767884364494904L276.5463040454149,48.767884364494904L276.65073404524327,35.934230584364656L277.39914904401303,53.04576895787167L277.41655404398443,48.767884364494904L277.74724904344083,53.04576895787167L277.799464043355,35.934230584364656L277.9387040431261,53.04576895787167L277.9561090430975,40.212115177741424L277.9735140430689,48.767884364494904L278.07794404289723,53.04576895787167L278.42604404232503,40.212115177741424L278.46085404226784,48.767884364494904L278.77414404175283,35.934230584364656" fill="none"></path></g><g><path style="fill: none;" stroke="rgb(0, 119, 187)" stroke-width="2px" d="M40.31346093373298,119.53654664660431L45.81692192468643,97.0552508510955L51.320382915639875,88.37736782457362L56.823843906593325,74.80232490754155L62.32730489754677,77.28896445493481L67.83076588850022,74.04110022710924L73.33422687945367,69.9812760618903L78.83768787040711,70.15889025834076L84.34114886136054,69.11856454870116L89.844609852314,69.04243718500751L95.34807084326745,69.905156857614L100.85153183422089,68.20510145971625L106.35499282517434,67.0125291821067L111.85845381612778,66.4543026454401L117.36191480708123,66.25131266109175L122.86537579803466,65.43934456428101L128.36883678898812,64.44976227101982L133.87229777994156,66.17518529739812L139.375758770895,65.16022721623904L144.87921976184845,65.18560300413692L150.3826807528019,64.11990150659943L155.88614174375536,64.37364306674353L161.3896027347088,64.90649381551228L166.89306372566224,63.967654938629494L172.39652471661566,64.65275225536818L177.89998570756913,63.561674969932795L183.40344669852257,64.39901069522406L188.90690768947601,63.637794174209105L194.41036868042946,64.6273764674703L199.91382967138293,63.81541653007692L205.41729066233634,64.551257263194L210.92075165328978,64.37364306674353L216.42421264424323,65.23635457993268L221.9276736351967,63.3079334097887L227.43113462615014,63.8915357343532L232.93459561710358,64.83036645181865L238.43805660805702,64.47513805891771L243.94151759901047,63.86615994645534L249.4449785899639,63.840784158557454L254.94843958091735,63.967654938629494L260.4519005718708,63.73928916638327L265.95536156282424,63.8915357343532L271.4588225537777,63.46017997775864L276.9622835447312,63.130319213338225L282.46574453568456,63.20643841761452" fill="none"></path></g></g></g></g></g></g><g transform="translate(51, 177)" clip-path="url(#clip_1)"><clipPath id="clip_1"><rect width="278" height="22"></rect></clipPath><g><g><line x1="0" y1="0" x2="0" y2="5" style="visibility: inherit;" fill="rgb(0, 0, 0)" stroke="rgb(204, 204, 204)" stroke-width="1px"></line><line x1="34.80999994277954" y1="0" x2="34.80999994277954" y2="5" style="visibility: inherit;" fill="rgb(0, 0, 0)" stroke="rgb(204, 204, 204)" stroke-width="1px"></line><line x1="69.61999988555908" y1="0" x2="69.61999988555908" y2="5" style="visibility: inherit;" fill="rgb(0, 0, 0)" stroke="rgb(204, 204, 204)" stroke-width="1px"></line><line x1="104.42999982833862" y1="0" x2="104.42999982833862" y2="5" style="visibility: inherit;" fill="rgb(0, 0, 0)" stroke="rgb(204, 204, 204)" stroke-width="1px"></line><line x1="139.23999977111816" y1="0" x2="139.23999977111816" y2="5" style="visibility: inherit;" fill="rgb(0, 0, 0)" stroke="rgb(204, 204, 204)" stroke-width="1px"></line><line x1="174.0499997138977" y1="0" x2="174.0499997138977" y2="5" style="visibility: inherit;" fill="rgb(0, 0, 0)" stroke="rgb(204, 204, 204)" stroke-width="1px"></line><line x1="208.85999965667725" y1="0" x2="208.85999965667725" y2="5" style="visibility: inherit;" fill="rgb(0, 0, 0)" stroke="rgb(204, 204, 204)" stroke-width="1px"></line><line x1="243.6699995994568" y1="0" x2="243.6699995994568" y2="5" style="visibility: inherit;" fill="rgb(0, 0, 0)" stroke="rgb(204, 204, 204)" stroke-width="1px"></line><line x1="278.4799995422363" y1="0" x2="278.4799995422363" y2="5" style="visibility: inherit;" fill="rgb(0, 0, 0)" stroke="rgb(204, 204, 204)" stroke-width="1px"></line></g><g transform="translate(0, 8)"><text style="text-anchor: middle; visibility: hidden; font-family: &quot;Helvetica Neue&quot;, sans-serif; font-size: 12px; font-weight: 200;" x="0" y="0" dx="0em" dy="0.95em" fill="rgb(50, 49, 63)" stroke="none" stroke-width="1px">-20k</text><text style="text-anchor: middle; visibility: hidden; font-family: &quot;Helvetica Neue&quot;, sans-serif; font-size: 12px; font-weight: 200;" x="34.80999994277954" y="0" dx="0em" dy="0.95em" fill="rgb(50, 49, 63)" stroke="none" stroke-width="1px">0</text><text style="text-anchor: middle; visibility: hidden; font-family: &quot;Helvetica Neue&quot;, sans-serif; font-size: 12px; font-weight: 200;" x="69.61999988555908" y="0" dx="0em" dy="0.95em" fill="rgb(50, 49, 63)" stroke="none" stroke-width="1px">20k</text><text style="text-anchor: middle; visibility: hidden; font-family: &quot;Helvetica Neue&quot;, sans-serif; font-size: 12px; font-weight: 200;" x="104.42999982833862" y="0" dx="0em" dy="0.95em" fill="rgb(50, 49, 63)" stroke="none" stroke-width="1px">40k</text><text style="text-anchor: middle; visibility: hidden; font-family: &quot;Helvetica Neue&quot;, sans-serif; font-size: 12px; font-weight: 200;" x="139.23999977111816" y="0" dx="0em" dy="0.95em" fill="rgb(50, 49, 63)" stroke="none" stroke-width="1px">60k</text><text style="text-anchor: middle; visibility: hidden; font-family: &quot;Helvetica Neue&quot;, sans-serif; font-size: 12px; font-weight: 200;" x="174.0499997138977" y="0" dx="0em" dy="0.95em" fill="rgb(50, 49, 63)" stroke="none" stroke-width="1px">80k</text><text style="text-anchor: middle; visibility: hidden; font-family: &quot;Helvetica Neue&quot;, sans-serif; font-size: 12px; font-weight: 200;" x="208.85999965667725" y="0" dx="0em" dy="0.95em" fill="rgb(50, 49, 63)" stroke="none" stroke-width="1px">100k</text><text style="text-anchor: middle; visibility: hidden; font-family: &quot;Helvetica Neue&quot;, sans-serif; font-size: 12px; font-weight: 200;" x="243.6699995994568" y="0" dx="0em" dy="0.95em" fill="rgb(50, 49, 63)" stroke="none" stroke-width="1px">120k</text><text style="text-anchor: middle; visibility: hidden; font-family: &quot;Helvetica Neue&quot;, sans-serif; font-size: 12px; font-weight: 200;" x="278.4799995422363" y="0" dx="0em" dy="0.95em" fill="rgb(50, 49, 63)" stroke="none" stroke-width="1px">140k</text></g><line x1="0" y1="0" x2="278.4799995422363" y2="0" fill="rgb(0, 0, 0)" stroke="rgb(204, 204, 204)" stroke-width="1px"></line></g></g></g></g></svg>