<svg viewBox="0 0 330 200" xmlns="http://www.w3.org/2000/svg"><g><g><g><g><g><line x1="51.28000259399414" y1="177.95999908447266" x2="46.28000259399414" y2="177.95999908447266" style="visibility: inherit;" fill="rgb(0, 0, 0)" stroke="rgb(204, 204, 204)" stroke-width="1px"></line><line x1="51.28000259399414" y1="152.53714207240515" x2="46.28000259399414" y2="152.53714207240515" style="visibility: inherit;" fill="rgb(0, 0, 0)" stroke="rgb(204, 204, 204)" stroke-width="1px"></line><line x1="51.28000259399414" y1="127.11428506033761" x2="46.28000259399414" y2="127.11428506033761" style="visibility: inherit;" fill="rgb(0, 0, 0)" stroke="rgb(204, 204, 204)" stroke-width="1px"></line><line x1="51.28000259399414" y1="101.6914280482701" x2="46.28000259399414" y2="101.6914280482701" style="visibility: inherit;" fill="rgb(0, 0, 0)" stroke="rgb(204, 204, 204)" stroke-width="1px"></line><line x1="51.28000259399414" y1="76.26857103620257" x2="46.28000259399414" y2="76.26857103620257" style="visibility: inherit;" fill="rgb(0, 0, 0)" stroke="rgb(204, 204, 204)" stroke-width="1px"></line><line x1="51.28000259399414" y1="50.84571402413505" x2="46.28000259399414" y2="50.84571402413505" style="visibility: inherit;" fill="rgb(0, 0, 0)" stroke="rgb(204, 204, 204)" stroke-width="1px"></line><line x1="51.28000259399414" y1="25.42285701206754" x2="46.28000259399414" y2="25.42285701206754" style="visibility: inherit;" fill="rgb(0, 0, 0)" stroke="rgb(204, 204, 204)" stroke-width="1px"></line><line x1="51.28000259399414" y1="0" x2="46.28000259399414" y2="0" style="visibility: inherit;" fill="rgb(0, 0, 0)" stroke="rgb(204, 204, 204)" stroke-width="1px"></line></g><g transform="translate(41.28000259399414, 0)"><text style="text-anchor: end; visibility: hidden; font-family: &quot;Helvetica Neue&quot;, sans-serif; font-size: 12px; font-weight: 200;" x="0" y="177.95999908447266" dx="0em" dy="0.3em" fill="rgb(50, 49, 63)" stroke="none" stroke-width="1px">-0.5</text><text style="text-anchor: end; visibility: inherit; font-family: &quot;Helvetica Neue&quot;, sans-serif; font-size: 12px; font-weight: 200;" x="0" y="152.53714207240515" dx="0em" dy="0.3em" fill="rgb(50, 49, 63)" stroke="none" stroke-width="1px">0</text><text style="text-anchor: end; visibility: hidden; font-family: &quot;Helvetica Neue&quot;, sans-serif; font-size: 12px; font-weight: 200;" x="0" y="127.11428506033761" dx="0em" dy="0.3em" fill="rgb(50, 49, 63)" stroke="none" stroke-width="1px">0.5</text><text style="text-anchor: end; visibility: inherit; font-family: &quot;Helvetica Neue&quot;, sans-serif; font-size: 12px; font-weight: 200;" x="0" y="101.6914280482701" dx="0em" dy="0.3em" fill="rgb(50, 49, 63)" stroke="none" stroke-width="1px">1</text><text style="text-anchor: end; visibility: hidden; font-family: &quot;Helvetica Neue&quot;, sans-serif; font-size: 12px; font-weight: 200;" x="0" y="76.26857103620257" dx="0em" dy="0.3em" fill="rgb(50, 49, 63)" stroke="none" stroke-width="1px">1.5</text><text style="text-anchor: end; visibility: inherit; font-family: &quot;Helvetica Neue&quot;, sans-serif; font-size: 12px; font-weight: 200;" x="0" y="50.84571402413505" dx="0em" dy="0.3em" fill="rgb(50, 49, 63)" stroke="none" stroke-width="1px">2</text><text style="text-anchor: end; visibility: hidden; font-family: &quot;Helvetica Neue&quot;, sans-serif; font-size: 12px; font-weight: 200;" x="0" y="25.42285701206754" dx="0em" dy="0.3em" fill="rgb(50, 49, 63)" stroke="none" stroke-width="1px">2.5</text><text style="text-anchor: end; visibility: hidden; font-family: &quot;Helvetica Neue&quot;, sans-serif; font-size: 12px; font-weight: 200;" x="0" y="0" dx="0em" dy="0.3em" fill="rgb(50, 49, 63)" stroke="none" stroke-width="1px">3</text></g><line x1="51.28000259399414" y1="0" x2="51.28000259399414" y2="177.95999908447266" fill="rgb(0, 0, 0)" stroke="rgb(204, 204, 204)" stroke-width="1px"></line></g></g><g transform="translate(51, 0)" clip-path="url(#clip_0)"><clipPath id="clip_0"><rect width="278" height="177"></rect></clipPath><g><g><g><line x1="0" y1="0" x2="0" y2="177.95999908447266" fill="rgb(0, 0, 0)" stroke="rgb(60, 60, 60)" stroke-width="1px" opacity="0.25"></line><line x1="27.871999740600586" y1="0" x2="27.871999740600586" y2="177.95999908447266" fill="rgb(0, 0, 0)" stroke="rgb(60, 60, 60)" stroke-width="1px" opacity="0.25"></line><line x1="55.74399948120117" y1="0" x2="55.74399948120117" y2="177.95999908447266" fill="rgb(0, 0, 0)" stroke="rgb(60, 60, 60)" stroke-width="1px" opacity="0.25"></line><line x1="83.61599922180176" y1="0" x2="83.61599922180176" y2="177.95999908447266" fill="rgb(0, 0, 0)" stroke="rgb(60, 60, 60)" stroke-width="1px" opacity="0.25"></line><line x1="111.48799896240234" y1="0" x2="111.48799896240234" y2="177.95999908447266" fill="rgb(0, 0, 0)" stroke="rgb(60, 60, 60)" stroke-width="1px" opacity="0.25"></line><line x1="139.35999870300293" y1="0" x2="139.35999870300293" y2="177.95999908447266" fill="rgb(0, 0, 0)" stroke="rgb(60, 60, 60)" stroke-width="1px" opacity="0.25"></line><line x1="167.23199844360352" y1="0" x2="167.23199844360352" y2="177.95999908447266" fill="rgb(0, 0, 0)" stroke="rgb(60, 60, 60)" stroke-width="1px" opacity="0.25"></line><line x1="195.1039981842041" y1="0" x2="195.1039981842041" y2="177.95999908447266" fill="rgb(0, 0, 0)" stroke="rgb(60, 60, 60)" stroke-width="1px" opacity="0.25"></line><line x1="222.9759979248047" y1="0" x2="222.9759979248047" y2="177.95999908447266" fill="rgb(0, 0, 0)" stroke="rgb(60, 60, 60)" stroke-width="1px" opacity="0.25"></line><line x1="250.84799766540527" y1="0" x2="250.84799766540527" y2="177.95999908447266" fill="rgb(0, 0, 0)" stroke="rgb(60, 60, 60)" stroke-width="1px" opacity="0.25"></line><line x1="278.71999740600586" y1="0" x2="278.71999740600586" y2="177.95999908447266" fill="rgb(0, 0, 0)" stroke="rgb(60, 60, 60)" stroke-width="1px" opacity="0.25"></line></g><g><line x1="0" y1="177.95999908447266" x2="278.71999740600586" y2="177.95999908447266" fill="rgb(0, 0, 0)" stroke="rgb(60, 60, 60)" stroke-width="1px" opacity="0.25"></line><line x1="0" y1="152.53714207240515" x2="278.71999740600586" y2="152.53714207240515" fill="rgb(0, 0, 0)" stroke="rgb(60, 60, 60)" stroke-width="1px" opacity="0.25"></line><line x1="0" y1="127.11428506033761" x2="278.71999740600586" y2="127.11428506033761" fill="rgb(0, 0, 0)" stroke="rgb(60, 60, 60)" stroke-width="1px" opacity="0.25"></line><line x1="0" y1="101.6914280482701" x2="278.71999740600586" y2="101.6914280482701" fill="rgb(0, 0, 0)" stroke="rgb(60, 60, 60)" stroke-width="1px" opacity="0.25"></line><line x1="0" y1="76.26857103620257" x2="278.71999740600586" y2="76.26857103620257" fill="rgb(0, 0, 0)" stroke="rgb(60, 60, 60)" stroke-width="1px" opacity="0.25"></line><line x1="0" y1="50.84571402413505" x2="278.71999740600586" y2="50.84571402413505" fill="rgb(0, 0, 0)" stroke="rgb(60, 60, 60)" stroke-width="1px" opacity="0.25"></line><line x1="0" y1="25.42285701206754" x2="278.71999740600586" y2="25.42285701206754" fill="rgb(0, 0, 0)" stroke="rgb(60, 60, 60)" stroke-width="1px" opacity="0.25"></line><line x1="0" y1="0" x2="278.71999740600586" y2="0" fill="rgb(0, 0, 0)" stroke="rgb(60, 60, 60)" stroke-width="1px" opacity="0.25"></line></g></g></g><g><g><line x1="0" y1="152.53714207240515" x2="278.71999740600586" y2="152.53714207240515" fill="rgb(0, 0, 0)" stroke="rgb(153, 153, 153)" stroke-width="1.5px"></line></g></g><g><g><line x1="27.871999740600586" y1="0" x2="27.871999740600586" y2="177.95999908447266" fill="rgb(0, 0, 0)" stroke="rgb(153, 153, 153)" stroke-width="1.5px"></line></g></g><g><g><g><g><g><path style="fill: none;" stroke="rgb(0, 153, 136)" stroke-width="2px" d="M28.13539013814926,44.15769607714901L28.469854135036467,46.89323725145212L28.51166213464737,49.64377403605147L28.664958133220676,54.74448784321066L28.87399813127518,34.299167276766525L29.194526128292086,41.531136743236345L30.044622120380403,73.39001392619242L30.086430119991302,64.15434846843293L30.211854118824007,71.0377821292225L31.075886110782623,72.61169083705474L31.145566110134123,52.32297559931847L31.438222107410432,69.76591313710196L31.507902106761936,72.06409648742218L31.605454105854033,73.222843783925L31.68907010507584,66.61842303063557L32.17683010053635,76.36355131645385L32.20470210027695,89.40108888681945L32.31619009923935,68.90243510493617L32.72033409547806,81.56028794427299L32.999054092884066,62.500418722956965L33.751598085880275,89.70021918743727L33.76553408575058,82.34626643187637L34.04425408315659,91.89731248580912L34.29510208082199,86.52299243419917L34.49020607900619,71.70985095462025L35.35423807096482,80.37407092025907L35.73051006746292,75.66587963823024L35.95348606538773,96.05296341254585L36.051038064479826,98.93078710750109L36.06497406435013,82.93287118889228L36.524862060070035,90.1388074515536L36.71996605825424,66.30003603886533L36.831454057216646,98.80325168460591L36.90113405656815,104.5691274869557L36.929006056308744,83.59034444856921L37.09623805475235,81.12220882779808L37.23559805345535,85.90408104707863L37.834846047878266,92.65997928497303L37.94633404684066,87.50664143230382L38.05782204580307,96.31439860385399L38.42015804243088,82.0404202314169L38.54558204126358,62.42443449875593L38.60132604074478,97.6449468616486L38.62919804048538,110.55856153286055L38.824302038669586,70.74741644157491L38.85217403841018,104.2875779331706L38.94972603750229,100.55391342067092L39.06121403646469,91.66625037582448L39.14483003568649,109.3040278056742L39.5350380320549,85.7003977453834L40.552366022586824,86.53442401100541L41.012254018306734,95.76518589207548L41.05406201791764,87.73521235561437L41.290974015712735,116.73572255705534L41.41639801454544,96.99154678310308L41.43033401441574,101.5033707301414L41.51395001363754,78.62377892236223L41.59756601285934,96.1411489962967L41.84841401052475,89.04030929261924L41.89022201013565,96.91113176216537L42.01564600896835,85.39966726646396L42.69851000261307,114.76382707886958L42.74031800222397,111.44427840664997L42.82393400144577,97.10912958186469L42.90755000066757,94.68855077531511L43.11658999872208,93.15850150002267L43.200205997943876,103.80263298855893L43.269885997295376,88.38240568195968L43.994557990551,82.34139922287561L44.0642379899025,107.55256294981766L44.0781739897728,93.08656621182723L44.329021987438196,90.14600219262944L44.510189985752106,97.3836086508436L44.69135798406601,92.50696829616234L45.22092597913742,96.14694358135863L45.457837976932524,105.41699771939926L45.73655797433853,95.78880064458723L46.22431796979904,112.1020062401476L46.26612596940994,101.42882302964296L46.46122996759415,96.28654701561183L46.516973967075344,91.73873724063145L47.18590196084976,100.19827985441796L47.28345395994186,114.68123908853366L47.59004595708847,99.52638680618215L47.757277955532075,97.04104320738719L47.896637954235075,102.25982471582367L48.31471795034408,97.24522353416094L48.46801394891739,102.56163713348113L48.57950194787979,103.70366741575721L48.66311794710159,109.77326190877908L49.1090699429512,107.2307392114678L49.51321393918991,104.4751200423764L49.736189937114716,106.82353929331708L49.959165935039515,86.19378605504868L50.014909934520716,109.60738888074098L50.25182193231583,103.57441665021295L50.73958192777634,82.97857931227294L50.85106992673874,106.64104623155539L51.32489392232895,116.03641736348214L51.450317921161655,110.7120846999534L51.533933920383454,99.47087759070408L51.603613919734954,103.17775123921456L51.70116591882706,92.77969565480349L51.82658991765976,105.40623894483348L52.02169391584397,114.55071545388586L52.049565915584566,90.20434202654256L52.09137391519547,116.76988393928228L52.21679791402817,110.4037291289755L52.704557909488685,109.69995374033624L53.03902190637588,110.25099998975202L53.331677903652185,109.61268341008366L53.582525901317595,109.49595828264657L53.707949900150304,107.26764938483029L53.8891178984642,90.90980851270511L53.9309258980751,97.37309232753563L54.04241389703751,104.66251061954608L54.59985389184952,91.86952757166286L54.836765889644624,116.2312602861891L54.976125888347624,113.7613729550802L55.01793388795852,120.98515666095786L55.29665388536453,114.31485583963708L55.51962988328934,100.79782544732006L55.77047788095474,92.90393980187375L55.93770987939835,89.76019556734069L56.17462187719345,116.50763653626043L56.25823787641525,117.97875803333955L56.77386987161636,95.91941519845672L56.815677871227265,107.7528792096699L56.829613871097564,107.73134347669397L56.94110187005997,103.17875135065307L56.99684586954117,108.40559133277137L57.09439786863327,113.11845889343542L57.83300586175919,109.01803230194881L57.93055786085129,111.39841268995173L58.055981859683996,129.33415968502243L58.36257385683059,103.85115354653031L58.4183178563118,95.91833022907798L58.5298058552742,80.2156956973691L58.6412938542366,101.69881675035218L58.6970378537178,100.65408215783958L58.97575785112381,114.725092459792L59.04543785047531,114.74655242674986L59.05937385034561,109.94651454697708L59.129053849697115,102.84638704386947L59.29628584814071,119.85984036226779L59.338093847751615,107.65631087367989L59.40777384710312,92.86780244189555L59.672557844638824,106.5687957567248L59.89553384256363,114.21735406630445L60.03489384126663,118.04544728244387L60.202125839710234,113.19995888375186L60.56446183633804,120.87799926628253L60.68988583517074,106.45683782714462L61.177645830631256,106.77720988858826L61.191581830501555,112.4384437280626L61.21945383024216,107.75088504807432L61.83263782453537,114.79929769788876L61.94412582349777,105.68607618661021L62.06954982233047,125.19334374462363L62.09742182207108,125.46094628980258L62.16710182142258,110.2525819842093L62.515501818180084,128.86381182145195L62.52943781805038,98.8466868274445L62.66879781675338,110.24109282522932L62.69666981649399,104.65603717096226L62.766349815845494,106.37554088975659L62.961453814029696,115.37888046035005L63.045069813251494,113.5029380980876L63.1704938120842,120.26675540019056L63.3795338101387,101.17489170476438L63.46314980936051,96.26079263074982L64.11814180326462,125.10375194357741L64.20175780248641,101.38295125166327L64.43866980028153,104.194994889731L64.52228579950332,118.30338208371722L65.30270179224014,117.36318035101405L65.37238179159165,113.69790224642344L65.55354978990555,118.55047022184382L66.06918178510666,96.38123635435373L66.26428578329087,115.03161146249191L66.75204577875138,113.16814927872578L67.90873376798629,107.46248321561507L68.15958176565171,113.73028161190541L68.2431977648735,124.45589490691378L68.57766176176071,117.6906501730304L69.23265375566483,96.4895029635336L69.34414175462723,112.52150146771055L69.84583774995804,125.7492632643216L70.06881374788284,111.69833095715745L70.11062174749375,110.76005671195395L70.22210974645614,112.60417734662744L70.26391774606705,124.74412399285185L70.65412574243547,132.366539995557L71.07220573854447,119.60655759450388L71.85262173128127,134.96640544598358L71.93623773050308,135.03972270634858L72.15921372842789,104.19116719049816L72.41006172609329,108.96791459631653L72.42399772596359,112.15987026346725L72.89782172155381,122.73823381767892L73.0371817202568,108.89610053375003L73.0789897198677,129.26460193447403L73.092925719738,115.4256917369538L73.1207977194786,107.6566745505666L73.1347337193489,121.3880591305637L73.48313371610642,97.78350169421174L73.94302171182632,108.41126166156366L74.50046170663833,106.23160363926985L74.93247770261765,127.93260654573429L75.30874969911576,112.4274182571132L75.37842969846726,114.08740019211251L75.68502169561386,109.52460086811737L75.94980569314956,99.36322317095022L76.15884569120408,130.36451843326665L76.38182168912887,120.42311524699991L76.78596568536759,102.17316657499708L76.82777368497848,127.47670120052811L77.17617368173599,104.960852953576L77.7754216761589,98.85821538475388L78.05414167356491,122.43074500994771L78.30498967123032,101.56352894848818L78.33286167097091,121.92654337418364L78.36073367071151,122.95100904154242L78.44434966993332,113.32692757683188L78.83455766630173,115.64046718369433L79.02966166448593,116.68798693503115L79.81007765722275,128.57858761579052L79.86582165670394,115.93357560119603L80.01911765527726,100.7729014580161L80.45113365125655,121.31010802053359L80.56262165021896,116.33181694537026L80.74378964853287,118.81932442164128L80.81346964788438,114.08783054309515L81.03644564580917,121.92579783656583L81.10612564516067,116.66849688454307L81.13399764490127,108.38815605669333L81.27335764360427,116.05608925241359L81.3291016430855,132.5226331459827L81.73324563932418,132.47924194743462L81.90047763776779,116.716902278167L82.6251496310234,120.1559582060072L82.77844562959672,117.98055823392886L83.01535762739182,126.08917689714559L83.40556562376022,126.74920195631108L83.76790162038803,136.7897722529876L83.93513361883163,120.1998994658465L84.08842961740494,130.26021741747252L84.13023761701584,123.74366100001731L84.92458960962296,127.85674960844361L84.99426960897446,124.77503046694255L85.14756560754776,127.61471809436294L86.16489359807969,102.65808727448297L86.31818959665299,119.26745011211213L86.33212559652328,120.4908106688242L86.35999759626388,125.20302967237356L86.42967759561539,118.71664631395419L86.44361359548569,132.23077941374024L86.7920135922432,120.64157595285931L86.8616935915947,119.37371346777425L86.9035015912056,136.59246693469342L87.014989590168,123.89548094702397L87.293709587574,130.15369948798968L87.3355175871849,113.92578521428992L87.3494535870552,119.68740902770566L87.55849358510972,117.03334965987466L87.86508558225631,115.76126852290352L88.04625358057021,122.2777855420293L88.07412558031083,120.12417284610689L88.25529357862473,107.87144696666643L88.77092557382583,115.69495507324882L89.10538957071304,130.23954087114146L89.20294156980515,129.45826896858054L89.28655756902694,126.63779560334245L89.62102156591416,134.57212363391363L89.66282956552506,126.47809295981591L90.48505355787277,118.78555399206756L90.72196555566786,123.48822344669952L91.01462155294418,128.9270234103269L91.05642955255509,111.57369888807469L91.6835495467186,127.94572164346204L91.7253575463295,119.90348461931626L91.9483335442543,116.82282014078672L92.38034954023361,116.95041920713707L92.77055753660203,104.63415291430323L92.88204553556443,120.33275063256939L92.93778953504562,130.03227080615085L93.04927753400803,116.77234481954916L93.20257353258133,107.44615412340085L93.56490952920915,125.38170109618386L93.63458952856064,133.74307064971765L93.85756552648544,116.80420291482682L94.08054152441024,135.73718527036232L94.19202952337265,123.85658267334735L94.31745352220535,120.09633944170906L94.44287752103806,116.47949097586817L94.59617351961136,129.22458838501143L94.61010951948165,118.60104555422524L94.77734151792527,122.82592843763268L94.80521351766586,119.21414417243952L95.33478151273727,114.55323088568574L95.50201351118088,105.4784409294125L95.76679750871658,121.7356705908235L96.0873255057335,121.29203327926305L96.3660455031395,126.48535740562835L97.0349734969139,100.78421180919344L97.16039749574661,106.21443505957541L97.20220549535752,120.4418355147444L97.94081348848343,123.88632235075978L97.98262148809432,131.59464944135334L98.26134148550034,118.73131461505233L98.28921348524094,118.59214153178176L98.30314948511123,120.3404090616758L98.65154948186874,122.33638298040387L99.04175747823716,131.8896429173846L99.32047747564316,118.47094014799717L99.43196547460555,123.19368456677668L99.86398147058486,132.28368227819672L100.10089346837997,106.25025117163699L100.35174146604538,100.63763790127788L100.46322946500779,99.34760930994656L100.8952454609871,126.62134831614003L101.59204545450211,130.2670090833322L101.99618945074081,125.90677172396487L102.14948544931413,131.4181464409802L102.37246144723892,118.44366438149233L102.56756544542313,121.91080222626962L102.86022144269944,131.33078216086517L103.41766143751144,116.52498998503896L103.72425343465805,102.37067949218077L103.79393343400955,114.39903188571174L104.30956542921066,137.1283827103008L104.46286142778396,126.98029437270296L104.74158142518996,120.06392370853843L104.76945342493056,117.07738183893565L105.21540542078019,118.72848399661729L105.5498694176674,116.51354628566982L105.71710141611099,120.9127516234504L105.74497341585159,139.7474866680355L105.8285894150734,122.27202732465607L106.34422141027451,132.4735640420405L106.7344294066429,123.70165631959986L106.76230140638351,132.10820818034892L106.81804540586472,120.31384852638153L107.02708540391922,131.78343865921659L107.59846139860154,123.9283209698958L107.64026939821244,117.52477714499231L108.37887739133835,131.0648010084729L108.42068539094925,116.05619229419815L108.56004538965225,119.23563141516388L108.81089338731765,127.47543136206527L108.82482938718796,138.00727458118257L109.06174138498307,122.72680224087266L109.10354938459396,117.36022850695008L109.57737338018418,123.67922351697001L109.60524537992478,138.74066539096464L109.70279737901687,130.47315932657577L110.20449337434769,83.51705143333L110.49714937162399,129.70480249945487L110.83161336851121,129.6295880579974L110.9012933678627,129.87138924338316L110.98490936708451,112.74747513192168L111.3611813635826,118.15465642088851L111.63990136098862,102.74940654074115L111.70958136034012,121.7401832148597L111.91862135839462,131.94188055620245L111.98830135774612,131.28927905148737L112.58754935216903,135.3853839493033L112.93594934892656,124.5973773384151L112.96382134866715,133.40148107257397L113.18679734659194,134.14812638955704L113.21466934633254,124.84938117579401L113.29828534555435,124.36402709468479L113.32615734529494,133.27532610652804L113.57700534296036,140.26903266065594L113.89753333997726,127.48435053771234L114.02295733880996,134.60391960105648L114.28774133634568,142.0554014057165L114.44103733491897,117.41093112624185L114.46890933465957,123.80430715152046L114.55252533388138,121.2621329778923L114.73369333219527,121.33892032188487L114.98454132986069,119.33755489331101L115.5280453248024,126.49904680977306L115.8485733218193,139.3949625391641L115.90431732130051,132.36545805681897L115.91825332117081,116.17523586178817L116.25271731805802,125.63725684448985L116.40601331663132,128.26857428433726L116.55930931520462,129.06008823722075L116.65686131429672,129.79500497460674L116.74047731351853,109.15615981417002L117.07494131040573,123.66605841367033L117.89716530275345,121.51106071493763L118.39886129808426,128.5073569515631L118.41279729795455,108.5357300760474L118.46854129743576,127.9011151579841L118.74726129484176,133.8926736830356L118.76119729471206,136.61376021641152L118.77513329458236,122.20104668828832L118.88662129354478,106.52112074751507L119.49980528783797,124.31767041418945L119.59735728693009,131.49314267630558L119.63916528654099,116.99284514661498L119.90394928407669,129.28027640829214L120.6564932770729,124.17964291311208L120.7819172759056,123.81478104585833L120.80978927564621,119.10501080001293L120.86553327512742,131.8269889664026L120.94914927434922,136.5540232571252L120.99095727396012,125.13174294129281L121.08850927305222,127.47898327299234L121.19999727201461,125.36182918496473L121.24180527162552,102.464053532849L121.40903727006912,134.5168992986635L121.78530926656722,131.61705345289636L121.84105326604843,127.42306189037598L121.99434926462173,127.21957558032773L122.14764526319503,137.03316907071388L123.09529325437546,134.18948099753945L123.29039725255966,134.46303420577755L123.40188525152206,133.21548913609786L123.59698924970627,136.05096871887469L123.61092524957657,131.62419061179844L123.97326124620437,137.19835111266718L124.16836524438857,118.28791975474971L124.51676524114609,133.42196668853947L124.9209092373848,94.38764451923375L124.9627172369957,131.84128601401224L125.3250532336235,127.03150007835471L125.5759012312889,126.43283943254366L125.63164523077012,130.84717372881227L125.98004522752761,123.75612602531004L126.70471722078324,134.1594034036864L126.91375721883774,122.77123143386831L127.02524521780015,121.88678742918248L127.03918121767045,120.67014277231205L127.34577321481704,124.76290184277008L127.59662121248246,117.77974797963881L128.15406120729446,117.9842919832993L128.44671720457077,134.25002713789874L128.75330920171737,128.44045252696748L128.87873320055007,130.28928429264448L129.617341193676,112.90493510131338L129.7706371922493,129.19158925350166L130.0214851899147,128.3719403474684L130.1608451886177,129.90425654202147L130.174781188488,104.52945033861332L130.4395651860237,124.86550418443909L130.76009318304062,125.85551146678011L131.0248771805763,126.0976202621992L131.44295717668533,127.25671456706479L131.56838117551803,128.42561450998886L131.61018917512894,130.11031586604338L131.70774117422104,129.6697910225052L131.84710117292403,133.7542082543738L131.88890917253494,130.76194453508646L131.95858917188644,125.09680571504083L132.09794917058946,118.78582978037333L132.43241316747665,134.21440347152304L132.55783716630935,133.1761377816332L132.82262116384507,126.11000042955169L133.05953316164016,116.83020278158736L133.9235651535988,113.72667818008605L134.41132514905928,118.74372205817131L134.6482371468544,142.154705652619L134.7875971455574,126.93659859476222L134.85727714490892,132.22535153620578L135.01057314348222,139.85917562825153L135.094189142704,127.2721026453346L135.19174114179611,132.24100631085918L135.44258913946152,136.27710452236448L135.51226913881302,126.21994904433268L135.58194913816453,138.018895573034L135.8327971358299,126.99383527545226L135.98609313440323,124.97146447602894L136.02790113401414,132.91451317527986L136.30662113142014,114.78471728537157L136.41810913038253,134.52457591161425L136.55746912908555,136.05680876354745L137.04522912454604,130.96166072807557L137.11490912389755,143.29013823004163L137.9650051159859,129.10829512387733L137.97894111585617,124.27559299839464L138.42489311170579,133.96474383474322L139.0241411061287,133.36405417496826L139.13562910509108,119.91587690923163L139.2471171040535,134.3133841975284L139.26105310392379,130.72705125312496L139.73487709951402,120.86990442491202L139.8881730980873,117.30002785963319L140.05540509653093,127.92861670722277L140.29231709432602,122.09818371151712L141.12847708654405,129.22094252422195L141.46294108343125,134.6752230006612L141.88102107954023,123.16550263869573L141.93676507902143,132.4824710951247L142.13186907720566,116.19054059743809L142.36878107500075,127.7467585646925L142.45239707422255,130.42531914744666L143.03770906877517,127.08121470877086L143.26068506669998,135.22045799649106L143.4139810652733,103.96586329788676L143.53940506410598,122.81521815331845L143.6508930630684,139.5600900295844L143.9296130604744,141.22892295081454L143.95748506021502,133.92393171145017L143.9992930598259,134.7863793257702L144.0271650595665,130.93373488913574L144.1107810587883,132.6436981509348L144.3895010561943,137.1330711114989L144.4313090558052,93.80253689873487L144.5009890551567,124.6856993009985L144.6264130539894,125.73999859563213L145.60193304491045,131.1936032391902L145.88065304231645,129.17589659583922L145.89458904218674,130.68552844458242L145.92246104192733,136.3246007237716L146.11756504011154,134.58106099340506L146.17330903959277,136.64709877968224L146.29873303842544,130.0255836973961L146.31266903829575,118.61529562690365L146.38234903764723,128.46902995366275L146.45202903699877,123.00084186694676L146.66106903505323,117.90094936342342L147.09308503103256,134.00860478260336L147.26031702947614,136.05056564365856L147.35786902856827,133.2411041114866L147.42754902791978,132.35447501483966L147.622653026104,137.3312628922045L147.74807702493666,130.18175261383988L148.11041302156448,124.84380176622341L148.2079650206566,126.07371456817808L148.2219010205269,130.3372032684324L148.34732501935957,128.65007436915897L148.876893014431,128.40809134532986L148.98838101339342,120.76266217229646L149.0023170132637,123.45975360774992L149.0580610127449,143.57567762233822L149.5040130085945,132.02280169414087L150.15900500249865,137.1962387560834L150.21474900197984,126.51969759565795L150.53527699899672,138.91437110995068L150.78612499666215,133.13893212080023L150.82793299627303,120.67444022085692L151.12058899354935,135.3992339774063L151.27388499212265,139.91495835905482L151.60834898900987,133.69844901103613L151.70590098810194,120.93000203044436L151.94281298589706,136.9634097825574L151.97068498563766,127.68793988954518L152.01249298524854,134.1357795592525L152.30514898252486,136.00488025008332L152.33302098226545,136.47959829757605L152.402700981617,131.52586298886888L152.55599698019026,127.68378942707535L152.7232289786339,130.65139130748128L152.960140976429,131.51606189677148L153.2109889740944,127.81441458818739L153.29460497331618,119.53604973808888L153.4339649720192,136.7241528200584L153.6848129696846,120.02587704490492L153.69874896955488,134.40054845535568L154.07502096605302,116.93512659405002L154.1865089650154,116.99180563684708L154.32586896371842,136.6920962178134L154.47916496229172,135.0005440984051L154.77182095956803,133.7845070849996L155.02266895723344,124.70327701719049L155.46862095308305,119.02746579583969L155.56617295217515,122.1624423867618L156.29084494543076,141.86907382578033L156.31871694517136,127.40206258080798L156.45807694387435,134.92486748423744L156.55562894296648,118.75730538989072L156.93190093946458,133.18657985424346L157.22455693674087,126.73541557166325L157.36391693544385,132.1174970941642L157.5868929333687,127.92577548154519L157.61476493310929,142.33264972265582L157.7123169322014,132.34095987253653L158.158268928051,122.86750276706749L158.22794892740248,133.22902246224533L158.3812449259758,135.7305633203831L158.45092492532729,125.46050684689777L159.0501729197502,136.97184860164992L159.09198091936113,140.64225076204252L159.37070091676713,129.8167195153853L159.45431691598893,124.50680664041543L159.46825291585924,137.2199383665354L159.83058891248703,133.97566020262659L159.92814091157913,144.36002714055314L160.80610890340807,132.03062074720557L160.93153290224075,131.614657731405L161.02908490133285,122.70059325990223L161.07089290094376,135.28458029290323L161.16844490003587,140.1506262852779L161.21025289964675,99.44601421421456L161.51684489679337,124.29442539984588L161.67014089536667,131.97340831164132L161.82343689393997,117.03521653455988L161.99066889238358,124.28033898176649L162.00460489225387,134.49135705865208L162.04641289186478,130.49768630194507L162.38087688875197,133.03548877633062L162.4644928879738,132.95886054097602L162.7850208849907,122.41382191215183L162.9243808836937,130.94933056629503L163.0358688826561,132.40348350596742L163.88596487474442,131.88980960262435L164.01138887357712,125.59903743433512L164.1368128724098,128.243112356305L164.6245728678703,131.2645065942195L165.01478086423876,142.28416325939259L165.05658886384964,135.28261795303524L165.61402885866167,123.21803273434332L165.94849285554886,129.2071879613017L166.85433284711837,112.28856339111852L167.43964484167097,115.29524689896476L167.9413408370018,118.37814799034771L168.01102083635328,131.03845110270888L168.0249568362236,133.80218178169474L168.0528288359642,130.4205928632395L168.2479328341484,124.76700533030868L168.415164832592,141.84540831003648L168.73569282960892,123.75428036510988L168.8193088288307,111.66059644951838L169.02834882688524,127.8185301982889L169.11196482610703,141.4939426324375L169.25132482481004,131.31839896287198L169.58578882169724,132.74514884912918L169.82270081949235,136.41472137162393L170.12929281663895,136.12533003496867L170.56130881261825,117.41096749393051L170.65886081171035,125.19559854132136L170.81215681028365,120.22711158889615L171.09087680768965,138.39517386389036L171.1884288067818,135.88056336763572L171.25810880613327,143.1610549073973L171.8434208006859,143.72582010970484L172.3451167960167,128.58038630105946L172.7353247923851,141.91780046732086L172.76319679212568,126.42096841283261L172.777132791996,138.60311370048072L172.8050047917366,135.53729330021127L172.8886207909584,138.12299050525897L173.01404478979111,135.78172053578328L173.0976607890129,130.6278674741912L173.1673407883644,124.24383794490157L173.57148478460311,124.85158445159946L173.76658878278732,126.2528011897674L173.91988478136062,133.41648425947199L174.05924478006364,120.6596022038783L174.11498877954483,130.50774802914464L174.12892477941512,134.24383402358177L174.51913277578353,141.2491532352991L174.64455677461623,105.84591520896927L174.96508477163314,121.39721772682788L174.97902077150346,122.11410972851523L175.14625276994707,138.0051591939581L175.57826876592637,140.58690368584314L175.70369276475907,134.675951869755L175.94060476255416,134.22336810678098L176.01028476190567,143.18008960411677L176.13570876073837,132.12920748991695L176.24719675970078,131.6979806521162L176.35868475866317,136.5566477919911L176.5955967564583,119.70174698896504L177.01367675256728,135.70412704135845L177.1530367512703,137.08078346710914L177.6686687464714,122.23685673906844L177.7940927453041,133.05258007468663L177.8080287451744,136.45133908815666L177.8916447443962,128.5540803395859L178.114620742321,99.48919478323245L178.21217274141313,130.5678350274344L178.60238073778152,132.5148413686845L178.61631673765183,119.33913082648684L178.7417407364845,140.22471484370683L178.81142073583604,129.03861008641854L178.96471673440934,116.04113910172822L179.09014073324204,137.79257338513975L179.28524473142622,127.46271176295184L179.81481272649765,122.4358425476434L179.85662072610853,131.76031335518155L179.98204472494126,137.20679144708004L180.33044472169877,127.1485388771066L180.38618872117996,132.62640531497073L180.51161272001266,130.91097326198744L180.70671671819684,113.31391097492764L180.79033271741866,138.25723122075325L180.8182047171593,131.34674454555196L181.2920287127495,129.87812635770985L181.3756447119713,125.18650358851235L181.45926071119308,140.79521401826185L181.48713271093368,139.58110297703564L181.50106871080396,121.12513286401996L181.640428709507,135.17118583962045L181.71010870885848,128.64903940535214L181.9052127070427,122.58187397086957L182.0306367058754,130.0097349617364L182.2536127038002,138.44313678396878L182.6020127005577,133.04938577936485L182.86679669809342,128.10631529536107L182.99222069692613,138.23580004488224L183.2430686945915,138.3236765032794L183.61934069108963,135.03173545272375L183.93986868810654,132.92826925352048L183.96774068784714,133.93689527714176L183.98167668771742,118.14166103346932L184.69241268110275,124.04787368512721L184.80390068006514,126.99870854573444L184.84570867967605,124.42467324618792L184.97113267850878,134.76084314704025L185.50070067358018,127.38926418503576L185.93271666955948,137.21861094589883L186.21143666696548,139.17258776081124L186.4762206645012,140.93153526861227L186.90823666048053,137.85251491267485L187.01972465944291,133.45572802619103L187.0475966591835,137.1048922140587L187.52142065477372,132.92778889696592L187.56322865438463,137.50658697333654L187.75833265256884,137.793379535572L187.95343665075302,125.57031605220553L188.03705264997484,131.62009924682272L188.42726064634323,126.19305816919963L188.46906864595414,135.4184770306755L188.48300464582442,129.27477124941925L188.5666206450462,134.71373486764566L188.59449264478684,122.73416063654753L188.83140464258193,126.34554182652457L188.94289264154435,108.5500195470552L189.06831664037705,116.62153407590318L189.27735663843154,139.1167754812609L189.50033263635635,125.38657739710678L190.04383663129806,128.0413580574298L190.21106862974165,136.26146187027396L190.23894062948224,136.35462225077123L190.3783006281853,135.45260507585448L190.53159662675856,126.97776378769946L190.6291486258507,124.26986205678791L190.72670062494277,130.09597942010436L190.75457262468336,123.79919446062117L190.99148462247848,130.47789924866618L191.2562686200142,140.3079521488176L191.757964615345,145.59713847188453L192.1342366118431,113.97869717066857L192.2178526110649,133.55074315881063L192.34327660989763,123.34039788416547L192.76135660600661,138.94385772886278L193.08188460302355,137.32380297006546L193.09582060289384,141.55181953598023L193.3466686005592,137.33064161085633L193.73687659692766,127.86907522426307L193.80655659627914,137.49971044953656L193.98772459459306,126.72422341547411L194.18282859277724,137.31664611199864L194.29431659173966,133.05969753442403L194.36399659109117,136.66796928701953L194.39186859083176,131.97902105825986L194.40580459070205,131.93793769262214L194.68452458810805,130.63733671112948L194.75420458745955,136.26346057783064L194.94930858564376,131.39840484731212L195.08866858434678,139.72497506874686L195.15834858369828,132.13960561823671L195.25590058279036,120.71704496813749L195.52068458032608,127.19027231517936L195.6879165787697,131.6123817202222L196.1756765742302,126.58612014837867L196.3011005730629,133.00421711003284L196.9700285668373,137.88942660135768L197.03970856618884,132.1881473906932L197.2487485642433,135.1832250598916L197.40204456281663,134.7692486290848L197.45778856229782,135.68664327502887L197.68076456022263,140.31709180357728L197.86193255853655,144.27414105545066L198.14065255594255,134.0956720599275L198.26607655477525,134.2511348370829L198.37756455373764,141.47996001380287L198.87926054906845,123.62745714278455L199.15798054647445,137.00804960508327L199.19978854608536,134.86156194550006L199.42276454401016,134.16648146509442L199.64574054193497,129.4734676318052L200.63519653272627,132.35990895365558L200.760620531559,136.61720302427258L200.77455653142928,130.1875517448629L201.1926365275383,130.37553935825497L201.45742052507399,141.19926585836177L201.4992285246849,126.79716487638949L201.80582052183152,136.98217550991274L202.41900451612474,129.91044056441626L202.71166051340103,129.9572806321069L202.79527651262282,129.49510337592494L202.82314851236342,130.486066825414L203.11580450963973,134.12031571496462L203.42239650678633,124.40323449371512L203.82654050302506,135.23503992432865L204.46759649705888,137.61611584437742L204.69057249498368,139.4197834866835L204.85780449342727,114.24820901950287L205.68002848577498,110.1896113312718L205.9030044836998,134.32832374097123L206.33502047967912,140.88306774685356L206.4465084786415,137.3436703353235L206.73916447591782,141.76826562341918L207.08756447267533,124.0188431776439L207.15724447202683,127.06313996750032L207.33841247034073,132.80714666639466L207.51958046865462,134.6137040246299L207.60319646787642,137.8636949463011L208.18850846242904,137.09238172915514L208.20244446229933,139.50495206759484L208.27212446165086,126.8572897576883L208.48116445970535,132.07986865895043L209.28945245218276,141.11840078727676L209.52636444997788,135.74830772181485L209.90263644647598,135.98157765356603L209.91657244634627,138.06725399172672L210.02806044530868,127.51963628764744L210.19529244375227,127.94339865734804L210.2371004433632,126.60338570857624L210.3625244421959,141.54342314585782L210.5715644402504,139.56562094890342L210.6273084397316,140.8803477468049L210.8642204375267,139.0590660206181L211.11506843519211,126.68098223364177L211.36591643285752,147.105362588012L211.574956430912,126.7443559617954L211.71431642961502,133.7138734569946L211.75612442922593,135.4061786906225L211.92335642766955,127.38287559439219L211.93729242753983,140.474824530634L211.99303642702102,142.3156811652491L212.38324442338944,131.7546975779223L212.74558042001723,124.66473938975989L213.20546841573716,134.95755142911204L213.41450841379165,133.80855673445507L213.91620440912249,121.117535047728L213.98588440847396,132.79857298379L214.65481240224838,132.81276850493538L214.71055640172958,131.36317667955075L214.98927639913558,118.48949979178335L215.6721403927803,124.58903398450535L216.0344763894081,128.9751242245582L216.076284389019,142.3858276177579L216.6615963835716,129.58655902101566L216.8845723814964,135.1702493716371L217.37233237695693,131.04675808892995L217.58137237501145,121.34433607685645L217.69286037397384,119.11959424317087L217.77647637319564,129.59839367303806L218.23636436891556,137.94340382795042L218.47327636671068,138.8358184177371L218.51508436632156,125.16200085826884L218.55689236593247,134.929922592963L218.73806036424637,126.34899675694851L219.11433236074447,135.15362327663206L219.36518035840987,139.75647857905994L219.46273235750198,133.79316865618523L219.56028435659408,145.1037834992672L219.8668763537407,119.34137653126241L220.159532351017,141.17755813652482L220.34070034933092,135.83208220799372L220.8284603447914,140.18350494881895L221.14898834180832,127.24183109047532L221.19079634141923,138.2963552771637L221.37196433973313,132.88569329732678L221.42770833921432,132.93778091942886L221.51132433843614,142.46051775837032L222.11057233285905,121.78579435773723L222.12450833272933,135.87459452073224L222.38929233026505,124.80777957059269L222.43110032987596,142.51029224394074L222.54258832883835,129.09792881728515L222.55652432870863,136.04061150420466L222.57046032857895,138.84858347646139L222.65407632780077,116.20419666453485L222.93279632520677,141.9429411474365L222.96066832494736,127.42787454784371L223.21151632261277,143.6822213122672L223.90831631612778,140.4080883065985L224.103420314312,143.6832070281623L224.18703631353378,137.30080192230005L224.660860309124,121.45545754959716L225.2322363038063,137.59998677445088L225.6224443001747,134.3555676857485L225.99871629667282,134.79774877444163L226.06839629602433,124.72420056074043L226.15201229524612,122.63173710268114L226.47254029226303,137.4605318415931L226.82094028902054,141.09415641915484L226.98817228746412,141.03662652397486L227.00210828733444,128.17786114622362L227.08572428655626,118.02576327094954L227.21114828538896,129.83890986675735L227.44806028318405,116.68578062858498L227.61529228162763,134.3295496351436L227.69890828084948,129.6377920024339L227.97762827825548,131.2187802869945L228.03337227773667,137.28019356538528L228.36783627462387,126.72492046284034L228.39570827436447,136.6936463905431L228.5211322731972,138.3229946091168L229.21793226671218,128.49588446110712L229.55239626359938,135.49457338858326L229.5663322634697,128.25772155990904L229.8729242606163,123.93646430151784L230.3606842560768,137.07626781243223L230.3746202559471,119.02245008544352L230.70908425283432,130.7498386407194L230.73695625257494,138.42635612628686L230.75089225244523,135.32397710697876L231.16897224855424,137.96850510973667L231.51737224531172,128.0385683526445L231.58705224466325,131.91382288439115L231.79609224271775,133.27663534332027L231.87970824193957,139.8304049982102L232.29778823804855,110.57574223511789L232.31172423791884,136.54538138510426L232.42321223688128,136.77554339479423L232.47895623636248,142.64174098166916L232.56257223558427,122.39985975034207L232.78554823350908,142.28555735412505L233.384796227932,146.34310492534567L233.5520282263756,129.384438014613L233.70532422494887,118.97254452466183L233.8446842236519,134.96961337918862L233.8586202235222,135.27863872176624L233.9143642230034,124.38820554637095L233.97010822248458,132.84265516842288L234.02585222196578,133.68659011388797L234.2627642197609,132.71834586257708L234.3463802189827,132.24486886246035L234.4021242184639,120.96028419254617L234.4299962182045,137.4691949280991L234.77839621496202,146.9446071756644L235.0431802124977,131.95063001596907L235.1407322115898,129.86348836301892L235.15466821146012,133.56733894740844L235.37764420938493,139.11402214416427L235.4194522089958,148.38294964151623L235.86540420484545,139.05693699551037L235.87934020471573,133.9625587427821L235.89327620458604,132.6277645573349L236.22774020147324,136.45171640292665L236.42284419965745,138.67910550128357L237.13358019304275,136.4865642252773L237.30081219148636,140.5451997965174L238.17878018331527,120.90837234760602L238.31814018201828,130.30683776371072L238.7640921778679,124.81349838963655L238.8198361773491,130.41789862363697L239.0985561747551,142.31644412905104L239.43302017164228,134.53435881986732L239.4608921713829,139.39022564771443L239.697804169178,127.81567533472804L240.21343616437912,133.45292619884282L240.38066816282273,123.12917434835202L240.63151616048813,143.82639040676924L240.70119615983964,140.40410377170826L240.72906815958024,134.11108286800274L240.86842815828325,130.07592718576223L241.11927615594863,138.01948200201383L241.23076415491104,113.07206887589213L241.34225215387343,134.23837432431972L241.43980415296556,139.95379450459666L241.67671615076063,132.77787825361463L241.76033214998245,136.87098281711502L241.85788414907455,137.1030601917418L242.51287614297866,140.3920372756706L242.5825561423302,147.6807316233784L242.80553214025497,124.84143786645967L242.8891481394768,138.08390130121683L243.02850813817977,129.7306811405865L243.1399961371422,137.5142787394909L243.27935613584518,132.4041547928875L243.3769081349373,129.71978295654748L243.5162681336403,140.896995056295L243.53020413351058,127.26531401011562L243.5441401333809,133.7340438863249L243.7253081316948,131.1641363194428L243.9900921292305,129.403076455058L244.2688121266365,138.97121077670602L244.4221081252098,132.79244957420963L244.9795481200218,139.13663223927642L245.07710011911394,136.63612482962515L245.24433211755752,144.7858738334108L245.39762811613085,137.82522247764604L245.84358011198043,123.78208649374119L246.28953210783004,134.45867311377748L246.72154810380934,139.97406721805135L247.23718009901046,126.88276229296311L247.57164409589765,132.5014065383605L247.69706809473038,133.0837274847148L247.78068409395217,142.68142191831245L247.9897240920067,144.36411168658722L248.1987640900612,99.02948295327847" fill="none"></path></g><g><path style="fill: none;" stroke="rgb(204, 51, 17)" stroke-width="2px" d="M32.27856289958954,61.53736595920418L36.68512605857849,81.51213106318833L41.09168921756744,89.42603712124921L45.498252376556394,98.09093595040991L49.904815535545346,98.05509559322257L54.311378694534305,101.26453199606216L58.71794185352325,104.86770621096197L63.1245050125122,104.39328668158045L67.53106817150116,105.68595799162202L71.9376313304901,105.62202662557542L76.34419448947907,105.20043722527303L80.75075764846801,106.7639659886298L85.15732080745698,105.76603358079878L89.56388396644593,107.3410999933871L93.97044712543487,106.50550991715214L98.37701028442383,106.87055362284926L102.78357344341278,107.16472276460394L107.19013660240172,105.97654188540167L111.5966997613907,106.32509890556697L116.00326292037964,107.83303056486471L120.4098260793686,107.85893648176287L124.81638923835754,107.65293777055545L129.2229523973465,105.17320388773831L133.62951555633543,107.46099517102019L138.0360787153244,105.4611299096041L142.44264187431335,106.87656641404322L146.8492050333023,105.66619215282819L151.25576819229127,106.19099305358486L155.66233135128022,104.92453678579517L160.06889451026916,105.06573433706853L164.47545766925813,104.22486488469453L168.88202082824708,106.45377081873318L173.28858398723602,104.62604291972912L177.69514714622497,106.16339300852269L182.1017103052139,106.89457448121786L186.5082734642029,103.3305288686896L190.91483662319183,106.22409977284029L195.32139978218078,107.55918186915616L199.72796294116972,105.88643487543257L204.1345261001587,104.78219971361003L208.54108925914767,104.409524854573L212.9476524181366,106.48958693079476L217.35421557712556,106.7616627016805L221.7607787361145,105.31622588472679L226.16734189510345,106.81623847981596L230.5739050540924,106.14059349836538L234.98046821308137,108.5500195470552L239.3870313720703,107.87309866586033L243.79359453105926,108.73913152815541L248.2001576900482,105.44050943012644" fill="none"></path></g></g></g></g></g></g><g transform="translate(51, 177)" clip-path="url(#clip_1)"><clipPath id="clip_1"><rect width="278" height="22"></rect></clipPath><g><g><line x1="0" y1="0" x2="0" y2="5" style="visibility: inherit;" fill="rgb(0, 0, 0)" stroke="rgb(204, 204, 204)" stroke-width="1px"></line><line x1="27.871999740600586" y1="0" x2="27.871999740600586" y2="5" style="visibility: inherit;" fill="rgb(0, 0, 0)" stroke="rgb(204, 204, 204)" stroke-width="1px"></line><line x1="55.74399948120117" y1="0" x2="55.74399948120117" y2="5" style="visibility: inherit;" fill="rgb(0, 0, 0)" stroke="rgb(204, 204, 204)" stroke-width="1px"></line><line x1="83.61599922180176" y1="0" x2="83.61599922180176" y2="5" style="visibility: inherit;" fill="rgb(0, 0, 0)" stroke="rgb(204, 204, 204)" stroke-width="1px"></line><line x1="111.48799896240234" y1="0" x2="111.48799896240234" y2="5" style="visibility: inherit;" fill="rgb(0, 0, 0)" stroke="rgb(204, 204, 204)" stroke-width="1px"></line><line x1="139.35999870300293" y1="0" x2="139.35999870300293" y2="5" style="visibility: inherit;" fill="rgb(0, 0, 0)" stroke="rgb(204, 204, 204)" stroke-width="1px"></line><line x1="167.23199844360352" y1="0" x2="167.23199844360352" y2="5" style="visibility: inherit;" fill="rgb(0, 0, 0)" stroke="rgb(204, 204, 204)" stroke-width="1px"></line><line x1="195.1039981842041" y1="0" x2="195.1039981842041" y2="5" style="visibility: inherit;" fill="rgb(0, 0, 0)" stroke="rgb(204, 204, 204)" stroke-width="1px"></line><line x1="222.9759979248047" y1="0" x2="222.9759979248047" y2="5" style="visibility: inherit;" fill="rgb(0, 0, 0)" stroke="rgb(204, 204, 204)" stroke-width="1px"></line><line x1="250.84799766540527" y1="0" x2="250.84799766540527" y2="5" style="visibility: inherit;" fill="rgb(0, 0, 0)" stroke="rgb(204, 204, 204)" stroke-width="1px"></line><line x1="278.71999740600586" y1="0" x2="278.71999740600586" y2="5" style="visibility: inherit;" fill="rgb(0, 0, 0)" stroke="rgb(204, 204, 204)" stroke-width="1px"></line></g><g transform="translate(0, 8)"><text style="text-anchor: middle; visibility: hidden; font-family: &quot;Helvetica Neue&quot;, sans-serif; font-size: 12px; font-weight: 200;" x="0" y="0" dx="0em" dy="0.95em" fill="rgb(50, 49, 63)" stroke="none" stroke-width="1px">-20k</text><text style="text-anchor: middle; visibility: hidden; font-family: &quot;Helvetica Neue&quot;, sans-serif; font-size: 12px; font-weight: 200;" x="27.871999740600586" y="0" dx="0em" dy="0.95em" fill="rgb(50, 49, 63)" stroke="none" stroke-width="1px">0</text><text style="text-anchor: middle; visibility: hidden; font-family: &quot;Helvetica Neue&quot;, sans-serif; font-size: 12px; font-weight: 200;" x="55.74399948120117" y="0" dx="0em" dy="0.95em" fill="rgb(50, 49, 63)" stroke="none" stroke-width="1px">20k</text><text style="text-anchor: middle; visibility: hidden; font-family: &quot;Helvetica Neue&quot;, sans-serif; font-size: 12px; font-weight: 200;" x="83.61599922180176" y="0" dx="0em" dy="0.95em" fill="rgb(50, 49, 63)" stroke="none" stroke-width="1px">40k</text><text style="text-anchor: middle; visibility: hidden; font-family: &quot;Helvetica Neue&quot;, sans-serif; font-size: 12px; font-weight: 200;" x="111.48799896240234" y="0" dx="0em" dy="0.95em" fill="rgb(50, 49, 63)" stroke="none" stroke-width="1px">60k</text><text style="text-anchor: middle; visibility: hidden; font-family: &quot;Helvetica Neue&quot;, sans-serif; font-size: 12px; font-weight: 200;" x="139.35999870300293" y="0" dx="0em" dy="0.95em" fill="rgb(50, 49, 63)" stroke="none" stroke-width="1px">80k</text><text style="text-anchor: middle; visibility: hidden; font-family: &quot;Helvetica Neue&quot;, sans-serif; font-size: 12px; font-weight: 200;" x="167.23199844360352" y="0" dx="0em" dy="0.95em" fill="rgb(50, 49, 63)" stroke="none" stroke-width="1px">100k</text><text style="text-anchor: middle; visibility: hidden; font-family: &quot;Helvetica Neue&quot;, sans-serif; font-size: 12px; font-weight: 200;" x="195.1039981842041" y="0" dx="0em" dy="0.95em" fill="rgb(50, 49, 63)" stroke="none" stroke-width="1px">120k</text><text style="text-anchor: middle; visibility: hidden; font-family: &quot;Helvetica Neue&quot;, sans-serif; font-size: 12px; font-weight: 200;" x="222.9759979248047" y="0" dx="0em" dy="0.95em" fill="rgb(50, 49, 63)" stroke="none" stroke-width="1px">140k</text><text style="text-anchor: middle; visibility: hidden; font-family: &quot;Helvetica Neue&quot;, sans-serif; font-size: 12px; font-weight: 200;" x="250.84799766540527" y="0" dx="0em" dy="0.95em" fill="rgb(50, 49, 63)" stroke="none" stroke-width="1px">160k</text><text style="text-anchor: middle; visibility: hidden; font-family: &quot;Helvetica Neue&quot;, sans-serif; font-size: 12px; font-weight: 200;" x="278.71999740600586" y="0" dx="0em" dy="0.95em" fill="rgb(50, 49, 63)" stroke="none" stroke-width="1px">180k</text></g><line x1="0" y1="0" x2="278.71999740600586" y2="0" fill="rgb(0, 0, 0)" stroke="rgb(204, 204, 204)" stroke-width="1px"></line></g></g></g></g></svg>