<svg viewBox="0 0 330 200" xmlns="http://www.w3.org/2000/svg"><g><g><g><g><g><line x1="51.28000259399414" y1="177.95999908447266" x2="46.28000259399414" y2="177.95999908447266" style="visibility: inherit;" fill="rgb(0, 0, 0)" stroke="rgb(204, 204, 204)" stroke-width="1px"></line><line x1="51.28000259399414" y1="152.53714207240515" x2="46.28000259399414" y2="152.53714207240515" style="visibility: inherit;" fill="rgb(0, 0, 0)" stroke="rgb(204, 204, 204)" stroke-width="1px"></line><line x1="51.28000259399414" y1="127.11428506033761" x2="46.28000259399414" y2="127.11428506033761" style="visibility: inherit;" fill="rgb(0, 0, 0)" stroke="rgb(204, 204, 204)" stroke-width="1px"></line><line x1="51.28000259399414" y1="101.6914280482701" x2="46.28000259399414" y2="101.6914280482701" style="visibility: inherit;" fill="rgb(0, 0, 0)" stroke="rgb(204, 204, 204)" stroke-width="1px"></line><line x1="51.28000259399414" y1="76.26857103620257" x2="46.28000259399414" y2="76.26857103620257" style="visibility: inherit;" fill="rgb(0, 0, 0)" stroke="rgb(204, 204, 204)" stroke-width="1px"></line><line x1="51.28000259399414" y1="50.84571402413505" x2="46.28000259399414" y2="50.84571402413505" style="visibility: inherit;" fill="rgb(0, 0, 0)" stroke="rgb(204, 204, 204)" stroke-width="1px"></line><line x1="51.28000259399414" y1="25.42285701206754" x2="46.28000259399414" y2="25.42285701206754" style="visibility: inherit;" fill="rgb(0, 0, 0)" stroke="rgb(204, 204, 204)" stroke-width="1px"></line><line x1="51.28000259399414" y1="0" x2="46.28000259399414" y2="0" style="visibility: inherit;" fill="rgb(0, 0, 0)" stroke="rgb(204, 204, 204)" stroke-width="1px"></line></g><g transform="translate(41.28000259399414, 0)"><text style="text-anchor: end; visibility: hidden; font-family: &quot;Helvetica Neue&quot;, sans-serif; font-size: 12px; font-weight: 200;" x="0" y="177.95999908447266" dx="0em" dy="0.3em" fill="rgb(50, 49, 63)" stroke="none" stroke-width="1px">-0.5</text><text style="text-anchor: end; visibility: inherit; font-family: &quot;Helvetica Neue&quot;, sans-serif; font-size: 12px; font-weight: 200;" x="0" y="152.53714207240515" dx="0em" dy="0.3em" fill="rgb(50, 49, 63)" stroke="none" stroke-width="1px">0</text><text style="text-anchor: end; visibility: hidden; font-family: &quot;Helvetica Neue&quot;, sans-serif; font-size: 12px; font-weight: 200;" x="0" y="127.11428506033761" dx="0em" dy="0.3em" fill="rgb(50, 49, 63)" stroke="none" stroke-width="1px">0.5</text><text style="text-anchor: end; visibility: inherit; font-family: &quot;Helvetica Neue&quot;, sans-serif; font-size: 12px; font-weight: 200;" x="0" y="101.6914280482701" dx="0em" dy="0.3em" fill="rgb(50, 49, 63)" stroke="none" stroke-width="1px">1</text><text style="text-anchor: end; visibility: hidden; font-family: &quot;Helvetica Neue&quot;, sans-serif; font-size: 12px; font-weight: 200;" x="0" y="76.26857103620257" dx="0em" dy="0.3em" fill="rgb(50, 49, 63)" stroke="none" stroke-width="1px">1.5</text><text style="text-anchor: end; visibility: inherit; font-family: &quot;Helvetica Neue&quot;, sans-serif; font-size: 12px; font-weight: 200;" x="0" y="50.84571402413505" dx="0em" dy="0.3em" fill="rgb(50, 49, 63)" stroke="none" stroke-width="1px">2</text><text style="text-anchor: end; visibility: hidden; font-family: &quot;Helvetica Neue&quot;, sans-serif; font-size: 12px; font-weight: 200;" x="0" y="25.42285701206754" dx="0em" dy="0.3em" fill="rgb(50, 49, 63)" stroke="none" stroke-width="1px">2.5</text><text style="text-anchor: end; visibility: hidden; font-family: &quot;Helvetica Neue&quot;, sans-serif; font-size: 12px; font-weight: 200;" x="0" y="0" dx="0em" dy="0.3em" fill="rgb(50, 49, 63)" stroke="none" stroke-width="1px">3</text></g><line x1="51.28000259399414" y1="0" x2="51.28000259399414" y2="177.95999908447266" fill="rgb(0, 0, 0)" stroke="rgb(204, 204, 204)" stroke-width="1px"></line></g></g><g transform="translate(51, 0)" clip-path="url(#clip_0)"><clipPath id="clip_0"><rect width="278" height="177"></rect></clipPath><g><g><g><line x1="0" y1="0" x2="0" y2="177.95999908447266" fill="rgb(0, 0, 0)" stroke="rgb(60, 60, 60)" stroke-width="1px" opacity="0.25"></line><line x1="27.871999740600586" y1="0" x2="27.871999740600586" y2="177.95999908447266" fill="rgb(0, 0, 0)" stroke="rgb(60, 60, 60)" stroke-width="1px" opacity="0.25"></line><line x1="55.74399948120117" y1="0" x2="55.74399948120117" y2="177.95999908447266" fill="rgb(0, 0, 0)" stroke="rgb(60, 60, 60)" stroke-width="1px" opacity="0.25"></line><line x1="83.61599922180176" y1="0" x2="83.61599922180176" y2="177.95999908447266" fill="rgb(0, 0, 0)" stroke="rgb(60, 60, 60)" stroke-width="1px" opacity="0.25"></line><line x1="111.48799896240234" y1="0" x2="111.48799896240234" y2="177.95999908447266" fill="rgb(0, 0, 0)" stroke="rgb(60, 60, 60)" stroke-width="1px" opacity="0.25"></line><line x1="139.35999870300293" y1="0" x2="139.35999870300293" y2="177.95999908447266" fill="rgb(0, 0, 0)" stroke="rgb(60, 60, 60)" stroke-width="1px" opacity="0.25"></line><line x1="167.23199844360352" y1="0" x2="167.23199844360352" y2="177.95999908447266" fill="rgb(0, 0, 0)" stroke="rgb(60, 60, 60)" stroke-width="1px" opacity="0.25"></line><line x1="195.1039981842041" y1="0" x2="195.1039981842041" y2="177.95999908447266" fill="rgb(0, 0, 0)" stroke="rgb(60, 60, 60)" stroke-width="1px" opacity="0.25"></line><line x1="222.9759979248047" y1="0" x2="222.9759979248047" y2="177.95999908447266" fill="rgb(0, 0, 0)" stroke="rgb(60, 60, 60)" stroke-width="1px" opacity="0.25"></line><line x1="250.84799766540527" y1="0" x2="250.84799766540527" y2="177.95999908447266" fill="rgb(0, 0, 0)" stroke="rgb(60, 60, 60)" stroke-width="1px" opacity="0.25"></line><line x1="278.71999740600586" y1="0" x2="278.71999740600586" y2="177.95999908447266" fill="rgb(0, 0, 0)" stroke="rgb(60, 60, 60)" stroke-width="1px" opacity="0.25"></line></g><g><line x1="0" y1="177.95999908447266" x2="278.71999740600586" y2="177.95999908447266" fill="rgb(0, 0, 0)" stroke="rgb(60, 60, 60)" stroke-width="1px" opacity="0.25"></line><line x1="0" y1="152.53714207240515" x2="278.71999740600586" y2="152.53714207240515" fill="rgb(0, 0, 0)" stroke="rgb(60, 60, 60)" stroke-width="1px" opacity="0.25"></line><line x1="0" y1="127.11428506033761" x2="278.71999740600586" y2="127.11428506033761" fill="rgb(0, 0, 0)" stroke="rgb(60, 60, 60)" stroke-width="1px" opacity="0.25"></line><line x1="0" y1="101.6914280482701" x2="278.71999740600586" y2="101.6914280482701" fill="rgb(0, 0, 0)" stroke="rgb(60, 60, 60)" stroke-width="1px" opacity="0.25"></line><line x1="0" y1="76.26857103620257" x2="278.71999740600586" y2="76.26857103620257" fill="rgb(0, 0, 0)" stroke="rgb(60, 60, 60)" stroke-width="1px" opacity="0.25"></line><line x1="0" y1="50.84571402413505" x2="278.71999740600586" y2="50.84571402413505" fill="rgb(0, 0, 0)" stroke="rgb(60, 60, 60)" stroke-width="1px" opacity="0.25"></line><line x1="0" y1="25.42285701206754" x2="278.71999740600586" y2="25.42285701206754" fill="rgb(0, 0, 0)" stroke="rgb(60, 60, 60)" stroke-width="1px" opacity="0.25"></line><line x1="0" y1="0" x2="278.71999740600586" y2="0" fill="rgb(0, 0, 0)" stroke="rgb(60, 60, 60)" stroke-width="1px" opacity="0.25"></line></g></g></g><g><g><line x1="0" y1="152.53714207240515" x2="278.71999740600586" y2="152.53714207240515" fill="rgb(0, 0, 0)" stroke="rgb(153, 153, 153)" stroke-width="1.5px"></line></g></g><g><g><line x1="27.871999740600586" y1="0" x2="27.871999740600586" y2="177.95999908447266" fill="rgb(0, 0, 0)" stroke="rgb(153, 153, 153)" stroke-width="1.5px"></line></g></g><g><g><g><g><g><path style="fill: none;" stroke="rgb(238, 51, 119)" stroke-width="2px" d="M27.871999740600586,70.25425846060456L27.871999740600586,62.07238921111873" fill="none"></path></g><g><path style="fill: none;" stroke="rgb(51, 187, 238)" stroke-width="2px" d="M28.13539013814926,39.48380558682038L28.469854135036467,38.70284584025387L28.51166213464737,47.57941067877357L28.664958133220676,45.9236140586124L28.87399813127518,56.32836129773932L29.194526128292086,50.420296924599825L30.044622120380403,79.36361287432088L30.086430119991302,45.44211798314325L30.211854118824007,64.82241684807663L31.075886110782623,79.1389514775427L31.145566110134123,78.7234566957338L31.438222107410432,82.43431260615398L31.507902106761936,79.56896908969507L31.605454105854033,76.16810529624308L31.68907010507584,96.28351637488907L32.17683010053635,73.84133088134435L32.20470210027695,69.04048685113932L32.31619009923935,77.23475748246268L32.72033409547806,69.75810620660013L32.999054092884066,75.63846446225216L33.751598085880275,83.83848724966732L33.76553408575058,84.3310633476189L34.04425408315659,99.72196617458472L34.29510208082199,80.2222600651746L34.49020607900619,102.77366378908613L35.35423807096482,87.51172684743662L35.73051006746292,100.69972360712433L35.95348606538773,95.94016902612617L36.051038064479826,82.77304125845538L36.06497406435013,100.48598463951099L36.524862060070035,76.51215575365366L36.71996605825424,72.93099308232324L36.831454057216646,84.00111143085061L36.90113405656815,106.27692080999726L36.929006056308744,87.7830479887824L37.09623805475235,95.96547487616122L37.23559805345535,95.57296447359373L37.834846047878266,93.84453551787088L37.94633404684066,91.58325324899099L38.05782204580307,86.43875880595078L38.42015804243088,105.99857464345612L38.54558204126358,92.21028675324851L38.60132604074478,105.1743737150573L38.62919804048538,107.2205653505615L38.824302038669586,93.02655346423515L38.85217403841018,116.20838197937297L38.94972603750229,100.07712089960347L39.06121403646469,90.91537883035355L39.14483003568649,108.69642373909028L39.5350380320549,105.59882707084267L40.552366022586824,96.08246973062263L41.012254018306734,104.57314914719478L41.05406201791764,110.50940150969667L41.290974015712735,95.0414203972289L41.41639801454544,91.26993954979065L41.43033401441574,98.40143115373809L41.51395001363754,93.59683519031829L41.59756601285934,113.7411979797888L41.84841401052475,111.15169732063401L41.89022201013565,102.97052208787369L42.01564600896835,114.88495269663612L42.69851000261307,105.85698007824807L42.74031800222397,103.74126857520449L42.82393400144577,112.91476953045873L42.90755000066757,103.47709974596442L43.11658999872208,112.69654824521643L43.200205997943876,93.06742468502229L43.269885997295376,99.00444986090848L43.994557990551,106.19168707031037L44.0642379899025,92.0819209347953L44.0781739897728,114.65537256996491L44.329021987438196,92.40483570380535L44.510189985752106,101.79371217266322L44.69135798406601,102.25144196358451L45.22092597913742,111.21027657516424L45.457837976932524,95.6061439282265L45.73655797433853,100.52123705239813L46.22431796979904,116.57194673239741L46.26612596940994,95.90772298654832L46.46122996759415,102.97651669522332L46.516973967075344,109.45063201999697L47.18590196084976,115.92211068734183L47.28345395994186,114.34679879285497L47.59004595708847,111.92935973009415L47.757277955532075,118.24637573172211L47.896637954235075,86.19344056200627L48.31471795034408,126.18182358404036L48.46801394891739,92.25115797403565L48.57950194787979,117.595988110055L48.66311794710159,116.39300558156278L49.1090699429512,110.37548052679864L49.51321393918991,90.02443107067666L49.736189937114716,100.38026982981968L49.959165935039515,96.58770178423245L50.014909934520716,115.24911751652365L50.25182193231583,118.61948397238251L50.73958192777634,92.30443057666031L50.85106992673874,102.91072451577293L51.32489392232895,95.17817502920272L51.450317921161655,112.49769578483327L51.533933920383454,118.39483469816722L51.603613919734954,118.01506813983893L51.70116591882706,117.7131284352711L51.82658991765976,124.54648681939852L52.02169391584397,114.95980952248829L52.049565915584566,114.35521185150134L52.09137391519547,125.42820021679316L52.21679791402817,95.8227680658079L52.704557909488685,132.1863805271518L53.03902190637588,104.18922151915416L53.331677903652185,112.90969320724811L53.582525901317595,106.25575178454879L53.707949900150304,101.45464408860087L53.8891178984642,126.13852785067502L53.9309258980751,114.18204407124358L54.04241389703751,94.78083984660458L54.59985389184952,105.22448839004886L54.836765889644624,98.10136135449622L54.976125888347624,113.62075122554415L55.01793388795852,104.67942159477909L55.29665388536453,106.84765713218881L55.51962988328934,112.42463915957043L55.77047788095474,113.53196557493018L55.93770987939835,118.87795216642306L56.17462187719345,115.2594974609991L56.25823787641525,115.0401972676595L56.77386987161636,103.27422259470144L56.815677871227265,98.42917363891424L56.829613871097564,116.9895053805385L56.94110187005997,123.27827581063035L56.99684586954117,117.51050282718812L57.09439786863327,108.03765942646545L57.83300586175919,116.29453703383959L57.93055786085129,107.13219489772655L58.055981859683996,98.92081023824176L58.36257385683059,133.52649045642673L58.4183178563118,113.9462632536536L58.5298058552742,121.88078979119213L58.6412938542366,109.0945711334021L58.6970378537178,101.51738441284346L58.97575785112381,103.09769383388215L59.04543785047531,112.77613287059609L59.05937385034561,114.12098878324286L59.129053849697115,120.52929677536252L59.29628584814071,129.52837829574048L59.338093847751615,112.15390293188415L59.40777384710312,124.53442486932194L59.672557844638824,129.19695651822167L59.89553384256363,124.63061134458088L60.03489384126663,106.31288845409497L60.202125839710234,118.56145629446382L60.56446183633804,121.98871393797032L60.68988583517074,122.17724403605176L61.177645830631256,125.05165522955316L61.191581830501555,108.26908521333684L61.21945383024216,107.3666392027578L61.83263782453537,106.83341615143257L61.94412582349777,113.34449317046099L62.06954982233047,109.12781120084934L62.09742182207108,122.01909611121599L62.16710182142258,121.72711509206316L62.515501818180084,100.99351391878866L62.52943781805038,110.6511112392522L62.66879781675338,123.67577161718678L62.69666981649399,99.75576994120638L62.766349815845494,122.95481855693093L62.961453814029696,126.65667346440452L63.045069813251494,122.21277526788539L63.1704938120842,127.47495403615143L63.3795338101387,96.07094117331326L63.46314980936051,107.23984022555825L64.11814180326462,116.70273706342881L64.20175780248641,114.35676657019212L64.43866980028153,118.45958736784971L64.52228579950332,127.40753288731256L65.30270179224014,132.97899914857874L65.37238179159165,120.2210866751393L65.55354978990555,122.25339191485182L66.06918178510666,113.0607736779184L66.26428578329087,129.886509109949L66.75204577875138,124.35848708344358L67.90873376798629,117.55792023193641L68.15958176565171,114.05264783494464L68.2431977648735,127.18683708392012L68.57766176176071,111.12946757093258L69.23265375566483,132.14433190244387L69.34414175462723,118.38560336652569L69.84583774995804,119.14610628821356L70.06881374788284,107.09362999452944L70.11062174749375,115.19689654622977L70.22210974645614,125.34316346875325L70.26391774606705,114.28038836269712L70.65412574243547,120.1750269974348L71.07220573854447,108.74383811319785L71.85262173128127,115.2478719231866L71.93623773050308,125.62023070490937L72.15921372842789,117.74763834118117L72.41006172609329,114.39568908899452L72.42399772596359,116.76946571086253L72.89782172155381,115.86589836321608L73.0371817202568,132.3994891214948L73.0789897198677,109.1586994910957L73.092925719738,123.54922721380795L73.1207977194786,127.50960789749583L73.1347337193489,127.29987392159761L73.48313371610642,135.53778426400834L73.94302171182632,115.00126868757565L74.50046170663833,115.38181108992896L74.93247770261765,125.03184090050776L75.30874969911576,129.37962232650455L75.37842969846726,134.1471384006814L75.68502169561386,106.60181761804L75.94980569314956,119.12951656089717L76.15884569120408,133.6246726086016L76.38182168912887,126.11538587811603L76.78596568536759,127.06387944383667L76.82777368497848,116.36805734713302L77.17617368173599,134.86712771718743L77.7754216761589,115.88089094287157L78.05414167356491,128.43826440436567L78.30498967123032,139.81355008983058L78.33286167097091,105.97652067091661L78.36073367071151,120.88654567312071L78.44434966993332,91.24247588356099L78.83455766630173,133.1278020927459L79.02966166448593,123.42331621434018L79.81007765722275,117.68960460198105L79.86582165670394,125.67273655543119L80.01911765527726,133.75983766951634L80.45113365125655,133.39082988575385L80.56262165021896,137.49904976985903L80.74378964853287,128.80561594297316L80.81346964788438,124.4964964006766L81.03644564580917,130.3577161601644L81.10612564516067,118.16887012587826L81.13399764490127,116.65843515734352L81.27335764360427,121.64276326882658L81.3291016430855,111.9189403872893L81.73324563932418,114.51769056192994L81.90047763776779,126.03944408288511L82.6251496310234,109.60250651853663L82.77844562959672,130.42347500256685L83.01535762739182,123.55523697436118L83.40556562376022,114.3808662252195L83.76790162038803,130.96289571417012L83.93513361883163,108.19354952396276L84.08842961740494,122.30005772070086L84.13023761701584,132.56866403260034L84.92458960962296,117.91094441652707L84.99426960897446,131.32714236135715L85.14756560754776,95.93725354975089L86.16489359807969,132.68396778953846L86.31818959665299,113.84548535769967L86.33212559652328,139.6592677472367L86.35999759626388,113.73338801864624L86.42967759561539,124.50386994955508L86.44361359548569,119.0288386760871L86.7920135922432,103.13308565624253L86.8616935915947,109.39155877102894L86.9035015912056,134.10598836094778L87.014989590168,133.01167854749227L87.293709587574,133.28191926542038L87.3355175871849,125.46548618960527L87.3494535870552,128.72232484398955L87.55849358510972,133.19007115235607L87.86508558225631,119.27231429047217L88.04625358057021,115.60653613016231L88.07412558031083,112.93757207125678L88.25529357862473,115.32588364603114L88.77092557382583,120.72405787076994L89.10538957071304,122.83999061058628L89.20294156980515,132.54160950286825L89.28655756902694,127.94632019500477L89.62102156591416,139.44940799974847L89.66282956552506,136.34662590522424L90.48505355787277,135.13155718152964L90.72196555566786,133.03080795173435L91.01462155294418,103.93455980986138L91.05642955255509,122.21317834310152L91.6835495467186,124.22938784993545L91.7253575463295,133.19686281821578L91.9483335442543,133.99951437575544L92.38034954023361,129.3123299798964L92.77055753660203,99.05224912638784L92.88204553556443,127.8554085499238L92.93778953504562,129.20818352677912L93.04927753400803,122.40280856376532L93.20257353258133,127.17322193047312L93.56490952920915,124.8687257555274L93.63458952856064,97.15712886963178L93.85756552648544,136.80771364606633L94.08054152441024,137.4211623032841L94.19202952337265,125.86130302120131L94.31745352220535,123.37499870929722L94.44287752103806,124.57149869728346L94.59617351961136,132.15474972992837L94.61010951948165,133.2144784174168L94.77734151792527,127.73046432484658L94.80521351766586,119.07546508360676L95.33478151273727,133.51127360935777L95.50201351118088,137.84957216053306L95.76679750871658,131.73942466399993L96.0873255057335,126.86443600851258L96.3660455031395,138.70950737369392L97.0349734969139,130.50247471428702L97.16039749574661,133.79714334149315L97.20220549535752,130.3760439599353L97.94081348848343,127.67297307033583L97.98262148809432,124.85384834021937L98.26134148550034,115.38905129061563L98.28921348524094,133.61927503747438L98.30314948511123,132.1559680474989L98.65154948186874,121.51762811338384L99.04175747823716,133.12837185320177L99.32047747564316,134.6994241821528L99.43196547460555,139.97513248826542L99.86398147058486,126.99950257360382L100.10089346837997,126.01717493485427L100.35174146604538,127.04203458550703L100.46322946500779,133.91761585618394L100.8952454609871,126.87427952958011L101.59204545450211,133.21191904132644L101.99618945074081,127.89144589875812L102.14948544931413,121.06947211650575L102.37246144723892,123.87695464028573L102.56756544542313,133.97031718303236L102.86022144269944,113.37135980046827L103.41766143751144,122.77783823064394L103.72425343465805,137.73725358470685L103.79393343400955,134.5773439125586L104.30956542921066,129.08927785334203L104.46286142778396,140.5632798414092L104.74158142518996,125.82392006788606L104.76945342493056,131.5233187659821L105.21540542078019,137.67166142754417L105.5498694176674,123.45999605900774L105.71710141611099,126.72741164951445L105.74497341585159,127.95767297515224L105.8285894150734,123.06409436947148L106.34422141027451,125.48246990021562L106.7344294066429,130.73756303047185L106.76230140638351,132.12983786318728L106.81804540586472,136.8365259474176L107.02708540391922,139.4375960775315L107.59846139860154,110.53098270228344L107.64026939821244,133.13158130172718L108.37887739133835,121.35340678453966L108.42068539094925,134.9194820356731L108.56004538965225,118.75936319494147L108.81089338731765,116.55982416950636L108.82482938718796,120.51296768314829L109.06174138498307,129.0708682262716L109.10354938459396,137.07886810217235L109.57737338018418,121.40417607792733L109.60524537992478,99.95672566625113L109.70279737901687,128.31846469191532L110.20449337434769,115.59330435276674L110.49714937162399,135.31976603169448L110.83161336851121,132.60733803886347L110.9012933678627,138.05323727838393L110.98490936708451,133.11295649916545L111.3611813635826,133.41021992509806L111.63990136098862,121.062965330874L111.70958136034012,123.20054896801372L111.91862135839462,129.03452478272428L111.98830135774612,134.60341348405575L112.58754935216903,130.3376624105019L112.93594934892656,123.45031316189852L112.96382134866715,139.42596902439865L113.18679734659194,139.63985800872777L113.21466934633254,114.92139312068659L113.29828534555435,146.51939881150898L113.32615734529494,122.64839047345271L113.57700534296036,122.68541581116266L113.89753333997726,134.90298625821913L114.02295733880996,138.04069345643245L114.28774133634568,127.0699952768152L114.44103733491897,140.18603477616227L114.46890933465957,126.97911545346182L114.55252533388138,125.12292983807103L114.73369333219527,116.83504877610306L114.98454132986069,134.70999202635306L115.5280453248024,131.6467885843477L115.8485733218193,130.86569397426905L115.90431732130051,135.17574998454893L115.91825332117081,136.62604491858121L116.25271731805802,121.3572981272277L116.40601331663132,121.62486127407725L116.55930931520462,123.21430201561361L116.65686131429672,133.73062683891L116.74047731351853,134.00381333962065L117.07494131040573,138.91002517115425L117.89716530275345,131.073288317817L118.39886129808426,111.9708431403073L118.41279729795455,127.74027905482723L118.46854129743576,137.6446372042193L118.74726129484176,143.26927908760706L118.76119729471206,135.72376256260122L118.77513329458236,127.45837491607757L118.88662129354478,136.7470159736709L119.49980528783797,125.79507746012756L119.59735728693009,118.85939252263688L119.63916528654099,142.29896793932323L119.90394928407669,128.75764544629294L120.6564932770729,133.24096318669302L120.7819172759056,137.34711314318454L120.80978927564621,126.80419596286629L120.86553327512742,132.5456114639427L120.94914927434922,131.39958831251437L120.99095727396012,137.0754571160389L121.08850927305222,124.6371635898235L121.19999727201461,131.83790684960638L121.24180527162552,129.34212723948258L121.40903727006912,137.13467432044126L121.78530926656722,133.11473700059008L121.84105326604843,119.0434463643708L121.99434926462173,126.91202009850063L122.14764526319503,139.63445134567837L123.09529325437546,142.84199662870697L123.29039725255966,124.24988104250275L123.40188525152206,133.857197002735L123.59698924970627,135.91998745747776L123.61092524957657,133.9236044022521L123.97326124620437,120.41772676779485L124.16836524438857,115.32689891067326L124.51676524114609,121.49442855865112L124.9209092373848,131.45276544995625L124.9627172369957,136.27539524099686L125.3250532336235,130.76321285822894L125.5759012312889,138.00346051983297L125.63164523077012,125.24162791261864L125.98004522752761,125.20020814586067L126.70471722078324,135.95082574215218L126.91375721883774,125.60035879369025L127.02524521780015,138.52282596645338L127.03918121767045,136.14886750614198L127.34577321481704,134.09772683433755L127.59662121248246,134.51237758270514L128.15406120729446,136.2898680657684L128.44671720457077,130.45788186669233L128.75330920171737,129.41605668927357L128.87873320055007,131.4672458513296L129.617341193676,123.1473884990958L129.7706371922493,130.88710848161605L130.0214851899147,139.57463558973325L130.1608451886177,134.7268151130051L130.174781188488,138.14973590963734L130.4395651860237,141.24821146369453L130.76009318304062,129.34029370184533L131.0248771805763,142.4140156071203L131.44295717668533,135.91959044354306L131.56838117551803,134.13985122506352L131.61018917512894,139.1535477604705L131.70774117422104,135.7169799886637L131.84710117292403,136.84657706737465L131.88890917253494,142.05363681515567L131.95858917188644,127.99364971117211L132.09794917058946,132.7338081915446L132.43241316747665,145.4066028473048L132.55783716630935,126.2310563425816L132.82262116384507,140.31893216015618L133.05953316164016,141.26405792637365L133.9235651535988,132.22359831054766L134.41132514905928,135.18582534963173L134.6482371468544,138.23916405608452L134.7875971455574,139.19230056339245L134.85727714490892,131.25047775831388L135.01057314348222,135.27073632608165L135.094189142704,132.30146001667643L135.19174114179611,140.3299061102133L135.44258913946152,126.82604688247739L135.51226913881302,132.427613467402L135.58194913816453,139.71606953098302L135.8327971358299,110.57633927134026L135.98609313440323,134.60937020839634L136.02790113401414,124.06877298355136L136.30662113142014,131.97186874615414L136.41810913038253,142.849653542493L136.55746912908555,120.2592757788868L137.04522912454604,136.3388235206835L137.11490912389755,128.42194895003468L137.9650051159859,136.85686003134697L137.97894111585617,143.44209531354096L138.42489311170579,137.58190900253965L139.0241411061287,136.94726101346617L139.13562910509108,141.43518760074537L139.2471171040535,130.71530145904282L139.26105310392379,132.31349620630687L139.73487709951402,125.29204565168246L139.8881730980873,138.5836100121094L140.05540509653093,140.59875500638947L140.29231709432602,126.41690735426411L141.12847708654405,143.2896631771083L141.46294108343125,135.077114751586L141.88102107954023,131.1428157619582L141.93676507902143,132.94861849065344L142.13186907720566,140.7624694605728L142.36878107500075,135.45605091435624L142.45239707422255,147.986591082891L143.03770906877517,136.88721644414647L143.26068506669998,139.62345466581584L143.4139810652733,122.39800196757902L143.53940506410598,136.4614765813743L143.6508930630684,124.00816319973688L143.9296130604744,139.57558114963877L143.95748506021502,136.42220705420914L143.9992930598259,121.27873785841231L144.0271650595665,125.78349132064444L144.1107810587883,136.31141440598685L144.3895010561943,119.9429041631972L144.4313090558052,142.60326927067428L144.5009890551567,141.55893699571763L144.6264130539894,137.71142040318603L145.60193304491045,134.5629665529698L145.88065304231645,140.20226309957246L145.89458904218674,135.06251767054482L145.92246104192733,144.5283875669644L146.11756504011154,145.7128513653202L146.17330903959277,129.12151629403036L146.29873303842544,126.22032181314158L146.31266903829575,121.16012767244567L146.38234903764723,138.62788615774855L146.45202903699877,131.4186904409899L146.66106903505323,140.66804681821446L147.09308503103256,125.60208019762078L147.26031702947614,143.74171354731516L147.35786902856827,130.9410023655889L147.42754902791978,133.14834832152584L147.622653026104,120.7028524776328L147.74807702493666,132.93792032890212L148.11041302156448,137.12641885511246L148.2079650206566,139.54436403487398L148.2219010205269,134.4073992187095L148.34732501935957,138.0375370441197L148.876893014431,130.35743734121792L148.98838101339342,125.86228494879548L149.0023170132637,134.48160445680625L149.0580610127449,122.10518752222742L149.5040130085945,131.2380733458356L150.15900500249865,143.41670157492496L150.21474900197984,126.8716155963848L150.53527699899672,124.01624894918521L150.78612499666215,124.49589330317278L150.82793299627303,143.7489552633222L151.12058899354935,120.07771009318627L151.27388499212265,136.39155969990023L151.60834898900987,129.8368899447156L151.70590098810194,126.24670960191465L151.94281298589706,127.90685216087228L151.97068498563766,135.85938525026506L152.01249298524854,147.68882305527808L152.30514898252486,141.47295999139348L152.33302098226545,126.70876108650658L152.402700981617,137.34125642998782L152.55599698019026,120.9860810063783L152.7232289786339,127.75605808575028L152.960140976429,129.2980677846551L153.2109889740944,130.14199363819802L153.29460497331618,145.5084172223859L153.4339649720192,135.55027656506758L153.6848129696846,141.44067684875446L153.69874896955488,147.6266517338312L154.07502096605302,131.0443547908368L154.1865089650154,119.65261424156766L154.32586896371842,139.581897004905L154.47916496229172,145.98022358180424L154.77182095956803,121.77959063617774L155.02266895723344,124.23800093086953L155.46862095308305,140.2483803594507L155.56617295217515,138.6161378789868L156.29084494543076,144.62227908953605L156.31871694517136,134.90992036419277L156.45807694387435,133.8141270521035L156.55562894296648,134.7386921939976L156.93190093946458,139.20005597300198L157.22455693674087,136.70791767770658L157.36391693544385,141.12979448107396L157.5868929333687,136.7226859899486L157.61476493310929,133.1955626733457L157.7123169322014,140.10621224548584L158.158268928051,132.16256878299308L158.22794892740248,140.9617507566182L158.3812449259758,122.14303416357325L158.45092492532729,133.01744737210805L159.0501729197502,144.87027035859802L159.09198091936113,138.45676557529902L159.37070091676713,137.70400745597817L159.45431691598893,146.46990655435584L159.46825291585924,129.7362650961182L159.83058891248703,136.23101908421384L159.92814091157913,147.45098822093823L160.80610890340807,135.96612138587994L160.93153290224075,136.36907537637808L161.02908490133285,147.77526147465227L161.07089290094376,144.03683658323732L161.16844490003587,132.8226862767006L161.21025289964675,126.25569848229836L161.51684489679337,129.86901170573617L161.67014089536667,134.42888343079312L161.82343689393997,138.1747856705313L161.99066889238358,131.45046216300696L162.00460489225387,143.88635390644959L162.04641289186478,135.2025499404603L162.38087688875197,141.76500313868112L162.4644928879738,134.77243383248444L162.7850208849907,147.17767443331724L162.9243808836937,137.61061371614525L163.0358688826561,122.40957295385851L163.88596487474442,131.83752801951601L164.01138887357712,140.25865801980174L164.1368128724098,138.82837061816093L164.6245728678703,132.65858465816498L165.01478086423876,144.24988835306678L165.05658886384964,137.91368233438232L165.61402885866167,145.44313040227604L165.94849285554886,134.65566173011615L166.85433284711837,134.95049912815017L167.43964484167097,124.17555154813635L167.9413408370018,137.56045509686322L168.01102083635328,130.56847297730656L168.0249568362236,140.22001659292638L168.0528288359642,145.78676263126687L168.2479328341484,142.79399431029918L168.415164832592,134.94434389684227L168.73569282960892,130.27917559051372L168.8193088288307,143.22842983896516L169.02834882688524,144.39630845596565L169.11196482610703,142.1061767603856L169.25132482481004,130.00243263291492L169.58578882169724,129.5493973044732L169.82270081949235,129.0111858185183L170.12929281663895,141.92046440051615L170.56130881261825,138.887427198605L170.65886081171035,139.62069829807848L170.81215681028365,133.19921004945556L171.09087680768965,131.8669525102933L171.1884288067818,138.23987019537293L171.25810880613327,136.51921937906502L171.8434208006859,142.374821088313L172.3451167960167,136.93520360935065L172.7353247923851,144.1596623904493L172.76319679212568,131.01750482935353L172.777132791996,135.1015932367037L172.8050047917366,139.23553113798224L172.8886207909584,145.35757541467254L173.01404478979111,131.27488047741352L173.0976607890129,143.01175418049144L173.1673407883644,129.9349826929892L173.57148478460311,143.61944537799616L173.76658878278732,142.54586666240468L173.91988478136062,146.76309490500662L174.05924478006364,141.34657242367206L174.11498877954483,141.34817184431347L174.12892477941512,123.73898775202282L174.51913277578353,113.63346476337614L174.64455677461623,141.30133556492376L174.96508477163314,137.73017097733776L174.97902077150346,134.57315556707974L175.14625276994707,117.21022391373637L175.57826876592637,135.43439092511068L175.70369276475907,129.36873778034877L175.94060476255416,130.73126232840923L176.01028476190567,146.45424003596963L176.13570876073837,141.99944744371237L176.24719675970078,138.4744705784014L176.35868475866317,128.53919686299645L176.5955967564583,124.37614965757581L177.01367675256728,130.36964173140848L177.1530367512703,142.81885465614798L177.6686687464714,130.21958258666174L177.7940927453041,145.76980089280175L177.8080287451744,138.26066493669214L177.8916447443962,132.4005377231849L178.114620742321,135.082591119372L178.21217274141313,135.15760250790106L178.60238073778152,145.18696019156351L178.61631673765183,143.8044311417523L178.7417407364845,134.50437820651743L178.81142073583604,129.35166163519636L178.96471673440934,144.77892230125298L179.09014073324204,127.99141612895943L179.28524473142622,142.48313164178336L179.81481272649765,129.06120048236602L179.85662072610853,132.38953346672054L179.98204472494126,120.71305058366488L180.33044472169877,124.96249074884885L180.38618872117996,138.00314381787746L180.51161272001266,134.15965040090532L180.70671671819684,129.8499247304642L180.79033271741866,141.51187266061353L180.8182047171593,133.35829595759503L181.2920287127495,145.61630500147544L181.3756447119713,134.12519201588754L181.45926071119308,139.8683933220098L181.48713271093368,126.62402437189823L181.50106871080396,129.9118013221008L181.640428709507,130.91535859911326L181.71010870885848,134.24480837457415L181.9052127070427,131.2098353509013L182.0306367058754,127.06421887559762L182.2536127038002,133.3738537517453L182.6020127005577,135.6736933472205L182.86679669809342,142.67636605192672L182.99222069692613,135.02518017684042L183.2430686945915,144.18785265279223L183.61934069108963,130.89262121709078L183.93986868810654,143.10203620996228L183.96774068784714,136.4380951881982L183.98167668771742,141.796719551505L184.69241268110275,135.66308307405012L184.80390068006514,128.46372936303862L184.84570867967605,140.3831385568484L184.97113267850878,146.400447678461L185.50070067358018,141.75463152846766L185.93271666955948,130.96424131865103L186.21143666696548,126.94827262282628L186.4762206645012,136.1065946140206L186.90823666048053,120.1388350859236L187.01972465944291,133.76451091751085L187.0475966591835,143.58826311559966L187.52142065477372,125.4004153026469L187.56322865438463,135.06658479039476L187.75833265256884,129.6351098853943L187.95343665075302,146.35825206767802L188.03705264997484,132.4019424251599L188.42726064634323,139.24180911023944L188.46906864595414,145.78498591814315L188.48300464582442,133.65130133331215L188.5666206450462,128.76107613159112L188.59449264478684,130.91404027039886L188.83140464258193,137.5531300382363L188.94289264154435,140.37931009995535L189.06831664037705,138.74301565284512L189.27735663843154,129.7291673355455L189.50033263635635,142.6667528595541L190.04383663129806,144.9071737130189L190.21106862974165,124.5843273994629L190.23894062948224,143.02518446485436L190.3783006281853,139.82304205657425L190.53159662675856,139.03877436565887L190.6291486258507,139.72661767601858L190.72670062494277,143.0627197078659L190.75457262468336,135.1879619513413L190.99148462247848,129.10566149708927L191.2562686200142,143.8760845803605L191.757964615345,142.83832121917044L192.1342366118431,142.0904325818309L192.2178526110649,134.97154995861047L192.34327660989763,140.129363309967L192.76135660600661,137.91743729823781L193.08188460302355,145.27492605386198L193.09582060289384,142.458575117667L193.3466686005592,142.86161169312484L193.73687659692766,134.70107891198742L193.80655659627914,141.6334437825663L193.98772459459306,136.65451778817157L194.18282859277724,138.19156481289286L194.29431659173966,141.0951822910395L194.36399659109117,143.9766018412123L194.39186859083176,144.256933835087L194.40580459070205,140.12908146037978L194.68452458810805,139.4745411032623L194.75420458745955,141.34232649601947L194.94930858564376,143.30135387369637L195.08866858434678,133.8295302835769L195.15834858369828,132.86723669532518L195.25590058279036,144.85374048643592L195.52068458032608,141.52739939069642L195.6879165787697,140.98176662327165L196.1756765742302,139.83707089247991L196.3011005730629,142.12605624820657L196.9700285668373,123.6442559843108L197.03970856618884,135.11031087474274L197.2487485642433,140.52546199115025L197.40204456281663,142.978781567088L197.45778856229782,145.67240140359354L197.68076456022263,140.87854072727393L197.86193255853655,132.5302930904095L198.14065255594255,131.35116018908502L198.26607655477525,142.71758200809606L198.37756455373764,132.7530845818617L198.87926054906845,141.48100103889112L199.15798054647445,137.40740016376205L199.19978854608536,140.08174436761067L199.42276454401016,139.04274298968534L199.64574054193497,139.48198284155706L200.63519653272627,137.89466657916734L200.760620531559,134.99359029326672L200.77455653142928,136.81365067124221L201.1926365275383,139.8415289649831L201.45742052507399,136.16062033086484L201.4992285246849,147.1900356591652L201.80582052183152,135.03109295689052L202.41900451612474,123.81885119634899L202.71166051340103,137.23050621073565L202.79527651262282,140.4102385461913L202.82314851236342,128.20740080134834L203.11580450963973,143.30008403523354L203.42239650678633,144.96521048285973L203.82654050302506,141.7309978344514L204.46759649705888,146.67115019026926L204.69057249498368,143.22939964399643L204.85780449342727,133.82446002164772L205.68002848577498,136.12998964507995L205.9030044836998,148.3872353463283L206.33502047967912,145.21946760161603L206.4465084786415,141.76948772929063L206.73916447591782,146.50228478334753L207.08756447267533,134.11748509652955L207.15724447202683,142.2268144449958L207.33841247034073,144.55600882651163L207.51958046865462,130.59189225349166L207.60319646787642,124.75564345823906L208.18850846242904,138.63353527205578L208.20244446229933,138.97848734508136L208.27212446165086,133.39432269918683L208.48116445970535,138.25323077499922L209.28945245218276,142.52481204364346L209.52636444997788,138.19547737006593L209.90263644647598,135.12803254636907L209.91657244634627,122.45486891010088L210.02806044530868,141.90942756466404L210.19529244375227,148.18930836785586L210.2371004433632,147.14928793698752L210.3625244421959,146.40453752811638L210.5715644402504,122.69679889771734L210.6273084397316,138.16950780971263L210.8642204375267,134.8141672705572L211.11506843519211,135.41378862947738L211.36591643285752,148.47661462369385L211.574956430912,139.42047144212756L211.71431642961502,126.9033342821892L211.75612442922593,132.33257560497702L211.92335642766955,145.14137480913212L211.93729242753983,133.8206323224149L211.99303642702102,140.81928563986253L212.38324442338944,140.46508935497235L212.74558042001723,137.19693580344963L213.20546841573716,134.61474808035888L213.41450841379165,124.21147676326395L213.91620440912249,141.61325592705182L213.98588440847396,147.51888290739004L214.65481240224838,138.0097566759345L214.71055640172958,139.80033952692008L214.98927639913558,142.1097953454086L215.6721403927803,144.98520816566887L216.0344763894081,131.42687014030065L216.076284389019,139.69843877857835L216.6615963835716,139.68097471141346L216.8845723814964,131.7706660238905L217.37233237695693,139.4693268858988L217.58137237501145,140.89992492821372L217.69286037397384,144.50120044670072L217.77647637319564,144.25503665399458L218.23636436891556,149.3969436875177L218.47327636671068,143.5429557944546L218.51508436632156,130.89533818649872L218.55689236593247,149.46086293100143L218.73806036424637,143.6395567098324L219.11433236074447,142.3632122190245L219.36518035840987,147.83575192698828L219.46273235750198,129.62552548410855L219.56028435659408,144.99881195421315L219.8668763537407,138.2092819385581L220.159532351017,143.13267371468885L220.34070034933092,137.02188296466232L220.8284603447914,143.45949497959052L221.14898834180832,141.62819925879558L221.19079634141923,146.4095782412985L221.37196433973313,136.92282495731854L221.42770833921432,129.67813740705566L221.51132433843614,142.56355045102197L222.11057233285905,135.68659933073837L222.12450833272933,137.57805402754028L222.38929233026505,150.00156787661098L222.43110032987596,135.24951881038163L222.54258832883835,135.7394461283415L222.55652432870863,140.61143369185314L222.57046032857895,138.46200706842905L222.65407632780077,139.38061851662326L222.93279632520677,138.68854897777567L222.96066832494736,134.56912026895736L223.21151632261277,131.4952807933355L223.90831631612778,136.9353627179886L224.103420314312,138.2065346627429L224.18703631353378,145.93466244449863L224.660860309124,135.8917115795344L225.2322363038063,144.3760516533747L225.6224443001747,146.7337189044809L225.99871629667282,135.87170935076418L226.06839629602433,131.86684189190692L226.15201229524612,133.54483189408086L226.47254029226303,146.42422002429035L226.82094028902054,112.69878485806981L226.98817228746412,134.25371088169726L227.00210828733444,127.28823171526113L227.08572428655626,143.21483362702267L227.21114828538896,141.36830060233387L227.44806028318405,143.06032928999582L227.61529228162763,143.35082377987416L227.69890828084948,144.1384835154185L227.97762827825548,113.08292160032033L228.03337227773667,133.87222443475878L228.36783627462387,143.30122204082494L228.39570827436447,141.13725364555285L228.5211322731972,134.09728890675308L229.21793226671218,142.35077295417793L229.55239626359938,134.47112450118695L229.5663322634697,145.32411486811273L229.8729242606163,140.23885126735814L230.3606842560768,143.68951227618598L230.3746202559471,132.02791286971978L230.70908425283432,141.40062162798193L230.73695625257494,136.34157837310048L230.75089225244523,138.22077715881954L231.16897224855424,146.93510346518792L231.51737224531172,143.33274676562309L231.58705224466325,134.67842184194407L231.79609224271775,132.72340400194338L231.87970824193957,138.91817456405772L232.29778823804855,145.16807399623946L232.31172423791884,144.7778933987276L232.42321223688128,139.1026587567743L232.47895623636248,142.79838646636665L232.56257223558427,139.43199999943693L232.78554823350908,143.24440207323426L233.384796227932,146.4228479017031L233.5520282263756,132.9667432374959L233.70532422494887,142.30742797290083L233.8446842236519,147.60563727105958L233.8586202235222,138.5065574870536L233.9143642230034,140.97592885157945L233.97010822248458,134.13514160938036L234.02585222196578,149.24486840903018L234.2627642197609,134.18944008388968L234.3463802189827,143.1269897480133L234.4021242184639,133.22130038968373L234.4299962182045,137.67716658641706L234.77839621496202,133.38944942890464L235.0431802124977,140.67505517488587L235.1407322115898,137.18112798143972L235.15466821146012,136.94141945347303L235.37764420938493,142.99094428596862L235.4194522089958,140.3267466672598L235.86540420484545,132.13575518919845L235.87934020471573,131.84629717844734L235.89327620458604,143.36552238737954L236.22774020147324,120.30373527828968L236.42284419965745,143.54141168300634L237.13358019304275,135.59985178601048L237.30081219148636,149.23343152860267L238.17878018331527,114.89904214535623L238.31814018201828,132.92659937048222L238.7640921778679,122.19644617567116L238.8198361773491,138.7958336593614L239.0985561747551,140.36347500217892L239.43302017164228,140.04419094075476L239.4608921713829,126.77478662529262L239.697804169178,124.1706964616985L240.21343616437912,129.24809706509788L240.38066816282273,136.2795911630775L240.63151616048813,142.43318289437138L240.70119615983964,139.49834072485817L240.72906815958024,143.0799254129092L240.86842815828325,142.6593929485589L241.11927615594863,143.24268521526483L241.23076415491104,129.52884804505254L241.34225215387343,139.977659284968L241.43980415296556,142.12345217016554L241.67671615076063,129.3168577571362L241.76033214998245,144.4162303727567L241.85788414907455,146.2980559663222L242.51287614297866,143.78815205511L242.5825561423302,142.67869055336106L242.80553214025497,125.84769847499683L242.8891481394768,133.59764080867495L243.02850813817977,145.7568168702853L243.1399961371422,129.29904365096783L243.27935613584518,138.7272078308352L243.3769081349373,139.50484144920847L243.5162681336403,134.7298624222518L243.53020413351058,140.7964353664731L243.5441401333809,144.1043713811033L243.7253081316948,131.66421022254247L243.9900921292305,145.40091206168765L244.2688121266365,142.61734811215186L244.4221081252098,131.53074080511215L244.9795481200218,127.42502271492361L245.07710011911394,131.89253566395448L245.24433211755752,135.84058012458036L245.39762811613085,146.96795561062262L245.84358011198043,142.15399269438896L246.28953210783004,130.71014330853268L246.72154810380934,131.06936363808103L247.23718009901046,138.1564972690898L247.57164409589765,131.15369879279362L247.69706809473038,144.60138964069426L247.78068409395217,141.16951481604661L247.9897240920067,144.94482942399918L248.1987640900612,150.4090772989455" fill="none"></path></g><g><path style="fill: none;" stroke="rgb(0, 153, 136)" stroke-width="2px" d="M32.27856289958954,72.62461955037803L36.68512605857849,88.07897187151555L41.09168921756744,95.71019188552029L45.498252376556394,99.0765306198586L49.904815535545346,102.86573465424357L54.311378694534305,103.43556178421828L58.71794185352325,104.70618821364249L63.1245050125122,107.55069910577316L67.53106817150116,105.84991868536405L71.9376313304901,106.3812415249561L76.34419448947907,108.52278924016122L80.75075764846801,109.21178116335483L85.15732080745698,107.25340537343332L89.56388396644593,108.2363391403274L93.97044712543487,109.08796130598577L98.37701028442383,109.39924447590187L102.78357344341278,109.02301467529702L107.19013660240172,109.62548786713731L111.5966997613907,109.02856983974185L116.00326292037964,108.55114391476334L120.4098260793686,107.9250802155371L124.81638923835754,108.39253836317845L129.2229523973465,107.15180011256209L133.62951555633543,109.22805873467678L138.0360787153244,109.67020497100162L142.44264187431335,107.64540056707796L146.8492050333023,110.16501162052515L151.25576819229127,106.30614830912756L155.66233135128022,105.62508151142396L160.06889451026916,108.08845902626035L164.47545766925813,105.15092261714459L168.88202082824708,106.34051880556439L173.28858398723602,107.58200865507999L177.69514714622497,109.43139654332961L182.1017103052139,107.957438366534L186.5082734642029,106.31185803624925L190.91483662319183,106.78458646810746L195.32139978218078,105.92001437464074L199.72796294116972,107.27365005346135L204.1345261001587,104.30089759914712L208.54108925914767,104.99245647503292L212.9476524181366,104.95510685876565L217.35421557712556,107.09973067430434L221.7607787361145,106.9683766440985L226.16734189510345,108.05868298115924L230.5739050540924,106.44648818907639L234.98046821308137,103.66281134817369L239.3870313720703,104.25365900220146L243.79359453105926,104.15356603105089L248.2001576900482,105.44761628262131" fill="none"></path></g></g></g></g></g></g><g transform="translate(51, 177)" clip-path="url(#clip_1)"><clipPath id="clip_1"><rect width="278" height="22"></rect></clipPath><g><g><line x1="0" y1="0" x2="0" y2="5" style="visibility: inherit;" fill="rgb(0, 0, 0)" stroke="rgb(204, 204, 204)" stroke-width="1px"></line><line x1="27.871999740600586" y1="0" x2="27.871999740600586" y2="5" style="visibility: inherit;" fill="rgb(0, 0, 0)" stroke="rgb(204, 204, 204)" stroke-width="1px"></line><line x1="55.74399948120117" y1="0" x2="55.74399948120117" y2="5" style="visibility: inherit;" fill="rgb(0, 0, 0)" stroke="rgb(204, 204, 204)" stroke-width="1px"></line><line x1="83.61599922180176" y1="0" x2="83.61599922180176" y2="5" style="visibility: inherit;" fill="rgb(0, 0, 0)" stroke="rgb(204, 204, 204)" stroke-width="1px"></line><line x1="111.48799896240234" y1="0" x2="111.48799896240234" y2="5" style="visibility: inherit;" fill="rgb(0, 0, 0)" stroke="rgb(204, 204, 204)" stroke-width="1px"></line><line x1="139.35999870300293" y1="0" x2="139.35999870300293" y2="5" style="visibility: inherit;" fill="rgb(0, 0, 0)" stroke="rgb(204, 204, 204)" stroke-width="1px"></line><line x1="167.23199844360352" y1="0" x2="167.23199844360352" y2="5" style="visibility: inherit;" fill="rgb(0, 0, 0)" stroke="rgb(204, 204, 204)" stroke-width="1px"></line><line x1="195.1039981842041" y1="0" x2="195.1039981842041" y2="5" style="visibility: inherit;" fill="rgb(0, 0, 0)" stroke="rgb(204, 204, 204)" stroke-width="1px"></line><line x1="222.9759979248047" y1="0" x2="222.9759979248047" y2="5" style="visibility: inherit;" fill="rgb(0, 0, 0)" stroke="rgb(204, 204, 204)" stroke-width="1px"></line><line x1="250.84799766540527" y1="0" x2="250.84799766540527" y2="5" style="visibility: inherit;" fill="rgb(0, 0, 0)" stroke="rgb(204, 204, 204)" stroke-width="1px"></line><line x1="278.71999740600586" y1="0" x2="278.71999740600586" y2="5" style="visibility: inherit;" fill="rgb(0, 0, 0)" stroke="rgb(204, 204, 204)" stroke-width="1px"></line></g><g transform="translate(0, 8)"><text style="text-anchor: middle; visibility: hidden; font-family: &quot;Helvetica Neue&quot;, sans-serif; font-size: 12px; font-weight: 200;" x="0" y="0" dx="0em" dy="0.95em" fill="rgb(50, 49, 63)" stroke="none" stroke-width="1px">-20k</text><text style="text-anchor: middle; visibility: hidden; font-family: &quot;Helvetica Neue&quot;, sans-serif; font-size: 12px; font-weight: 200;" x="27.871999740600586" y="0" dx="0em" dy="0.95em" fill="rgb(50, 49, 63)" stroke="none" stroke-width="1px">0</text><text style="text-anchor: middle; visibility: hidden; font-family: &quot;Helvetica Neue&quot;, sans-serif; font-size: 12px; font-weight: 200;" x="55.74399948120117" y="0" dx="0em" dy="0.95em" fill="rgb(50, 49, 63)" stroke="none" stroke-width="1px">20k</text><text style="text-anchor: middle; visibility: hidden; font-family: &quot;Helvetica Neue&quot;, sans-serif; font-size: 12px; font-weight: 200;" x="83.61599922180176" y="0" dx="0em" dy="0.95em" fill="rgb(50, 49, 63)" stroke="none" stroke-width="1px">40k</text><text style="text-anchor: middle; visibility: hidden; font-family: &quot;Helvetica Neue&quot;, sans-serif; font-size: 12px; font-weight: 200;" x="111.48799896240234" y="0" dx="0em" dy="0.95em" fill="rgb(50, 49, 63)" stroke="none" stroke-width="1px">60k</text><text style="text-anchor: middle; visibility: hidden; font-family: &quot;Helvetica Neue&quot;, sans-serif; font-size: 12px; font-weight: 200;" x="139.35999870300293" y="0" dx="0em" dy="0.95em" fill="rgb(50, 49, 63)" stroke="none" stroke-width="1px">80k</text><text style="text-anchor: middle; visibility: hidden; font-family: &quot;Helvetica Neue&quot;, sans-serif; font-size: 12px; font-weight: 200;" x="167.23199844360352" y="0" dx="0em" dy="0.95em" fill="rgb(50, 49, 63)" stroke="none" stroke-width="1px">100k</text><text style="text-anchor: middle; visibility: hidden; font-family: &quot;Helvetica Neue&quot;, sans-serif; font-size: 12px; font-weight: 200;" x="195.1039981842041" y="0" dx="0em" dy="0.95em" fill="rgb(50, 49, 63)" stroke="none" stroke-width="1px">120k</text><text style="text-anchor: middle; visibility: hidden; font-family: &quot;Helvetica Neue&quot;, sans-serif; font-size: 12px; font-weight: 200;" x="222.9759979248047" y="0" dx="0em" dy="0.95em" fill="rgb(50, 49, 63)" stroke="none" stroke-width="1px">140k</text><text style="text-anchor: middle; visibility: hidden; font-family: &quot;Helvetica Neue&quot;, sans-serif; font-size: 12px; font-weight: 200;" x="250.84799766540527" y="0" dx="0em" dy="0.95em" fill="rgb(50, 49, 63)" stroke="none" stroke-width="1px">160k</text><text style="text-anchor: middle; visibility: hidden; font-family: &quot;Helvetica Neue&quot;, sans-serif; font-size: 12px; font-weight: 200;" x="278.71999740600586" y="0" dx="0em" dy="0.95em" fill="rgb(50, 49, 63)" stroke="none" stroke-width="1px">180k</text></g><line x1="0" y1="0" x2="278.71999740600586" y2="0" fill="rgb(0, 0, 0)" stroke="rgb(204, 204, 204)" stroke-width="1px"></line></g></g></g></g></svg>