<svg viewBox="0 0 330 200" xmlns="http://www.w3.org/2000/svg"><g><g><g><g><g><line x1="51.28000259399414" y1="177.95999908447266" x2="46.28000259399414" y2="177.95999908447266" style="visibility: inherit;" fill="rgb(0, 0, 0)" stroke="rgb(204, 204, 204)" stroke-width="1px"></line><line x1="51.28000259399414" y1="164.27076838566705" x2="46.28000259399414" y2="164.27076838566705" style="visibility: inherit;" fill="rgb(0, 0, 0)" stroke="rgb(204, 204, 204)" stroke-width="1px"></line><line x1="51.28000259399414" y1="150.58153768686148" x2="46.28000259399414" y2="150.58153768686148" style="visibility: inherit;" fill="rgb(0, 0, 0)" stroke="rgb(204, 204, 204)" stroke-width="1px"></line><line x1="51.28000259399414" y1="136.89230698805588" x2="46.28000259399414" y2="136.89230698805588" style="visibility: inherit;" fill="rgb(0, 0, 0)" stroke="rgb(204, 204, 204)" stroke-width="1px"></line><line x1="51.28000259399414" y1="123.2030762892503" x2="46.28000259399414" y2="123.2030762892503" style="visibility: inherit;" fill="rgb(0, 0, 0)" stroke="rgb(204, 204, 204)" stroke-width="1px"></line><line x1="51.28000259399414" y1="109.51384559044472" x2="46.28000259399414" y2="109.51384559044472" style="visibility: inherit;" fill="rgb(0, 0, 0)" stroke="rgb(204, 204, 204)" stroke-width="1px"></line><line x1="51.28000259399414" y1="95.82461489163913" x2="46.28000259399414" y2="95.82461489163913" style="visibility: inherit;" fill="rgb(0, 0, 0)" stroke="rgb(204, 204, 204)" stroke-width="1px"></line><line x1="51.28000259399414" y1="82.13538419283354" x2="46.28000259399414" y2="82.13538419283354" style="visibility: inherit;" fill="rgb(0, 0, 0)" stroke="rgb(204, 204, 204)" stroke-width="1px"></line><line x1="51.28000259399414" y1="68.44615349402795" x2="46.28000259399414" y2="68.44615349402795" style="visibility: inherit;" fill="rgb(0, 0, 0)" stroke="rgb(204, 204, 204)" stroke-width="1px"></line><line x1="51.28000259399414" y1="54.756922795222366" x2="46.28000259399414" y2="54.756922795222366" style="visibility: inherit;" fill="rgb(0, 0, 0)" stroke="rgb(204, 204, 204)" stroke-width="1px"></line><line x1="51.28000259399414" y1="41.06769209641678" x2="46.28000259399414" y2="41.06769209641678" style="visibility: inherit;" fill="rgb(0, 0, 0)" stroke="rgb(204, 204, 204)" stroke-width="1px"></line><line x1="51.28000259399414" y1="27.378461397611176" x2="46.28000259399414" y2="27.378461397611176" style="visibility: inherit;" fill="rgb(0, 0, 0)" stroke="rgb(204, 204, 204)" stroke-width="1px"></line><line x1="51.28000259399414" y1="13.689230698805574" x2="46.28000259399414" y2="13.689230698805574" style="visibility: inherit;" fill="rgb(0, 0, 0)" stroke="rgb(204, 204, 204)" stroke-width="1px"></line><line x1="51.28000259399414" y1="0" x2="46.28000259399414" y2="0" style="visibility: inherit;" fill="rgb(0, 0, 0)" stroke="rgb(204, 204, 204)" stroke-width="1px"></line></g><g transform="translate(41.28000259399414, 0)"><text style="text-anchor: end; visibility: hidden; font-family: &quot;Helvetica Neue&quot;, sans-serif; font-size: 12px; font-weight: 200;" x="0" y="177.95999908447266" dx="0em" dy="0.3em" fill="rgb(50, 49, 63)" stroke="none" stroke-width="1px">-0.1</text><text style="text-anchor: end; visibility: inherit; font-family: &quot;Helvetica Neue&quot;, sans-serif; font-size: 12px; font-weight: 200;" x="0" y="164.27076838566705" dx="0em" dy="0.3em" fill="rgb(50, 49, 63)" stroke="none" stroke-width="1px">0</text><text style="text-anchor: end; visibility: hidden; font-family: &quot;Helvetica Neue&quot;, sans-serif; font-size: 12px; font-weight: 200;" x="0" y="150.58153768686148" dx="0em" dy="0.3em" fill="rgb(50, 49, 63)" stroke="none" stroke-width="1px">0.1</text><text style="text-anchor: end; visibility: inherit; font-family: &quot;Helvetica Neue&quot;, sans-serif; font-size: 12px; font-weight: 200;" x="0" y="136.89230698805588" dx="0em" dy="0.3em" fill="rgb(50, 49, 63)" stroke="none" stroke-width="1px">0.2</text><text style="text-anchor: end; visibility: hidden; font-family: &quot;Helvetica Neue&quot;, sans-serif; font-size: 12px; font-weight: 200;" x="0" y="123.2030762892503" dx="0em" dy="0.3em" fill="rgb(50, 49, 63)" stroke="none" stroke-width="1px">0.3</text><text style="text-anchor: end; visibility: inherit; font-family: &quot;Helvetica Neue&quot;, sans-serif; font-size: 12px; font-weight: 200;" x="0" y="109.51384559044472" dx="0em" dy="0.3em" fill="rgb(50, 49, 63)" stroke="none" stroke-width="1px">0.4</text><text style="text-anchor: end; visibility: hidden; font-family: &quot;Helvetica Neue&quot;, sans-serif; font-size: 12px; font-weight: 200;" x="0" y="95.82461489163913" dx="0em" dy="0.3em" fill="rgb(50, 49, 63)" stroke="none" stroke-width="1px">0.5</text><text style="text-anchor: end; visibility: inherit; font-family: &quot;Helvetica Neue&quot;, sans-serif; font-size: 12px; font-weight: 200;" x="0" y="82.13538419283354" dx="0em" dy="0.3em" fill="rgb(50, 49, 63)" stroke="none" stroke-width="1px">0.6</text><text style="text-anchor: end; visibility: hidden; font-family: &quot;Helvetica Neue&quot;, sans-serif; font-size: 12px; font-weight: 200;" x="0" y="68.44615349402795" dx="0em" dy="0.3em" fill="rgb(50, 49, 63)" stroke="none" stroke-width="1px">0.7</text><text style="text-anchor: end; visibility: inherit; font-family: &quot;Helvetica Neue&quot;, sans-serif; font-size: 12px; font-weight: 200;" x="0" y="54.756922795222366" dx="0em" dy="0.3em" fill="rgb(50, 49, 63)" stroke="none" stroke-width="1px">0.8</text><text style="text-anchor: end; visibility: hidden; font-family: &quot;Helvetica Neue&quot;, sans-serif; font-size: 12px; font-weight: 200;" x="0" y="41.06769209641678" dx="0em" dy="0.3em" fill="rgb(50, 49, 63)" stroke="none" stroke-width="1px">0.9</text><text style="text-anchor: end; visibility: inherit; font-family: &quot;Helvetica Neue&quot;, sans-serif; font-size: 12px; font-weight: 200;" x="0" y="27.378461397611176" dx="0em" dy="0.3em" fill="rgb(50, 49, 63)" stroke="none" stroke-width="1px">1</text><text style="text-anchor: end; visibility: hidden; font-family: &quot;Helvetica Neue&quot;, sans-serif; font-size: 12px; font-weight: 200;" x="0" y="13.689230698805574" dx="0em" dy="0.3em" fill="rgb(50, 49, 63)" stroke="none" stroke-width="1px">1.1</text><text style="text-anchor: end; visibility: hidden; font-family: &quot;Helvetica Neue&quot;, sans-serif; font-size: 12px; font-weight: 200;" x="0" y="0" dx="0em" dy="0.3em" fill="rgb(50, 49, 63)" stroke="none" stroke-width="1px">1.2</text></g><line x1="51.28000259399414" y1="0" x2="51.28000259399414" y2="177.95999908447266" fill="rgb(0, 0, 0)" stroke="rgb(204, 204, 204)" stroke-width="1px"></line></g></g><g transform="translate(51, 0)" clip-path="url(#clip_0)"><clipPath id="clip_0"><rect width="278" height="177"></rect></clipPath><g><g><g><line x1="0" y1="0" x2="0" y2="177.95999908447266" fill="rgb(0, 0, 0)" stroke="rgb(60, 60, 60)" stroke-width="1px" opacity="0.25"></line><line x1="27.871999740600586" y1="0" x2="27.871999740600586" y2="177.95999908447266" fill="rgb(0, 0, 0)" stroke="rgb(60, 60, 60)" stroke-width="1px" opacity="0.25"></line><line x1="55.74399948120117" y1="0" x2="55.74399948120117" y2="177.95999908447266" fill="rgb(0, 0, 0)" stroke="rgb(60, 60, 60)" stroke-width="1px" opacity="0.25"></line><line x1="83.61599922180176" y1="0" x2="83.61599922180176" y2="177.95999908447266" fill="rgb(0, 0, 0)" stroke="rgb(60, 60, 60)" stroke-width="1px" opacity="0.25"></line><line x1="111.48799896240234" y1="0" x2="111.48799896240234" y2="177.95999908447266" fill="rgb(0, 0, 0)" stroke="rgb(60, 60, 60)" stroke-width="1px" opacity="0.25"></line><line x1="139.35999870300293" y1="0" x2="139.35999870300293" y2="177.95999908447266" fill="rgb(0, 0, 0)" stroke="rgb(60, 60, 60)" stroke-width="1px" opacity="0.25"></line><line x1="167.23199844360352" y1="0" x2="167.23199844360352" y2="177.95999908447266" fill="rgb(0, 0, 0)" stroke="rgb(60, 60, 60)" stroke-width="1px" opacity="0.25"></line><line x1="195.1039981842041" y1="0" x2="195.1039981842041" y2="177.95999908447266" fill="rgb(0, 0, 0)" stroke="rgb(60, 60, 60)" stroke-width="1px" opacity="0.25"></line><line x1="222.9759979248047" y1="0" x2="222.9759979248047" y2="177.95999908447266" fill="rgb(0, 0, 0)" stroke="rgb(60, 60, 60)" stroke-width="1px" opacity="0.25"></line><line x1="250.84799766540527" y1="0" x2="250.84799766540527" y2="177.95999908447266" fill="rgb(0, 0, 0)" stroke="rgb(60, 60, 60)" stroke-width="1px" opacity="0.25"></line><line x1="278.71999740600586" y1="0" x2="278.71999740600586" y2="177.95999908447266" fill="rgb(0, 0, 0)" stroke="rgb(60, 60, 60)" stroke-width="1px" opacity="0.25"></line></g><g><line x1="0" y1="177.95999908447266" x2="278.71999740600586" y2="177.95999908447266" fill="rgb(0, 0, 0)" stroke="rgb(60, 60, 60)" stroke-width="1px" opacity="0.25"></line><line x1="0" y1="164.27076838566705" x2="278.71999740600586" y2="164.27076838566705" fill="rgb(0, 0, 0)" stroke="rgb(60, 60, 60)" stroke-width="1px" opacity="0.25"></line><line x1="0" y1="150.58153768686148" x2="278.71999740600586" y2="150.58153768686148" fill="rgb(0, 0, 0)" stroke="rgb(60, 60, 60)" stroke-width="1px" opacity="0.25"></line><line x1="0" y1="136.89230698805588" x2="278.71999740600586" y2="136.89230698805588" fill="rgb(0, 0, 0)" stroke="rgb(60, 60, 60)" stroke-width="1px" opacity="0.25"></line><line x1="0" y1="123.2030762892503" x2="278.71999740600586" y2="123.2030762892503" fill="rgb(0, 0, 0)" stroke="rgb(60, 60, 60)" stroke-width="1px" opacity="0.25"></line><line x1="0" y1="109.51384559044472" x2="278.71999740600586" y2="109.51384559044472" fill="rgb(0, 0, 0)" stroke="rgb(60, 60, 60)" stroke-width="1px" opacity="0.25"></line><line x1="0" y1="95.82461489163913" x2="278.71999740600586" y2="95.82461489163913" fill="rgb(0, 0, 0)" stroke="rgb(60, 60, 60)" stroke-width="1px" opacity="0.25"></line><line x1="0" y1="82.13538419283354" x2="278.71999740600586" y2="82.13538419283354" fill="rgb(0, 0, 0)" stroke="rgb(60, 60, 60)" stroke-width="1px" opacity="0.25"></line><line x1="0" y1="68.44615349402795" x2="278.71999740600586" y2="68.44615349402795" fill="rgb(0, 0, 0)" stroke="rgb(60, 60, 60)" stroke-width="1px" opacity="0.25"></line><line x1="0" y1="54.756922795222366" x2="278.71999740600586" y2="54.756922795222366" fill="rgb(0, 0, 0)" stroke="rgb(60, 60, 60)" stroke-width="1px" opacity="0.25"></line><line x1="0" y1="41.06769209641678" x2="278.71999740600586" y2="41.06769209641678" fill="rgb(0, 0, 0)" stroke="rgb(60, 60, 60)" stroke-width="1px" opacity="0.25"></line><line x1="0" y1="27.378461397611176" x2="278.71999740600586" y2="27.378461397611176" fill="rgb(0, 0, 0)" stroke="rgb(60, 60, 60)" stroke-width="1px" opacity="0.25"></line><line x1="0" y1="13.689230698805574" x2="278.71999740600586" y2="13.689230698805574" fill="rgb(0, 0, 0)" stroke="rgb(60, 60, 60)" stroke-width="1px" opacity="0.25"></line><line x1="0" y1="0" x2="278.71999740600586" y2="0" fill="rgb(0, 0, 0)" stroke="rgb(60, 60, 60)" stroke-width="1px" opacity="0.25"></line></g></g></g><g><g><line x1="0" y1="164.27076838566705" x2="278.71999740600586" y2="164.27076838566705" fill="rgb(0, 0, 0)" stroke="rgb(153, 153, 153)" stroke-width="1.5px"></line></g></g><g><g><line x1="27.871999740600586" y1="0" x2="27.871999740600586" y2="177.95999908447266" fill="rgb(0, 0, 0)" stroke="rgb(153, 153, 153)" stroke-width="1.5px"></line></g></g><g><g><g><g><g><path style="fill: none;" stroke="rgb(51, 187, 238)" stroke-width="2px" d="M27.871999740600586,101.95241890102304L27.871999740600586,121.59183043740299" fill="none"></path></g><g><path style="fill: none;" stroke="rgb(204, 51, 17)" stroke-width="2px" d="M28.13539013814926,130.0476916386531L28.469854135036467,121.4919224518996L28.51166213464737,130.0476916386531L28.664958133220676,138.6034608254066L28.87399813127518,142.88134541878333L29.194526128292086,125.76980704527637L30.044622120380403,95.82461489163913L30.086430119991302,125.76980704527637L30.211854118824007,108.65826867176938L31.075886110782623,108.65826867176938L31.145566110134123,117.21403785852286L31.438222107410432,87.26884570488563L31.507902106761936,95.82461489163913L31.605454105854033,104.38038407839262L31.68907010507584,74.4351919247554L32.17683010053635,104.38038407839262L32.20470210027695,108.65826867176938L32.31619009923935,117.21403785852286L32.72033409547806,100.10249948501588L32.999054092884066,95.82461489163913L33.751598085880275,100.10249948501588L33.76553408575058,95.82461489163913L34.04425408315659,74.4351919247554L34.29510208082199,100.10249948501588L34.49020607900619,87.26884570488563L35.35423807096482,95.82461489163913L35.73051006746292,65.8794227380019L35.95348606538773,78.71307651813213L36.051038064479826,91.54673029826239L36.06497406435013,74.4351919247554L36.524862060070035,95.82461489163913L36.71996605825424,87.26884570488563L36.831454057216646,78.71307651813213L36.90113405656815,74.4351919247554L36.929006056308744,82.99096111150888L37.09623805475235,91.54673029826239L37.23559805345535,87.26884570488563L37.834846047878266,91.54673029826239L37.94633404684066,78.71307651813213L38.05782204580307,87.26884570488563L38.42015804243088,65.8794227380019L38.54558204126358,87.26884570488563L38.60132604074478,78.71307651813213L38.62919804048538,57.32365355124841L38.824302038669586,78.71307651813213L38.85217403841018,48.767884364494904L38.94972603750229,91.54673029826239L39.06121403646469,74.4351919247554L39.14483003568649,70.15730733137865L39.5350380320549,65.8794227380019L40.552366022586824,82.99096111150888L41.012254018306734,74.4351919247554L41.05406201791764,70.15730733137865L41.290974015712735,82.99096111150888L41.41639801454544,95.82461489163913L41.43033401441574,78.71307651813213L41.51395001363754,82.99096111150888L41.59756601285934,70.15730733137865L41.84841401052475,65.8794227380019L41.89022201013565,61.60153814462515L42.01564600896835,48.767884364494904L42.69851000261307,65.8794227380019L42.74031800222397,78.71307651813213L42.82393400144577,74.4351919247554L42.90755000066757,61.60153814462515L43.11658999872208,74.4351919247554L43.200205997943876,78.71307651813213L43.269885997295376,74.4351919247554L43.994557990551,65.8794227380019L44.0642379899025,70.15730733137865L44.0781739897728,57.32365355124841L44.329021987438196,91.54673029826239L44.510189985752106,61.60153814462515L44.69135798406601,82.99096111150888L45.22092597913742,61.60153814462515L45.457837976932524,70.15730733137865L45.73655797433853,78.71307651813213L46.22431796979904,61.60153814462515L46.26612596940994,78.71307651813213L46.46122996759415,61.60153814462515L46.516973967075344,61.60153814462515L47.18590196084976,70.15730733137865L47.28345395994186,57.32365355124841L47.59004595708847,65.8794227380019L47.757277955532075,61.60153814462515L47.896637954235075,91.54673029826239L48.31471795034408,61.60153814462515L48.46801394891739,57.32365355124841L48.57950194787979,48.767884364494904L48.66311794710159,65.8794227380019L49.1090699429512,61.60153814462515L49.51321393918991,87.26884570488563L49.736189937114716,70.15730733137865L49.959165935039515,91.54673029826239L50.014909934520716,70.15730733137865L50.25182193231583,70.15730733137865L50.73958192777634,70.15730733137865L50.85106992673874,65.8794227380019L51.32489392232895,87.26884570488563L51.450317921161655,57.32365355124841L51.533933920383454,53.04576895787167L51.603613919734954,70.15730733137865L51.70116591882706,53.04576895787167L51.82658991765976,48.767884364494904L52.02169391584397,65.8794227380019L52.049565915584566,48.767884364494904L52.09137391519547,44.489999771118164L52.21679791402817,70.15730733137865L52.704557909488685,40.212115177741424L53.03902190637588,70.15730733137865L53.331677903652185,48.767884364494904L53.582525901317595,78.71307651813213L53.707949900150304,74.4351919247554L53.8891178984642,53.04576895787167L53.9309258980751,74.4351919247554L54.04241389703751,78.71307651813213L54.59985389184952,74.4351919247554L54.836765889644624,74.4351919247554L54.976125888347624,61.60153814462515L55.01793388795852,74.4351919247554L55.29665388536453,74.4351919247554L55.51962988328934,74.4351919247554L55.77047788095474,61.60153814462515L55.93770987939835,57.32365355124841L56.17462187719345,61.60153814462515L56.25823787641525,61.60153814462515L56.77386987161636,65.8794227380019L56.815677871227265,78.71307651813213L56.829613871097564,57.32365355124841L56.94110187005997,61.60153814462515L56.99684586954117,65.8794227380019L57.09439786863327,70.15730733137865L57.83300586175919,61.60153814462515L57.93055786085129,74.4351919247554L58.055981859683996,87.26884570488563L58.36257385683059,44.489999771118164L58.4183178563118,61.60153814462515L58.5298058552742,57.32365355124841L58.6412938542366,61.60153814462515L58.6970378537178,70.15730733137865L58.97575785112381,70.15730733137865L59.04543785047531,65.8794227380019L59.05937385034561,65.8794227380019L59.129053849697115,65.8794227380019L59.29628584814071,44.489999771118164L59.338093847751615,65.8794227380019L59.40777384710312,57.32365355124841L59.672557844638824,48.767884364494904L59.89553384256363,53.04576895787167L60.03489384126663,70.15730733137865L60.202125839710234,70.15730733137865L60.56446183633804,53.04576895787167L60.68988583517074,44.489999771118164L61.177645830631256,57.32365355124841L61.191581830501555,57.32365355124841L61.21945383024216,70.15730733137865L61.83263782453537,61.60153814462515L61.94412582349777,61.60153814462515L62.06954982233047,53.04576895787167L62.09742182207108,61.60153814462515L62.16710182142258,53.04576895787167L62.515501818180084,65.8794227380019L62.52943781805038,78.71307651813213L62.66879781675338,57.32365355124841L62.69666981649399,74.4351919247554L62.766349815845494,57.32365355124841L62.961453814029696,53.04576895787167L63.045069813251494,53.04576895787167L63.1704938120842,44.489999771118164L63.3795338101387,65.8794227380019L63.46314980936051,78.71307651813213L64.11814180326462,61.60153814462515L64.20175780248641,61.60153814462515L64.43866980028153,70.15730733137865L64.52228579950332,40.212115177741424L65.30270179224014,40.212115177741424L65.37238179159165,53.04576895787167L65.55354978990555,57.32365355124841L66.06918178510666,65.8794227380019L66.26428578329087,40.212115177741424L66.75204577875138,74.4351919247554L67.90873376798629,65.8794227380019L68.15958176565171,61.60153814462515L68.2431977648735,53.04576895787167L68.57766176176071,65.8794227380019L69.23265375566483,40.212115177741424L69.34414175462723,74.4351919247554L69.84583774995804,65.8794227380019L70.06881374788284,65.8794227380019L70.11062174749375,65.8794227380019L70.22210974645614,44.489999771118164L70.26391774606705,70.15730733137865L70.65412574243547,65.8794227380019L71.07220573854447,65.8794227380019L71.85262173128127,61.60153814462515L71.93623773050308,57.798972248419744L72.15921372842789,57.32365355124841L72.41006172609329,53.04576895787167L72.42399772596359,53.04576895787167L72.89782172155381,61.60153814462515L73.0371817202568,44.489999771118164L73.0789897198677,57.32365355124841L73.092925719738,57.32365355124841L73.1207977194786,53.04576895787167L73.1347337193489,53.04576895787167L73.48313371610642,40.212115177741424L73.94302171182632,57.32365355124841L74.50046170663833,74.4351919247554L74.93247770261765,57.32365355124841L75.30874969911576,48.767884364494904L75.37842969846726,44.489999771118164L75.68502169561386,74.4351919247554L75.94980569314956,65.8794227380019L76.15884569120408,40.212115177741424L76.38182168912887,44.489999771118164L76.78596568536759,61.60153814462515L76.82777368497848,57.32365355124841L77.17617368173599,44.489999771118164L77.7754216761589,44.489999771118164L78.05414167356491,53.04576895787167L78.30498967123032,35.934230584364656L78.33286167097091,53.04576895787167L78.36073367071151,53.04576895787167L78.44434966993332,87.26884570488563L78.83455766630173,40.212115177741424L79.02966166448593,57.32365355124841L79.81007765722275,65.8794227380019L79.86582165670394,44.489999771118164L80.01911765527726,44.489999771118164L80.45113365125655,53.04576895787167L80.56262165021896,44.489999771118164L80.74378964853287,40.212115177741424L80.81346964788438,61.60153814462515L81.03644564580917,48.767884364494904L81.10612564516067,57.32365355124841L81.13399764490127,57.32365355124841L81.27335764360427,61.60153814462515L81.3291016430855,61.60153814462515L81.73324563932418,74.4351919247554L81.90047763776779,57.32365355124841L82.6251496310234,65.8794227380019L82.77844562959672,53.04576895787167L83.01535762739182,48.767884364494904L83.40556562376022,65.8794227380019L83.76790162038803,40.212115177741424L83.93513361883163,61.60153814462515L84.08842961740494,53.04576895787167L84.13023761701584,44.489999771118164L84.92458960962296,65.8794227380019L84.99426960897446,40.212115177741424L85.14756560754776,65.8794227380019L86.16489359807969,44.489999771118164L86.31818959665299,61.60153814462515L86.33212559652328,35.934230584364656L86.35999759626388,61.60153814462515L86.42967759561539,57.32365355124841L86.44361359548569,61.60153814462515L86.7920135922432,65.8794227380019L86.8616935915947,57.32365355124841L86.9035015912056,48.767884364494904L87.014989590168,53.04576895787167L87.293709587574,48.767884364494904L87.3355175871849,57.32365355124841L87.3494535870552,44.489999771118164L87.55849358510972,35.934230584364656L87.86508558225631,48.767884364494904L88.04625358057021,61.60153814462515L88.07412558031083,48.767884364494904L88.25529357862473,65.8794227380019L88.77092557382583,57.32365355124841L89.10538957071304,61.60153814462515L89.20294156980515,48.767884364494904L89.28655756902694,53.04576895787167L89.62102156591416,40.212115177741424L89.66282956552506,35.934230584364656L90.48505355787277,40.212115177741424L90.72196555566786,48.767884364494904L91.01462155294418,57.32365355124841L91.05642955255509,65.8794227380019L91.6835495467186,57.32365355124841L91.7253575463295,44.489999771118164L91.9483335442543,48.767884364494904L92.38034954023361,48.767884364494904L92.77055753660203,61.60153814462515L92.88204553556443,53.04576895787167L92.93778953504562,48.767884364494904L93.04927753400803,61.60153814462515L93.20257353258133,57.32365355124841L93.56490952920915,48.767884364494904L93.63458952856064,70.15730733137865L93.85756552648544,35.934230584364656L94.08054152441024,35.934230584364656L94.19202952337265,53.04576895787167L94.31745352220535,48.767884364494904L94.44287752103806,57.32365355124841L94.59617351961136,35.934230584364656L94.61010951948165,48.767884364494904L94.77734151792527,48.767884364494904L94.80521351766586,57.32365355124841L95.33478151273727,44.489999771118164L95.50201351118088,44.489999771118164L95.76679750871658,48.767884364494904L96.0873255057335,57.32365355124841L96.3660455031395,44.489999771118164L97.0349734969139,44.489999771118164L97.16039749574661,44.489999771118164L97.20220549535752,44.489999771118164L97.94081348848343,53.04576895787167L97.98262148809432,53.04576895787167L98.26134148550034,53.04576895787167L98.28921348524094,48.767884364494904L98.30314948511123,48.767884364494904L98.65154948186874,57.32365355124841L99.04175747823716,44.489999771118164L99.32047747564316,40.212115177741424L99.43196547460555,35.934230584364656L99.86398147058486,44.489999771118164L100.10089346837997,57.32365355124841L100.35174146604538,53.04576895787167L100.46322946500779,48.767884364494904L100.8952454609871,40.212115177741424L101.59204545450211,48.767884364494904L101.99618945074081,48.767884364494904L102.14948544931413,57.32365355124841L102.37246144723892,53.04576895787167L102.56756544542313,48.767884364494904L102.86022144269944,70.15730733137865L103.41766143751144,53.04576895787167L103.72425343465805,35.934230584364656L103.79393343400955,53.04576895787167L104.30956542921066,57.32365355124841L104.46286142778396,40.212115177741424L104.74158142518996,48.767884364494904L104.76945342493056,48.767884364494904L105.21540542078019,44.489999771118164L105.5498694176674,57.32365355124841L105.71710141611099,53.04576895787167L105.74497341585159,61.60153814462515L105.8285894150734,44.489999771118164L106.34422141027451,44.489999771118164L106.7344294066429,48.767884364494904L106.76230140638351,57.32365355124841L106.81804540586472,44.489999771118164L107.02708540391922,35.934230584364656L107.59846139860154,65.8794227380019L107.64026939821244,44.489999771118164L108.37887739133835,57.32365355124841L108.42068539094925,35.934230584364656L108.56004538965225,61.60153814462515L108.81089338731765,70.15730733137865L108.82482938718796,53.04576895787167L109.06174138498307,48.767884364494904L109.10354938459396,35.934230584364656L109.57737338018418,61.60153814462515L109.60524537992478,57.32365355124841L109.70279737901687,48.767884364494904L110.20449337434769,57.32365355124841L110.49714937162399,40.212115177741424L110.83161336851121,48.767884364494904L110.9012933678627,35.934230584364656L110.98490936708451,44.489999771118164L111.3611813635826,48.767884364494904L111.63990136098862,57.32365355124841L111.70958136034012,48.767884364494904L111.91862135839462,44.489999771118164L111.98830135774612,44.489999771118164L112.58754935216903,48.767884364494904L112.93594934892656,57.32365355124841L112.96382134866715,40.212115177741424L113.18679734659194,35.934230584364656L113.21466934633254,48.767884364494904L113.29828534555435,35.934230584364656L113.32615734529494,44.489999771118164L113.57700534296036,48.767884364494904L113.89753333997726,40.212115177741424L114.02295733880996,44.489999771118164L114.28774133634568,48.767884364494904L114.44103733491897,40.212115177741424L114.46890933465957,48.767884364494904L114.55252533388138,48.767884364494904L114.73369333219527,70.15730733137865L114.98454132986069,40.212115177741424L115.5280453248024,53.04576895787167L115.8485733218193,44.489999771118164L115.90431732130051,44.489999771118164L115.91825332117081,40.212115177741424L116.25271731805802,57.32365355124841L116.40601331663132,61.60153814462515L116.55930931520462,48.767884364494904L116.65686131429672,53.04576895787167L116.74047731351853,44.489999771118164L117.07494131040573,40.212115177741424L117.89716530275345,53.04576895787167L118.39886129808426,74.4351919247554L118.41279729795455,53.04576895787167L118.46854129743576,31.656345990987916L118.74726129484176,27.378461397611176L118.76119729471206,44.489999771118164L118.77513329458236,53.04576895787167L118.88662129354478,53.04576895787167L119.49980528783797,53.04576895787167L119.59735728693009,53.04576895787167L119.63916528654099,31.656345990987916L119.90394928407669,53.04576895787167L120.6564932770729,48.767884364494904L120.7819172759056,44.489999771118164L120.80978927564621,44.489999771118164L120.86553327512742,44.489999771118164L120.94914927434922,48.767884364494904L120.99095727396012,31.656345990987916L121.08850927305222,44.489999771118164L121.19999727201461,53.04576895787167L121.24180527162552,57.32365355124841L121.40903727006912,40.212115177741424L121.78530926656722,44.489999771118164L121.84105326604843,48.767884364494904L121.99434926462173,48.767884364494904L122.14764526319503,44.489999771118164L123.09529325437546,31.656345990987916L123.29039725255966,48.767884364494904L123.40188525152206,44.489999771118164L123.59698924970627,44.489999771118164L123.61092524957657,48.767884364494904L123.97326124620437,53.04576895787167L124.16836524438857,53.04576895787167L124.51676524114609,61.60153814462515L124.9209092373848,44.489999771118164L124.9627172369957,44.489999771118164L125.3250532336235,57.32365355124841L125.5759012312889,48.767884364494904L125.63164523077012,53.04576895787167L125.98004522752761,53.04576895787167L126.70471722078324,44.489999771118164L126.91375721883774,61.60153814462515L127.02524521780015,35.934230584364656L127.03918121767045,40.212115177741424L127.34577321481704,40.212115177741424L127.59662121248246,44.489999771118164L128.15406120729446,40.212115177741424L128.44671720457077,40.212115177741424L128.75330920171737,44.489999771118164L128.87873320055007,44.489999771118164L129.617341193676,53.04576895787167L129.7706371922493,53.04576895787167L130.0214851899147,44.489999771118164L130.1608451886177,53.04576895787167L130.174781188488,40.212115177741424L130.4395651860237,35.934230584364656L130.76009318304062,48.767884364494904L131.0248771805763,35.934230584364656L131.44295717668533,44.489999771118164L131.56838117551803,53.04576895787167L131.61018917512894,35.934230584364656L131.70774117422104,35.934230584364656L131.84710117292403,44.489999771118164L131.88890917253494,40.212115177741424L131.95858917188644,44.489999771118164L132.09794917058946,40.212115177741424L132.43241316747665,35.934230584364656L132.55783716630935,53.04576895787167L132.82262116384507,31.656345990987916L133.05953316164016,35.934230584364656L133.9235651535988,40.212115177741424L134.41132514905928,44.489999771118164L134.6482371468544,40.212115177741424L134.7875971455574,44.489999771118164L134.85727714490892,44.489999771118164L135.01057314348222,44.489999771118164L135.094189142704,57.32365355124841L135.19174114179611,35.934230584364656L135.44258913946152,48.767884364494904L135.51226913881302,40.212115177741424L135.58194913816453,40.212115177741424L135.8327971358299,65.8794227380019L135.98609313440323,40.212115177741424L136.02790113401414,53.04576895787167L136.30662113142014,48.767884364494904L136.41810913038253,35.934230584364656L136.55746912908555,61.60153814462515L137.04522912454604,44.489999771118164L137.11490912389755,53.04576895787167L137.9650051159859,40.212115177741424L137.97894111585617,35.934230584364656L138.42489311170579,48.767884364494904L139.0241411061287,40.212115177741424L139.13562910509108,40.212115177741424L139.2471171040535,48.767884364494904L139.26105310392379,44.489999771118164L139.73487709951402,48.767884364494904L139.8881730980873,35.934230584364656L140.05540509653093,35.934230584364656L140.29231709432602,48.767884364494904L141.12847708654405,35.934230584364656L141.46294108343125,53.04576895787167L141.88102107954023,44.489999771118164L141.93676507902143,48.767884364494904L142.13186907720566,35.934230584364656L142.36878107500075,40.212115177741424L142.45239707422255,27.378461397611176L143.03770906877517,44.489999771118164L143.26068506669998,40.212115177741424L143.4139810652733,57.32365355124841L143.53940506410598,40.212115177741424L143.6508930630684,44.489999771118164L143.9296130604744,35.934230584364656L143.95748506021502,44.489999771118164L143.9992930598259,53.04576895787167L144.0271650595665,48.767884364494904L144.1107810587883,44.489999771118164L144.3895010561943,61.60153814462515L144.4313090558052,40.212115177741424L144.5009890551567,40.212115177741424L144.6264130539894,40.212115177741424L145.60193304491045,44.489999771118164L145.88065304231645,35.934230584364656L145.89458904218674,48.767884364494904L145.92246104192733,31.656345990987916L146.11756504011154,31.656345990987916L146.17330903959277,48.767884364494904L146.29873303842544,53.04576895787167L146.31266903829575,57.32365355124841L146.38234903764723,40.212115177741424L146.45202903699877,48.767884364494904L146.66106903505323,35.934230584364656L147.09308503103256,44.489999771118164L147.26031702947614,31.656345990987916L147.35786902856827,40.212115177741424L147.42754902791978,53.04576895787167L147.622653026104,48.767884364494904L147.74807702493666,53.04576895787167L148.11041302156448,35.934230584364656L148.2079650206566,40.212115177741424L148.2219010205269,48.767884364494904L148.34732501935957,35.934230584364656L148.876893014431,40.212115177741424L148.98838101339342,57.32365355124841L149.0023170132637,53.04576895787167L149.0580610127449,44.489999771118164L149.5040130085945,40.212115177741424L150.15900500249865,35.934230584364656L150.21474900197984,57.32365355124841L150.53527699899672,53.04576895787167L150.78612499666215,61.60153814462515L150.82793299627303,35.934230584364656L151.12058899354935,53.04576895787167L151.27388499212265,48.767884364494904L151.60834898900987,53.04576895787167L151.70590098810194,48.767884364494904L151.94281298589706,53.04576895787167L151.97068498563766,44.489999771118164L152.01249298524854,31.656345990987916L152.30514898252486,44.489999771118164L152.33302098226545,53.04576895787167L152.402700981617,40.212115177741424L152.55599698019026,65.8794227380019L152.7232289786339,48.767884364494904L152.960140976429,53.04576895787167L153.2109889740944,57.32365355124841L153.29460497331618,31.656345990987916L153.4339649720192,48.767884364494904L153.6848129696846,35.934230584364656L153.69874896955488,31.656345990987916L154.07502096605302,53.04576895787167L154.1865089650154,44.489999771118164L154.32586896371842,40.212115177741424L154.47916496229172,31.656345990987916L154.77182095956803,48.767884364494904L155.02266895723344,48.767884364494904L155.46862095308305,31.656345990987916L155.56617295217515,48.767884364494904L156.29084494543076,31.656345990987916L156.31871694517136,44.489999771118164L156.45807694387435,44.489999771118164L156.55562894296648,53.04576895787167L156.93190093946458,35.934230584364656L157.22455693674087,40.212115177741424L157.36391693544385,35.934230584364656L157.5868929333687,40.212115177741424L157.61476493310929,57.32365355124841L157.7123169322014,44.489999771118164L158.158268928051,53.04576895787167L158.22794892740248,35.934230584364656L158.3812449259758,57.32365355124841L158.45092492532729,44.489999771118164L159.0501729197502,35.934230584364656L159.09198091936113,40.212115177741424L159.37070091676713,44.489999771118164L159.45431691598893,27.378461397611176L159.46825291585924,48.767884364494904L159.83058891248703,35.934230584364656L159.92814091157913,31.656345990987916L160.80610890340807,44.489999771118164L160.93153290224075,48.767884364494904L161.02908490133285,31.656345990987916L161.07089290094376,31.656345990987916L161.16844490003587,40.212115177741424L161.21025289964675,48.767884364494904L161.51684489679337,48.767884364494904L161.67014089536667,44.489999771118164L161.82343689393997,40.212115177741424L161.99066889238358,44.489999771118164L162.00460489225387,35.934230584364656L162.04641289186478,44.489999771118164L162.38087688875197,40.212115177741424L162.4644928879738,44.489999771118164L162.7850208849907,31.656345990987916L162.9243808836937,40.212115177741424L163.0358688826561,48.767884364494904L163.88596487474442,44.489999771118164L164.01138887357712,40.212115177741424L164.1368128724098,35.934230584364656L164.6245728678703,44.489999771118164L165.01478086423876,31.656345990987916L165.05658886384964,40.212115177741424L165.61402885866167,31.656345990987916L165.94849285554886,44.489999771118164L166.85433284711837,44.489999771118164L167.43964484167097,57.32365355124841L167.9413408370018,35.934230584364656L168.01102083635328,48.767884364494904L168.0249568362236,31.656345990987916L168.0528288359642,31.656345990987916L168.2479328341484,35.934230584364656L168.415164832592,44.489999771118164L168.73569282960892,48.767884364494904L168.8193088288307,35.934230584364656L169.02834882688524,40.212115177741424L169.11196482610703,35.934230584364656L169.25132482481004,48.767884364494904L169.58578882169724,53.04576895787167L169.82270081949235,48.767884364494904L170.12929281663895,35.934230584364656L170.56130881261825,35.934230584364656L170.65886081171035,40.212115177741424L170.81215681028365,40.212115177741424L171.09087680768965,44.489999771118164L171.1884288067818,40.212115177741424L171.25810880613327,53.04576895787167L171.8434208006859,35.934230584364656L172.3451167960167,40.212115177741424L172.7353247923851,35.934230584364656L172.76319679212568,35.934230584364656L172.777132791996,40.212115177741424L172.8050047917366,40.212115177741424L172.8886207909584,35.934230584364656L173.01404478979111,40.212115177741424L173.0976607890129,35.934230584364656L173.1673407883644,40.212115177741424L173.57148478460311,31.656345990987916L173.76658878278732,44.489999771118164L173.91988478136062,31.656345990987916L174.05924478006364,40.212115177741424L174.11498877954483,40.212115177741424L174.12892477941512,61.60153814462515L174.51913277578353,65.8794227380019L174.64455677461623,35.934230584364656L174.96508477163314,48.767884364494904L174.97902077150346,44.489999771118164L175.14625276994707,53.04576895787167L175.57826876592637,48.767884364494904L175.70369276475907,44.489999771118164L175.94060476255416,44.489999771118164L176.01028476190567,31.656345990987916L176.13570876073837,40.212115177741424L176.24719675970078,40.212115177741424L176.35868475866317,61.60153814462515L176.5955967564583,48.767884364494904L177.01367675256728,40.212115177741424L177.1530367512703,40.212115177741424L177.6686687464714,48.767884364494904L177.7940927453041,27.378461397611176L177.8080287451744,40.212115177741424L177.8916447443962,44.489999771118164L178.114620742321,48.767884364494904L178.21217274141313,44.489999771118164L178.60238073778152,35.934230584364656L178.61631673765183,31.656345990987916L178.7417407364845,40.212115177741424L178.81142073583604,44.489999771118164L178.96471673440934,35.934230584364656L179.09014073324204,40.212115177741424L179.28524473142622,31.656345990987916L179.81481272649765,40.212115177741424L179.85662072610853,44.489999771118164L179.98204472494126,53.04576895787167L180.33044472169877,48.767884364494904L180.38618872117996,35.934230584364656L180.51161272001266,48.767884364494904L180.70671671819684,40.212115177741424L180.79033271741866,35.934230584364656L180.8182047171593,35.934230584364656L181.2920287127495,35.934230584364656L181.3756447119713,44.489999771118164L181.45926071119308,40.212115177741424L181.48713271093368,61.60153814462515L181.50106871080396,40.212115177741424L181.640428709507,48.767884364494904L181.71010870885848,44.489999771118164L181.9052127070427,44.489999771118164L182.0306367058754,48.767884364494904L182.2536127038002,44.489999771118164L182.6020127005577,40.212115177741424L182.86679669809342,35.934230584364656L182.99222069692613,44.489999771118164L183.2430686945915,40.212115177741424L183.61934069108963,44.489999771118164L183.93986868810654,35.934230584364656L183.96774068784714,44.489999771118164L183.98167668771742,40.212115177741424L184.69241268110275,44.489999771118164L184.80390068006514,53.04576895787167L184.84570867967605,44.489999771118164L184.97113267850878,35.934230584364656L185.50070067358018,35.934230584364656L185.93271666955948,44.489999771118164L186.21143666696548,53.04576895787167L186.4762206645012,40.212115177741424L186.90823666048053,48.767884364494904L187.01972465944291,40.212115177741424L187.0475966591835,31.656345990987916L187.52142065477372,48.767884364494904L187.56322865438463,44.489999771118164L187.75833265256884,48.767884364494904L187.95343665075302,31.656345990987916L188.03705264997484,48.767884364494904L188.42726064634323,44.489999771118164L188.46906864595414,31.656345990987916L188.48300464582442,44.489999771118164L188.5666206450462,53.04576895787167L188.59449264478684,48.767884364494904L188.83140464258193,48.767884364494904L188.94289264154435,44.489999771118164L189.06831664037705,44.489999771118164L189.27735663843154,44.489999771118164L189.50033263635635,40.212115177741424L190.04383663129806,35.934230584364656L190.21106862974165,53.04576895787167L190.23894062948224,35.934230584364656L190.3783006281853,35.934230584364656L190.53159662675856,40.212115177741424L190.6291486258507,44.489999771118164L190.72670062494277,35.934230584364656L190.75457262468336,44.489999771118164L190.99148462247848,53.04576895787167L191.2562686200142,35.934230584364656L191.757964615345,35.934230584364656L192.1342366118431,44.489999771118164L192.2178526110649,48.767884364494904L192.34327660989763,40.212115177741424L192.76135660600661,40.212115177741424L193.08188460302355,31.656345990987916L193.09582060289384,31.656345990987916L193.3466686005592,35.934230584364656L193.73687659692766,35.934230584364656L193.80655659627914,40.212115177741424L193.98772459459306,40.212115177741424L194.18282859277724,35.934230584364656L194.29431659173966,35.934230584364656L194.36399659109117,35.934230584364656L194.39186859083176,35.934230584364656L194.40580459070205,40.212115177741424L194.68452458810805,40.212115177741424L194.75420458745955,40.212115177741424L194.94930858564376,40.212115177741424L195.08866858434678,48.767884364494904L195.15834858369828,53.04576895787167L195.25590058279036,31.656345990987916L195.52068458032608,40.212115177741424L195.6879165787697,40.212115177741424L196.1756765742302,44.489999771118164L196.3011005730629,40.212115177741424L196.9700285668373,53.04576895787167L197.03970856618884,44.489999771118164L197.2487485642433,40.212115177741424L197.40204456281663,31.656345990987916L197.45778856229782,35.934230584364656L197.68076456022263,44.489999771118164L197.86193255853655,40.212115177741424L198.14065255594255,40.212115177741424L198.26607655477525,40.212115177741424L198.37756455373764,44.489999771118164L198.87926054906845,40.212115177741424L199.15798054647445,44.489999771118164L199.19978854608536,40.212115177741424L199.42276454401016,40.212115177741424L199.64574054193497,40.212115177741424L200.63519653272627,40.212115177741424L200.760620531559,44.489999771118164L200.77455653142928,44.489999771118164L201.1926365275383,44.489999771118164L201.45742052507399,40.212115177741424L201.4992285246849,31.656345990987916L201.80582052183152,44.489999771118164L202.41900451612474,53.04576895787167L202.71166051340103,48.767884364494904L202.79527651262282,44.489999771118164L202.82314851236342,48.767884364494904L203.11580450963973,35.934230584364656L203.42239650678633,35.934230584364656L203.82654050302506,40.212115177741424L204.46759649705888,31.656345990987916L204.69057249498368,35.934230584364656L204.85780449342727,44.489999771118164L205.68002848577498,40.212115177741424L205.9030044836998,27.378461397611176L206.33502047967912,31.656345990987916L206.4465084786415,31.656345990987916L206.73916447591782,31.656345990987916L207.08756447267533,40.212115177741424L207.15724447202683,35.934230584364656L207.33841247034073,35.934230584364656L207.51958046865462,53.04576895787167L207.60319646787642,57.32365355124841L208.18850846242904,35.934230584364656L208.20244446229933,40.212115177741424L208.27212446165086,53.04576895787167L208.48116445970535,44.489999771118164L209.28945245218276,48.767884364494904L209.52636444997788,48.767884364494904L209.90263644647598,44.489999771118164L209.91657244634627,61.60153814462515L210.02806044530868,35.934230584364656L210.19529244375227,27.378461397611176L210.2371004433632,31.656345990987916L210.3625244421959,31.656345990987916L210.5715644402504,61.60153814462515L210.6273084397316,40.212115177741424L210.8642204375267,48.767884364494904L211.11506843519211,48.767884364494904L211.36591643285752,31.656345990987916L211.574956430912,44.489999771118164L211.71431642961502,53.04576895787167L211.75612442922593,40.212115177741424L211.92335642766955,40.212115177741424L211.93729242753983,44.489999771118164L211.99303642702102,40.212115177741424L212.38324442338944,31.656345990987916L212.74558042001723,44.489999771118164L213.20546841573716,44.489999771118164L213.41450841379165,48.767884364494904L213.91620440912249,35.934230584364656L213.98588440847396,31.656345990987916L214.65481240224838,44.489999771118164L214.71055640172958,35.934230584364656L214.98927639913558,35.934230584364656L215.6721403927803,31.656345990987916L216.0344763894081,44.489999771118164L216.076284389019,40.212115177741424L216.6615963835716,35.934230584364656L216.8845723814964,48.767884364494904L217.37233237695693,44.489999771118164L217.58137237501145,35.934230584364656L217.69286037397384,35.934230584364656L217.77647637319564,31.656345990987916L218.23636436891556,27.378461397611176L218.47327636671068,31.656345990987916L218.51508436632156,44.489999771118164L218.55689236593247,27.378461397611176L218.73806036424637,31.656345990987916L219.11433236074447,44.489999771118164L219.36518035840987,31.656345990987916L219.46273235750198,44.489999771118164L219.56028435659408,35.934230584364656L219.8668763537407,35.934230584364656L220.159532351017,31.656345990987916L220.34070034933092,44.489999771118164L220.8284603447914,35.934230584364656L221.14898834180832,35.934230584364656L221.19079634141923,31.656345990987916L221.37196433973313,35.934230584364656L221.42770833921432,53.04576895787167L221.51132433843614,40.212115177741424L222.11057233285905,40.212115177741424L222.12450833272933,44.489999771118164L222.38929233026505,27.378461397611176L222.43110032987596,44.489999771118164L222.54258832883835,44.489999771118164L222.55652432870863,35.934230584364656L222.57046032857895,40.212115177741424L222.65407632780077,40.212115177741424L222.93279632520677,40.212115177741424L222.96066832494736,48.767884364494904L223.21151632261277,48.767884364494904L223.90831631612778,44.489999771118164L224.103420314312,53.04576895787167L224.18703631353378,35.934230584364656L224.660860309124,44.489999771118164L225.2322363038063,35.934230584364656L225.6224443001747,31.656345990987916L225.99871629667282,44.489999771118164L226.06839629602433,53.04576895787167L226.15201229524612,53.04576895787167L226.47254029226303,35.934230584364656L226.82094028902054,65.8794227380019L226.98817228746412,40.212115177741424L227.00210828733444,53.04576895787167L227.08572428655626,40.212115177741424L227.21114828538896,35.934230584364656L227.44806028318405,35.934230584364656L227.61529228162763,35.934230584364656L227.69890828084948,35.934230584364656L227.97762827825548,61.60153814462515L228.03337227773667,44.489999771118164L228.36783627462387,31.656345990987916L228.39570827436447,35.934230584364656L228.5211322731972,40.212115177741424L229.21793226671218,40.212115177741424L229.55239626359938,57.32365355124841L229.5663322634697,35.934230584364656L229.8729242606163,48.767884364494904L230.3606842560768,40.212115177741424L230.3746202559471,53.04576895787167L230.70908425283432,40.212115177741424L230.73695625257494,35.934230584364656L230.75089225244523,44.489999771118164L231.16897224855424,27.378461397611176L231.51737224531172,31.656345990987916L231.58705224466325,48.767884364494904L231.79609224271775,44.489999771118164L231.87970824193957,35.934230584364656L232.29778823804855,35.934230584364656L232.31172423791884,35.934230584364656L232.42321223688128,40.212115177741424L232.47895623636248,40.212115177741424L232.56257223558427,35.934230584364656L232.78554823350908,35.934230584364656L233.384796227932,31.656345990987916L233.5520282263756,40.212115177741424L233.70532422494887,40.212115177741424L233.8446842236519,31.656345990987916L233.8586202235222,40.212115177741424L233.9143642230034,35.934230584364656L233.97010822248458,57.32365355124841L234.02585222196578,27.378461397611176L234.2627642197609,53.04576895787167L234.3463802189827,40.212115177741424L234.4021242184639,40.212115177741424L234.4299962182045,40.212115177741424L234.77839621496202,40.212115177741424L235.0431802124977,40.212115177741424L235.1407322115898,35.934230584364656L235.15466821146012,53.04576895787167L235.37764420938493,35.934230584364656L235.4194522089958,44.489999771118164L235.86540420484545,40.212115177741424L235.87934020471573,44.489999771118164L235.89327620458604,40.212115177741424L236.22774020147324,57.32365355124841L236.42284419965745,35.934230584364656L237.13358019304275,44.489999771118164L237.30081219148636,27.378461397611176L238.17878018331527,65.8794227380019L238.31814018201828,53.04576895787167L238.7640921778679,53.04576895787167L238.8198361773491,35.934230584364656L239.0985561747551,35.934230584364656L239.43302017164228,44.489999771118164L239.4608921713829,48.767884364494904L239.697804169178,70.15730733137865L240.21343616437912,35.934230584364656L240.38066816282273,40.212115177741424L240.63151616048813,40.212115177741424L240.70119615983964,40.212115177741424L240.72906815958024,40.212115177741424L240.86842815828325,35.934230584364656L241.11927615594863,35.934230584364656L241.23076415491104,44.489999771118164L241.34225215387343,35.934230584364656L241.43980415296556,40.212115177741424L241.67671615076063,48.767884364494904L241.76033214998245,35.934230584364656L241.85788414907455,40.212115177741424L242.51287614297866,35.934230584364656L242.5825561423302,35.934230584364656L242.80553214025497,48.767884364494904L242.8891481394768,48.767884364494904L243.02850813817977,27.378461397611176L243.1399961371422,48.767884364494904L243.27935613584518,35.934230584364656L243.3769081349373,48.767884364494904L243.5162681336403,40.212115177741424L243.53020413351058,35.934230584364656L243.5441401333809,31.656345990987916L243.7253081316948,53.04576895787167L243.9900921292305,35.934230584364656L244.2688121266365,31.656345990987916L244.4221081252098,48.767884364494904L244.9795481200218,57.32365355124841L245.07710011911394,57.32365355124841L245.24433211755752,44.489999771118164L245.39762811613085,31.656345990987916L245.84358011198043,35.934230584364656L246.28953210783004,48.767884364494904L246.72154810380934,48.767884364494904L247.23718009901046,44.489999771118164L247.57164409589765,48.767884364494904L247.69706809473038,40.212115177741424L247.78068409395217,35.934230584364656L247.9897240920067,35.934230584364656L248.1987640900612,27.378461397611176" fill="none"></path></g><g><path style="fill: none;" stroke="rgb(238, 51, 119)" stroke-width="2px" d="M32.27856289958954,103.62709443131425L36.68512605857849,84.67278021167294L41.09168921756744,76.35013373746936L45.498252376556394,71.35147069536764L49.904815535545346,71.65595567189015L54.311378694534305,70.61562180283322L58.71794185352325,67.31701415862925L63.1245050125122,68.20510145971625L67.53106817150116,68.63645721631083L71.9376313304901,67.67225071094752L76.34419448947907,65.43934456428101L80.75075764846801,65.28709799631109L85.15732080745698,67.67225071094752L89.56388396644593,65.71845375290567L93.97044712543487,65.31247378420898L98.37701028442383,64.44976227101982L102.78357344341278,65.59159113225095L107.19013660240172,64.6273764674703L111.5966997613907,66.27668028957228L116.00326292037964,64.24677228667147L120.4098260793686,65.31247378420898L124.81638923835754,65.31247378420898L129.2229523973465,65.2109787920348L133.62951555633543,65.10948379986061L138.0360787153244,64.06914993080368L142.44264187431335,65.23635457993268L146.8492050333023,62.92732922898989L151.25576819229127,64.29751570304991L155.66233135128022,66.42892685754222L160.06889451026916,64.19602071087573L164.47545766925813,64.24677228667147L168.88202082824708,64.1452772944973L173.28858398723602,63.942279150731636L177.69514714622497,62.34372690442538L182.1017103052139,63.99303072652738L186.5082734642029,65.10948379986061L190.91483662319183,63.637794174209105L195.32139978218078,63.35868498558446L199.72796294116972,63.68854575000486L204.1345261001587,64.77962303544022L208.54108925914767,63.3079334097887L212.9476524181366,64.17064492297786L217.35421557712556,62.698963456743655L221.7607787361145,62.11536113217916L226.16734189510345,62.698963456743655L230.5739050540924,61.63325379978883L234.98046821308137,65.00798880768646L239.3870313720703,63.68854575000486L243.79359453105926,63.434804189860756L248.2001576900482,62.74970687312209" fill="none"></path></g></g></g></g></g></g><g transform="translate(51, 177)" clip-path="url(#clip_1)"><clipPath id="clip_1"><rect width="278" height="22"></rect></clipPath><g><g><line x1="0" y1="0" x2="0" y2="5" style="visibility: inherit;" fill="rgb(0, 0, 0)" stroke="rgb(204, 204, 204)" stroke-width="1px"></line><line x1="27.871999740600586" y1="0" x2="27.871999740600586" y2="5" style="visibility: inherit;" fill="rgb(0, 0, 0)" stroke="rgb(204, 204, 204)" stroke-width="1px"></line><line x1="55.74399948120117" y1="0" x2="55.74399948120117" y2="5" style="visibility: inherit;" fill="rgb(0, 0, 0)" stroke="rgb(204, 204, 204)" stroke-width="1px"></line><line x1="83.61599922180176" y1="0" x2="83.61599922180176" y2="5" style="visibility: inherit;" fill="rgb(0, 0, 0)" stroke="rgb(204, 204, 204)" stroke-width="1px"></line><line x1="111.48799896240234" y1="0" x2="111.48799896240234" y2="5" style="visibility: inherit;" fill="rgb(0, 0, 0)" stroke="rgb(204, 204, 204)" stroke-width="1px"></line><line x1="139.35999870300293" y1="0" x2="139.35999870300293" y2="5" style="visibility: inherit;" fill="rgb(0, 0, 0)" stroke="rgb(204, 204, 204)" stroke-width="1px"></line><line x1="167.23199844360352" y1="0" x2="167.23199844360352" y2="5" style="visibility: inherit;" fill="rgb(0, 0, 0)" stroke="rgb(204, 204, 204)" stroke-width="1px"></line><line x1="195.1039981842041" y1="0" x2="195.1039981842041" y2="5" style="visibility: inherit;" fill="rgb(0, 0, 0)" stroke="rgb(204, 204, 204)" stroke-width="1px"></line><line x1="222.9759979248047" y1="0" x2="222.9759979248047" y2="5" style="visibility: inherit;" fill="rgb(0, 0, 0)" stroke="rgb(204, 204, 204)" stroke-width="1px"></line><line x1="250.84799766540527" y1="0" x2="250.84799766540527" y2="5" style="visibility: inherit;" fill="rgb(0, 0, 0)" stroke="rgb(204, 204, 204)" stroke-width="1px"></line><line x1="278.71999740600586" y1="0" x2="278.71999740600586" y2="5" style="visibility: inherit;" fill="rgb(0, 0, 0)" stroke="rgb(204, 204, 204)" stroke-width="1px"></line></g><g transform="translate(0, 8)"><text style="text-anchor: middle; visibility: hidden; font-family: &quot;Helvetica Neue&quot;, sans-serif; font-size: 12px; font-weight: 200;" x="0" y="0" dx="0em" dy="0.95em" fill="rgb(50, 49, 63)" stroke="none" stroke-width="1px">-20k</text><text style="text-anchor: middle; visibility: hidden; font-family: &quot;Helvetica Neue&quot;, sans-serif; font-size: 12px; font-weight: 200;" x="27.871999740600586" y="0" dx="0em" dy="0.95em" fill="rgb(50, 49, 63)" stroke="none" stroke-width="1px">0</text><text style="text-anchor: middle; visibility: hidden; font-family: &quot;Helvetica Neue&quot;, sans-serif; font-size: 12px; font-weight: 200;" x="55.74399948120117" y="0" dx="0em" dy="0.95em" fill="rgb(50, 49, 63)" stroke="none" stroke-width="1px">20k</text><text style="text-anchor: middle; visibility: hidden; font-family: &quot;Helvetica Neue&quot;, sans-serif; font-size: 12px; font-weight: 200;" x="83.61599922180176" y="0" dx="0em" dy="0.95em" fill="rgb(50, 49, 63)" stroke="none" stroke-width="1px">40k</text><text style="text-anchor: middle; visibility: hidden; font-family: &quot;Helvetica Neue&quot;, sans-serif; font-size: 12px; font-weight: 200;" x="111.48799896240234" y="0" dx="0em" dy="0.95em" fill="rgb(50, 49, 63)" stroke="none" stroke-width="1px">60k</text><text style="text-anchor: middle; visibility: hidden; font-family: &quot;Helvetica Neue&quot;, sans-serif; font-size: 12px; font-weight: 200;" x="139.35999870300293" y="0" dx="0em" dy="0.95em" fill="rgb(50, 49, 63)" stroke="none" stroke-width="1px">80k</text><text style="text-anchor: middle; visibility: hidden; font-family: &quot;Helvetica Neue&quot;, sans-serif; font-size: 12px; font-weight: 200;" x="167.23199844360352" y="0" dx="0em" dy="0.95em" fill="rgb(50, 49, 63)" stroke="none" stroke-width="1px">100k</text><text style="text-anchor: middle; visibility: hidden; font-family: &quot;Helvetica Neue&quot;, sans-serif; font-size: 12px; font-weight: 200;" x="195.1039981842041" y="0" dx="0em" dy="0.95em" fill="rgb(50, 49, 63)" stroke="none" stroke-width="1px">120k</text><text style="text-anchor: middle; visibility: hidden; font-family: &quot;Helvetica Neue&quot;, sans-serif; font-size: 12px; font-weight: 200;" x="222.9759979248047" y="0" dx="0em" dy="0.95em" fill="rgb(50, 49, 63)" stroke="none" stroke-width="1px">140k</text><text style="text-anchor: middle; visibility: hidden; font-family: &quot;Helvetica Neue&quot;, sans-serif; font-size: 12px; font-weight: 200;" x="250.84799766540527" y="0" dx="0em" dy="0.95em" fill="rgb(50, 49, 63)" stroke="none" stroke-width="1px">160k</text><text style="text-anchor: middle; visibility: hidden; font-family: &quot;Helvetica Neue&quot;, sans-serif; font-size: 12px; font-weight: 200;" x="278.71999740600586" y="0" dx="0em" dy="0.95em" fill="rgb(50, 49, 63)" stroke="none" stroke-width="1px">180k</text></g><line x1="0" y1="0" x2="278.71999740600586" y2="0" fill="rgb(0, 0, 0)" stroke="rgb(204, 204, 204)" stroke-width="1px"></line></g></g></g></g></svg>